<svg xmlns="http://www.w3.org/2000/svg" xmlns:xlink="http://www.w3.org/1999/xlink" viewBox="0 0 186.15 17.47" xmlns:v="https://vecta.io/nano"><path d="M7.05 2.44a6.3 6.3 0 1 1-6.3 6.3 6.3 6.3 0 0 1 6.3-6.3m0-.75a7 7 0 1 0 7 7.05 7.05 7.05 0 0 0-7-7z" fill="#f90"/><g fill="#019aed"><path d="M26.884 3.88l-1.428 7.356-.288 1.404h1.152l.204-1.188.6-3.276.156-1.116.048-.012c.036.156.24.732.432 1.164l2.076 4.716 2.088-4.68c.192-.432.408-1.008.444-1.164l.048.012c-.012.12.024.672.108 1.14l.612 3.204.204 1.2h1.152l-.276-1.416L32.74 3.88l-2.388 5.388c-.252.576-.468 1.2-.48 1.332h-.048c-.012-.12-.168-.672-.468-1.332z"/><use xlink:href="#B"/><use xlink:href="#C"/><use xlink:href="#B" x="11.461"/><use xlink:href="#D"/><path d="M59.82 4.228l-1.44.012h-2.124c-.42 0-1.212-.012-1.44-.012v1.08l1.44-.012h.492V11.2l-.012 1.44H57.9l-.012-1.44V5.296h.492l1.44.012zm4.644 8.412h1.248l-.624-1.296L64.032 9.1c-.072-.156-.144-.264-.204-.324l.012-.024c.948-.228 1.584-1.128 1.584-2.184 0-1.284-.924-2.328-2.328-2.328H60.6v6.96l-.012 1.44h1.164l-.012-1.44V8.896h.984l1.26 2.676.48 1.068zm-1.512-7.416c.852 0 1.332.6 1.332 1.332s-.48 1.332-1.332 1.332H61.74V5.224zm5.788 7.416h1.164l-.012-1.44V8.956l1.836-3.24.852-1.476h-1.272l-.504.912-1.092 1.932c-.204.372-.396.756-.396.828h-.048c0-.072-.168-.456-.384-.828l-1.128-1.92-.528-.924h-1.296l.912 1.5 1.908 3.252V11.2l-.012 1.44zM81.358 4c-2.448 0-4.44 1.992-4.44 4.44s1.992 4.44 4.44 4.44 4.44-1.992 4.44-4.44S83.806 4 81.358 4zm0 1.056c1.824 0 3.3 1.512 3.3 3.384s-1.476 3.384-3.3 3.384-3.3-1.512-3.3-3.384 1.476-3.384 3.3-3.384z"/><use xlink:href="#E"/><path d="M95.6 11.2l-.012 1.44h1.164l-.012-1.44V8.56h.924l1.44.012v-1.08l-1.44.012h-.924V5.272h1.548l1.44.012V4.228l-1.44.012H95.6zm9.43-7.2c-2.448 0-4.44 1.992-4.44 4.44s1.992 4.44 4.44 4.44 4.44-1.992 4.44-4.44S107.478 4 105.03 4zm0 1.056c1.824 0 3.3 1.512 3.3 3.384s-1.476 3.384-3.3 3.384-3.3-1.512-3.3-3.384 1.476-3.384 3.3-3.384z"/><use xlink:href="#F"/><path d="M116.46 12.64h3.024l1.44.012v-1.128l-1.44.012H117.6V8.584h1.056l1.44.012V7.492l-1.44.012H117.6V5.296h1.644l1.44.012v-1.08l-1.44.012h-2.784z"/><use xlink:href="#B" x="86.781"/><path d="M131.546 9.976c.204 0 .336-.048.372-.072l.036.048c-.036.024-.144.144-.228.36-.348.852-1.404 1.512-2.532 1.512-1.824 0-3.3-1.512-3.3-3.384s1.476-3.384 3.3-3.384c1.056 0 2.004.552 2.58 1.404l.84-.732C131.822 4.672 130.586 4 129.194 4c-2.448 0-4.44 1.992-4.44 4.44s1.992 4.44 4.44 4.44c2.136 0 3.864-1.596 3.864-3.552 0-.144-.012-.276-.024-.408h-2.532c-.42 0-1.212-.012-1.44-.012v1.08l1.44-.012z"/><use xlink:href="#C" x="95.993"/><use xlink:href="#G"/><use xlink:href="#E" x="68.179"/><use xlink:href="#E" x="73.228"/><use xlink:href="#G" x="17.627"/><use xlink:href="#B" x="137.4"/><use xlink:href="#F" x="64.597"/><use xlink:href="#D" x="131.503"/></g><path d="M19.04 0h.75v17.47h-.75z" fill="#f90"/><path d="M11.49 4.28a6.28 6.28 0 0 0-8.88 0A6.26 6.26 0 0 0 5.52 14.8 4.89 4.89 0 0 0 7 15h0 0 0 0a6.28 6.28 0 0 0 4.49-10.72zm-1 7.92a4.89 4.89 0 0 1-3.78 1.43 1.78 1.78 0 0 1-1-.5 1.74 1.74 0 0 1-.52-1.26 1.78 1.78 0 0 1 1.83-1.79 1.35 1.35 0 0 0 .29 1.46 1.33 1.33 0 0 0 .94.39h0a1.36 1.36 0 0 0 .94-.39h0a1.34 1.34 0 0 0 0-1.89 3.13 3.13 0 0 0-4.44 0 3.09 3.09 0 0 0-.92 2.18 3.46 3.46 0 0 1-.43-1.7A3.55 3.55 0 0 1 7 6.59h0A1.32 1.32 0 0 0 8.27 8.4h0A1.27 1.27 0 0 0 9.2 8h0a1.32 1.32 0 0 0 0-1.87h0a3.09 3.09 0 0 0-2.2-.9A4.92 4.92 0 0 0 2.17 9.4a5.06 5.06 0 0 1 0-.68 5 5 0 0 1 4.88-4.93A5 5 0 0 1 12 8.72a4.89 4.89 0 0 1-1.47 3.48zm-1.71-1.14z" fill="#019aed"/><defs ><path id="B" d="M35.508 4.24l.012 1.44v5.52l-.012 1.44h1.164l-.012-1.44V5.68l.012-1.44z"/><path id="C" d="M45.544 12.976V5.68l.012-1.44h-1.164l.012 1.44v3.84c0 .456.06.768.084.888l-.036.024c-.24-.336-.612-.708-.96-1.068l-5.4-5.46V11.2l-.012 1.44h1.164l-.012-1.44V7.36c0-.456-.06-.768-.084-.888l.036-.024c.24.336.612.708.96 1.068z"/><path id="D" d="M49.097 11.2c.432.78 1.284 1.584 2.616 1.584 1.548 0 2.52-.948 2.52-2.304 0-1.344-1.02-2.1-1.956-2.748-.792-.552-1.5-.984-1.5-1.716 0-.492.348-.912 1.008-.912s1.092.432 1.392.84l.876-.66c-.468-.564-1.152-1.188-2.268-1.188-1.272 0-2.136.828-2.136 1.968 0 1.224 1.02 1.908 1.956 2.568.768.54 1.488 1.068 1.488 1.944 0 .66-.516 1.176-1.38 1.176-.78 0-1.332-.54-1.644-1.08z"/><path id="E" d="M86.882 11.2l-.012 1.44h1.164l-.012-1.44V8.56h.924l1.44.012v-1.08l-1.44.012h-.924V5.272h1.548l1.44.012V4.228l-1.44.012h-2.688z"/><path id="F" d="M114.417 12.64h1.248l-.624-1.296-1.056-2.244c-.072-.156-.144-.264-.204-.324l.012-.024c.948-.228 1.584-1.128 1.584-2.184 0-1.284-.924-2.328-2.328-2.328h-2.496v6.96l-.012 1.44h1.164l-.012-1.44V8.896h.984l1.26 2.676.48 1.068zm-1.512-7.416c.852 0 1.332.6 1.332 1.332s-.48 1.332-1.332 1.332h-1.212V5.224z"/><path id="G" d="M152.487 11.8l.372.84h1.236l-.6-1.308-3.444-7.548-3.348 7.548-.6 1.308h1.236l.372-.84.144-.336h4.476zm-3.792-1.392c-.216 0-.396.048-.42.072l-.024-.048c.024-.012.12-.12.204-.312l1.296-2.916c.228-.516.288-.84.288-.9h.048c0 .06.06.384.3.9l1.332 2.916c.108.24.168.3.192.312l-.024.048c-.036-.024-.192-.072-.42-.072z"/></defs></svg>