<svg xmlns="http://www.w3.org/2000/svg" viewBox="0 0 186.15 17.47"><defs><style>.cls-1{fill:#f90;}.cls-2{font-size:12px;font-family:Semplicita-Medium, Semplicità;font-weight:500;}.cls-2,.cls-6{fill:#019aed;}.cls-3{letter-spacing:-0.02em;}.cls-4{letter-spacing:-0.1em;}.cls-5{letter-spacing:-0.03em;}</style></defs><g id="Layer_2" data-name="Layer 2"><g id="development"><path class="cls-1" d="M7.05,2.44a6.3,6.3,0,1,1-6.3,6.3,6.3,6.3,0,0,1,6.3-6.3m0-.75a7,7,0,1,0,7,7.05,7.05,7.05,0,0,0-7-7Z"/><text class="cls-2" transform="translate(25 12.64)">MINIST<tspan class="cls-3" x="35" y="0">R</tspan><tspan x="40.68" y="0">Y OF FOREIGN AF</tspan><tspan class="cls-4" x="134.51" y="0">F</tspan><tspan x="138.37" y="0">A</tspan><tspan class="cls-5" x="147.08" y="0">I</tspan><tspan x="149.55" y="0">RS</tspan></text><rect class="cls-1" x="19.04" width="0.75" height="17.47"/><path class="cls-6" d="M11.49,4.28a6.28,6.28,0,0,0-8.88,0A6.26,6.26,0,0,0,5.52,14.8,4.89,4.89,0,0,0,7,15v0H7v0h0A6.28,6.28,0,0,0,11.49,4.28Zm-1,7.92a4.89,4.89,0,0,1-3.78,1.43,1.78,1.78,0,0,1-1-.5,1.74,1.74,0,0,1-.52-1.26,1.78,1.78,0,0,1,1.83-1.79,1.35,1.35,0,0,0,.29,1.46,1.33,1.33,0,0,0,.94.39h0a1.36,1.36,0,0,0,.94-.39h0a1.34,1.34,0,0,0,0-1.89,3.13,3.13,0,0,0-4.44,0,3.09,3.09,0,0,0-.92,2.18,3.46,3.46,0,0,1-.43-1.7A3.55,3.55,0,0,1,7,6.59H7A1.32,1.32,0,0,0,8.27,8.4h0A1.27,1.27,0,0,0,9.2,8h0a1.32,1.32,0,0,0,0-1.87h0A3.09,3.09,0,0,0,7,5.23,4.92,4.92,0,0,0,2.17,9.4a5.06,5.06,0,0,1,0-.68A5,5,0,0,1,7.05,3.79,5,5,0,0,1,12,8.72,4.89,4.89,0,0,1,10.53,12.2ZM8.78,11.06Z"/></g></g></svg>