<svg xmlns="http://www.w3.org/2000/svg" xmlns:xlink="http://www.w3.org/1999/xlink" width="150" height="45" xmlns:v="https://vecta.io/nano"><style><![CDATA[.B{fill-opacity:.149}.C{fill:rgb(0%,0%,0%)}.D{fill-rule:evenodd}]]></style><path d="M1.5 0h146.926a1.5 1.5 0 0 1 1.5 1.5v41.98c0 .828-.672 1.496-1.5 1.496H1.5c-.828 0-1.5-.668-1.5-1.496V1.5A1.5 1.5 0 0 1 1.5 0zm0 0" fill="rgb(74.509804%,51.764706%,21.568627%)"/><path d="M78.724 12.5h4.997v5m-5.31 1.563l5.309-6.562M66.23 31.25l4.997-5m7.497 5h4.997v-5M66.23 13.75l17.491 17.5" fill="none" stroke-linecap="round" stroke-linejoin="round" stroke="rgb(100%,100%,100%)" stroke-width="1.8"/><g class="C D B"><use xlink:href="#B"/><use xlink:href="#B" y="-3.101"/><use xlink:href="#B" y="-6.203"/><use xlink:href="#B" y="-9.304"/><use xlink:href="#B" y="-12.406"/><use xlink:href="#B" y="-15.507"/><use xlink:href="#B" y="-18.609"/><use xlink:href="#B" y="-21.711"/><use xlink:href="#B" y="-24.812"/><use xlink:href="#B" y="-27.914"/><path d="M23.988 12.426h101.949v1.555H23.988zm0 0"/><use xlink:href="#B" y="-34.121"/><use xlink:href="#B" y="-37.222"/><use xlink:href="#B" y="-40.324"/><path d="M23.988.02h101.949V1.57H23.988zm0 0"/></g><path d="M23.988 0h29.984v44.977H23.988zm71.965 0h29.984v44.977H95.953zm0 0" class="B C"/><g class="D B C"><use xlink:href="#C"/><use xlink:href="#C" y="-3.102"/><use xlink:href="#C" y="-6.204"/><use xlink:href="#C" y="-9.305"/><use xlink:href="#C" y="-12.407"/><use xlink:href="#C" y="-15.508"/><use xlink:href="#C" y="-18.61"/><use xlink:href="#C" y="-21.711"/><use xlink:href="#C" y="-24.813"/><path d="M0 13.977h23.988v1.555H0zm0 0"/><use xlink:href="#C" y="-31.02"/><use xlink:href="#C" y="-34.122"/><use xlink:href="#C" y="-37.223"/><use xlink:href="#C" y="-40.325"/><use xlink:href="#D"/><use xlink:href="#D" y="-3.102"/><use xlink:href="#D" y="-6.204"/><use xlink:href="#D" y="-9.305"/><use xlink:href="#D" y="-12.407"/><use xlink:href="#D" y="-15.508"/><use xlink:href="#D" y="-18.61"/><use xlink:href="#D" y="-21.711"/><use xlink:href="#D" y="-24.813"/><path d="M125.938 13.977h23.988v1.555h-23.988zm0 0"/><use xlink:href="#D" y="-31.02"/><use xlink:href="#D" y="-34.122"/><use xlink:href="#D" y="-37.223"/><use xlink:href="#D" y="-40.325"/></g><path d="M40.707 38.797v-1.301l.293-.043c.391-.059.734-.258.898-.523.211-.34.184-1.109-.062-1.781l-.184-.516.152-.379c.184-.449.16-.73-.082-.98-.164-.168-.328-.242-.715-.328-.293-.062-.395-.777-.187-1.242.23-.5.957-1.023 1.801-1.297 1.145-.379 2.777-1.16 3.738-1.793.77-.512 1.844-1.586 2.215-2.227a5.26 5.26 0 0 0 .719-2.723c0-1.109-.273-2.25-1.039-4.273l-.621-1.82c-.141-.582-.254-1.738-.254-2.582 0-.48.016-.582.121-.687.07-.066.164-.125.211-.125.102 0 .586.504.992 1.043.16.215.301.379.316.371.027-.031-.262-5.43-.297-5.465-.043-.043-.656.641-1.066 1.18-.73.973-1.215 1.934-1.496 2.988-.148.539-.16.699-.16 1.742 0 1.305.035 1.531.633 3.828.52 1.973.641 2.582.645 3.309a3.79 3.79 0 0 1-.426 1.871c-.496 1.008-1.488 1.949-2.715 2.563-.867.434-2.008.715-2.562.637-.73-.105-1.254-.723-1.461-1.723-.086-.387-.094-1.328-.051-7.656l.039-7.215.805.406.824.379c.012-.012-.594-1.406-1.348-3.098l-1.414-3.02c-.031.035-2.746 5.945-2.828 6.148-.016.035.352-.137.813-.379l.836-.441.047 6.535.051 7.371c.004 1.047-.129 1.555-.523 2-.406.465-.652.566-1.383.566-.598 0-.641-.012-1.27-.281-1.426-.617-2.746-1.5-3.301-2.207-.781-.992-.836-2.008-.238-4.43.625-2.535.801-3.879.695-5.25-.156-2.055-1.098-4.215-2.406-5.512l-.371-.367v.34l-.031 1.047-.129 4.063c.008.008.168-.223.355-.516.559-.895.992-1.109 1.203-.609.262.629.023 1.906-1.176 6.352l-.59 2.289c-.102.555-.035 1.746.121 2.238.301.945.766 1.664 1.578 2.43a9.6 9.6 0 0 0 1.098.883c.738.488 2.078 1.141 3.164 1.535l1.117.406c.703.266 1.262 1.211 1.258 2.129 0 .277-.004.285-.309.418-.598.262-.727.895-.297 1.508.109.168.109.172-.086.59-.223.477-.293 1.047-.176 1.398.094.289.449.633.82.797l.305.141v1.289zm71.965.019v-1.301l.293-.043c.391-.055.734-.258.898-.523.211-.34.184-1.105-.062-1.781l-.184-.512.152-.379c.18-.449.156-.73-.086-.984-.16-.164-.324-.242-.711-.324-.293-.066-.398-.781-.187-1.242.23-.5.953-1.023 1.801-1.301 1.141-.375 2.773-1.16 3.738-1.793.77-.508 1.844-1.582 2.215-2.227.484-.832.719-1.711.719-2.723 0-1.109-.273-2.246-1.039-4.27l-.621-1.82c-.141-.582-.254-1.738-.254-2.582 0-.484.016-.582.121-.687.07-.07.16-.125.211-.125.102 0 .582.504.992 1.039.16.219.301.383.316.375.027-.035-.262-5.434-.301-5.465-.039-.047-.652.637-1.062 1.18-.734.969-1.215 1.93-1.5 2.984-.145.543-.16.703-.16 1.742 0 1.309.039 1.531.637 3.832.52 1.973.641 2.582.645 3.309a3.8 3.8 0 0 1-.426 1.871c-.496 1.008-1.492 1.949-2.715 2.563-.867.434-2.008.711-2.562.633-.73-.105-1.254-.719-1.465-1.719-.082-.391-.09-1.332-.047-7.656l.039-7.215.801.402.828.383c.012-.016-.594-1.41-1.352-3.098l-1.41-3.023c-.031.039-2.746 5.945-2.828 6.152-.016.031.352-.141.813-.383l.832-.437.051 6.535.051 7.371c.004 1.047-.129 1.555-.523 2-.406.461-.656.563-1.383.563-.598 0-.645-.008-1.27-.277-1.426-.621-2.746-1.5-3.301-2.207-.781-.996-.836-2.008-.238-4.43.625-2.539.801-3.883.695-5.254-.156-2.055-1.102-4.215-2.406-5.508l-.371-.367v.34l-.031 1.047-.129 4.063c.008.008.168-.227.352-.52.559-.895.996-1.109 1.207-.609.262.629.023 1.91-1.176 6.352l-.59 2.289c-.102.555-.035 1.75.117 2.238.305.945.77 1.664 1.578 2.434.348.32.715.613 1.102.879.738.492 2.078 1.141 3.164 1.535l1.117.41c.703.262 1.262 1.207 1.258 2.129 0 .273-.004.285-.309.418-.602.262-.73.895-.297 1.508.109.168.109.172-.086.586-.223.477-.297 1.047-.176 1.398.09.289.449.633.82.801l.305.137v1.289zm-1.535 3.348" fill="rgb(96.078431%,89.803922%,83.921569%)"/><defs ><path id="B" d="M23.988 43.445h101.949v1.551H23.988zm0 0"/><path id="C" d="M0 41.895h23.988v1.551H0zm0 0"/><path id="D" d="M125.938 41.895h23.988v1.551h-23.988zm0 0"/></defs></svg>