<svg xmlns="http://www.w3.org/2000/svg" xmlns:xlink="http://www.w3.org/1999/xlink" width="666.667" height="200" viewBox="0 0 500 150" xmlns:v="https://vecta.io/nano"><defs><linearGradient id="A" gradientTransform="translate(-21726,-49904)"><stop stop-color="#fffffc" offset="0"/></linearGradient><linearGradient id="B" gradientTransform="translate(-5694,-13176)"><stop stop-color="#f0b400" offset="0"/></linearGradient><linearGradient ><stop stop-color="#ffc000" offset="0"/><stop stop-color="#ffdf80" offset=".5"/><stop stop-color="#e5ac00" offset="1"/></linearGradient><linearGradient id="D" gradientUnits="userSpaceOnUse"><stop stop-opacity=".15" offset="0"/></linearGradient><linearGradient id="E" x1="0" x2="500" y1="74.96" y2="74.96" gradientUnits="userSpaceOnUse"><stop stop-color="#0080c4" offset="0"/></linearGradient><path id="F" d="M479 370.21h340v5.172H479z"/></defs><path d="M5 0h490a5 5 0 0 1 5 4.998v139.93a5 5 0 0 1-5 4.998H5a5 5 0 0 1-5-4.998V4.998A5 5 0 0 1 5 0z" fill="url(#E)"/><g fill="url(#B)"><path d="M5 0A5 5 0 0 0 0 4.998v139.93a5 5 0 0 0 5 4.998h75V-.004z"/><path d="M420 0v149.93h75a5 5 0 0 0 5-4.998V5.002a5 5 0 0 0-5-4.998z"/></g><g transform="matrix(4.1667 0 0 4.1667 200 25)" fill="none" stroke="#fff" stroke-linejoin="round" stroke-width="1.44"><rect x="5" y="3" width="14" height="6" rx=".66"/><path d="m19 6h1a2 2 0 0 1 2 2 5 5 0 0 1-5 5h-5v2" stroke-linecap="round"/><rect x="10" y="15" width="4" height="6" rx=".33"/></g><g transform="matrix(1 0 0 .9995 -399 -245.88)" fill="url(#D)"><g fill-rule="evenodd"><path d="M479 390.9h340v5.173H479z"/><path d="M479 380.55h340v5.173H479z"/><use xlink:href="#F"/><use xlink:href="#F" y="-10.35"/><use xlink:href="#F" y="-20.69"/><path d="M479 339.18h340v5.173H479z"/><path d="M479 328.83h340v5.173H479z"/><use xlink:href="#F" y="-51.72"/><use xlink:href="#F" y="-62.07"/><use xlink:href="#F" y="-72.41"/><path d="M479 287.45h340v5.173H479z"/><path d="M479 277.11h340v5.173H479z"/><use xlink:href="#F" y="-103.45"/><use xlink:href="#F" y="-113.79"/><use xlink:href="#F" y="-124.14"/></g><path d="M479 246h100v150H479z"/><path d="M719 246h100v150H719z"/><g fill-rule="evenodd"><path d="m399 385.73h80v5.172h-80z"/><path d="m399 375.38h80v5.172h-80z"/><path d="m399 365.04h80v5.172h-80z"/><path d="m399 354.69h80v5.173h-80z"/><path d="m399 344.35h80v5.173h-80z"/><path d="m399 334h80v5.172h-80z"/><path d="m399 323.66h80v5.172h-80z"/><path d="m399 313.31h80v5.172h-80z"/><path d="m399 302.97h80v5.173h-80z"/><path d="m399 292.62h80v5.173h-80z"/><path d="m399 282.28h80v5.172h-80z"/><path d="m399 271.93h80v5.172h-80z"/><path d="m399 261.59h80v5.172h-80z"/><path d="m399 251.24h80v5.173h-80z"/><path d="m819 385.73h80v5.172h-80z"/><path d="m819 375.38h80v5.172h-80z"/><path d="m819 365.04h80v5.172h-80z"/><path d="m819 354.69h80v5.173h-80z"/><path d="m819 344.35h80v5.173h-80z"/><path d="m819 334h80v5.172h-80z"/><path d="m819 323.66h80v5.172h-80z"/><path d="m819 313.31h80v5.172h-80z"/><path d="m819 302.97h80v5.173h-80z"/><path d="m819 292.62h80v5.173h-80z"/><path d="m819 282.28h80v5.172h-80z"/><path d="m819 271.93h80v5.172h-80z"/><path d="m819 261.59h80v5.172h-80z"/><path d="m819 251.24h80v5.173h-80z"/></g></g><g fill="url(#A)"><path d="M135.76 129.32q0-2.427 0-4.332l.976-.148c1.297-.188 2.446-.858 2.999-1.746.7-1.129.611-3.689-.217-5.933l-.612-1.711.508-1.267c.612-1.5.533-2.432-.276-3.275-.538-.552-1.085-.809-2.372-1.085-.977-.217-1.327-2.599-.626-4.142.764-1.667 3.18-3.408 6.006-4.33 3.807-1.253 9.252-3.867 12.462-5.977 2.57-1.697 6.15-5.277 7.388-7.417 1.617-2.782 2.401-5.716 2.401-9.079 0-3.699-.917-7.491-3.471-14.238-.903-2.386-1.835-5.119-2.067-6.07-.473-1.938-.853-5.79-.853-8.606 0-1.608.059-1.938.409-2.293.232-.227.538-.414.706-.414.335 0 1.943 1.681 3.304 3.471.532.721 1.006 1.268 1.055 1.243.089-.113-.873-18.103-.996-18.217-.138-.148-2.185 2.131-3.546 3.931-2.446 3.24-4.054 6.44-5 9.956-.489 1.805-.533 2.338-.533 5.81 0 4.354.118 5.104 2.12 12.767 1.731 6.574 2.131 8.606 2.141 11.027.015 2.412-.365 4.064-1.42 6.234-1.653 3.363-4.967 6.5-9.05 8.546-2.89 1.44-6.697 2.372-8.546 2.111-2.431-.35-4.177-2.402-4.878-5.735-.276-1.297-.305-4.434-.167-25.521l.133-24.046 2.678 1.346c1.484.73 2.722 1.302 2.752 1.267.044-.044-1.973-4.69-4.498-10.321s-4.631-10.154-4.705-10.076c-.108.124-9.162 19.82-9.434 20.506-.049.108 1.174-.464 2.708-1.273l2.781-1.464.168 21.782.167 24.574c.015 3.487-.429 5.183-1.745 6.663-1.361 1.548-2.185 1.884-4.616 1.884-1.988 0-2.141-.03-4.236-.932-4.754-2.062-9.158-5.001-11.008-7.353-2.599-3.319-2.781-6.697-.794-14.77 2.082-8.453 2.673-12.936 2.323-17.507-.518-6.85-3.669-14.05-8.023-18.365l-1.243-1.223v1.134a103.38 103.38 0 0 1-.104 3.487l-.429 13.546c.03.025.562-.754 1.179-1.731 1.864-2.978 3.314-3.698 4.019-2.031.873 2.096.079 6.361-3.916 21.176l-1.967 7.629c-.341 1.849-.124 5.824.394 7.461 1.011 3.151 2.555 5.548 5.262 8.103a32.31 32.31 0 0 0 3.669 2.939c2.461 1.632 6.924 3.802 10.549 5.119l3.728 1.361c2.343.873 4.207 4.024 4.192 7.096 0 .913-.015.947-1.026 1.391-2.002.873-2.431 2.979-.991 5.025.365.558.365.572-.291 1.963-.735 1.588-.981 3.487-.582 4.66.306.962 1.499 2.111 2.737 2.659l1.011.463v4.298h11.313zm-5.124 11.158" vector-effect="non-scaling-stroke"/><path d="M375.76 129.39q0-2.428 0-4.333l.976-.148c1.297-.187 2.446-.858 2.999-1.745.7-1.13.611-3.689-.217-5.933l-.612-1.711.508-1.268c.612-1.499.533-2.431-.276-3.274-.538-.553-1.085-.809-2.372-1.085-.977-.217-1.327-2.599-.626-4.143.764-1.667 3.18-3.407 6.006-4.33 3.807-1.252 9.252-3.866 12.462-5.977 2.57-1.696 6.15-5.276 7.388-7.417 1.617-2.781 2.401-5.715 2.401-9.079 0-3.698-.917-7.491-3.471-14.237-.903-2.387-1.835-5.119-2.067-6.071-.473-1.938-.853-5.789-.853-8.605 0-1.608.059-1.938.409-2.293.232-.227.538-.415.706-.415.335 0 1.943 1.682 3.304 3.472.532.72 1.006 1.268 1.055 1.243.089-.114-.873-18.104-.996-18.217-.138-.148-2.185 2.13-3.546 3.93-2.446 3.24-4.054 6.441-5 9.957-.489 1.805-.533 2.338-.533 5.809 0 4.355.118 5.104 2.12 12.768 1.731 6.574 2.131 8.606 2.141 11.027.015 2.412-.365 4.064-1.42 6.233-1.653 3.364-4.967 6.5-9.05 8.547-2.89 1.44-6.697 2.372-8.546 2.111-2.431-.351-4.177-2.402-4.878-5.736-.276-1.297-.305-4.433-.167-25.521l.133-24.046 2.678 1.347c1.484.729 2.722 1.301 2.752 1.267.044-.044-1.973-4.69-4.498-10.322-2.52-5.627-4.631-10.154-4.705-10.075-.108.123-9.162 19.82-9.434 20.505-.049.109 1.174-.463 2.708-1.272l2.781-1.465.168 21.783.167 24.574c.015 3.486-.429 5.183-1.745 6.662-1.361 1.549-2.185 1.884-4.616 1.884-1.988 0-2.141-.029-4.236-.932-4.754-2.061-9.158-5-11.008-7.353-2.599-3.319-2.781-6.697-.794-14.77 2.082-8.452 2.673-12.935 2.323-17.507-.518-6.85-3.669-14.05-8.023-18.365l-1.243-1.223v1.135c0 .611-.045 2.184-.104 3.486l-.429 13.547c.03.025.562-.754 1.179-1.731 1.864-2.979 3.314-3.699 4.019-2.032.873 2.096.079 6.362-3.916 21.176l-1.967 7.629c-.341 1.85-.124 5.825.394 7.462 1.011 3.151 2.555 5.548 5.262 8.102a32.43 32.43 0 0 0 3.669 2.94c2.461 1.632 6.924 3.802 10.549 5.118l3.728 1.362c2.343.872 4.207 4.024 4.192 7.096 0 .912-.015.947-1.026 1.391-2.002.873-2.431 2.978-.991 5.025.365.557.365.572-.291 1.963-.735 1.588-.981 3.486-.582 4.66.306.962 1.499 2.111 2.737 2.658l1.011.464v4.298h11.313zm-5.124 11.157" vector-effect="non-scaling-stroke"/></g></svg>