<svg xmlns="http://www.w3.org/2000/svg" xmlns:xlink="http://www.w3.org/1999/xlink" viewBox="0 0 500 150" width="666.667" height="200" xmlns:v="https://vecta.io/nano"><defs><linearGradient id="A" gradientUnits="userSpaceOnUse"><stop offset="0" stop-opacity=".15"/></linearGradient><linearGradient id="B" gradientTransform="translate(-11994,-5826)" gradientUnits="userSpaceOnUse"><stop offset="0" stop-color="#f0b400"/></linearGradient><linearGradient id="C" gradientTransform="matrix(0.75,0,0,0.75,-21920.283,-10110.793)"><stop offset="0" stop-color="#38b9ff"/></linearGradient><linearGradient ><stop offset="0" stop-color="#ffc000"/><stop offset=".5" stop-color="#ffdf80"/><stop offset="1" stop-color="#e5ac00"/></linearGradient><linearGradient xlink:href="#B" id="E" x1="212.875" y1="53.964" x2="287.125" y2="53.964"/><linearGradient xlink:href="#B" id="F" x1="212.875" y1="74.964" x2="287.125" y2="74.964"/><linearGradient xlink:href="#B" id="G" x1="212.875" y1="95.964" x2="287.125" y2="95.964"/><linearGradient xlink:href="#A" id="H" x1="399" y1="321.036" x2="899" y2="321.036"/><linearGradient xlink:href="#A" id="I" x1="399" y1="331.381" x2="899" y2="331.381"/><linearGradient xlink:href="#A" id="J" x1="399" y1="341.726" x2="899" y2="341.726"/><linearGradient xlink:href="#A" id="K" x1="399" y1="372.76" x2="899" y2="372.76"/><linearGradient xlink:href="#A" id="L" x1="399" y1="383.105" x2="899" y2="383.105"/><linearGradient xlink:href="#A" id="M" x1="399" y1="393.45" x2="899" y2="393.45"/><linearGradient xlink:href="#A" id="N" x1="399" y1="424.484" x2="899" y2="424.484"/><linearGradient xlink:href="#A" id="O" x1="399" y1="434.829" x2="899" y2="434.829"/><linearGradient xlink:href="#A" id="P" x1="399" y1="445.174" x2="899" y2="445.174"/><linearGradient id="Q" x1="0" y1="74.964" x2="500" y2="74.964" gradientUnits="userSpaceOnUse"><stop offset="0" stop-color="#005080"/></linearGradient><path id="R" d="M479 370.21h340v5.172H479z"/></defs><path d="M5 0h490a5 5 0 0 1 5 4.998V144.93a5 5 0 0 1-5 4.998H5a5 5 0 0 1-5-4.998V4.998A5 5 0 0 1 5 0z" fill="url(#Q)"/><g transform="matrix(1 0 0 .9995 -399 -245.88198)"><g fill-rule="evenodd"><path d="M479 390.899h340v5.173H479z" fill="url(#H)"/><path d="M479 380.554h340v5.173H479z" fill="url(#H)"/><use xlink:href="#R" fill="url(#H)"/><use xlink:href="#R" y="-10.345" fill="url(#I)"/><use xlink:href="#R" y="-20.69" fill="url(#J)"/><path d="M479 339.175h340v5.173H479z" fill="url(#H)"/><path d="M479 328.83h340v5.173H479z" fill="url(#H)"/><use xlink:href="#R" y="-51.724" fill="url(#K)"/><use xlink:href="#R" y="-62.069" fill="url(#L)"/><use xlink:href="#R" y="-72.414" fill="url(#M)"/><path d="M479 287.451h340v5.173H479z" fill="url(#H)"/><path d="M479 277.106h340v5.173H479z" fill="url(#H)"/><use xlink:href="#R" y="-103.448" fill="url(#N)"/><use xlink:href="#R" y="-113.793" fill="url(#O)"/><use xlink:href="#R" y="-124.138" fill="url(#P)"/></g><path fill="url(#H)" d="M479 246h100v150H479z"/><path fill="url(#H)" d="M719 246h100v150H719z"/><g fill-rule="evenodd"><path d="M399 385.727h80v5.172h-80z" fill="url(#H)"/><path d="M399 375.382h80v5.172h-80z" fill="url(#H)"/><path d="M399 365.037h80v5.172h-80z" fill="url(#H)"/><path d="M399 354.692h80v5.173h-80z" fill="url(#H)"/><path d="M399 344.347h80v5.173h-80z" fill="url(#H)"/><path d="M399 334.003h80v5.172h-80z" fill="url(#H)"/><path d="M399 323.658h80v5.172h-80z" fill="url(#H)"/><path d="M399 313.313h80v5.172h-80z" fill="url(#H)"/><path d="M399 302.968h80v5.173h-80z" fill="url(#H)"/><path d="M399 292.623h80v5.173h-80z" fill="url(#H)"/><path d="M399 282.279h80v5.172h-80z" fill="url(#H)"/><path d="M399 271.934h80v5.172h-80z" fill="url(#H)"/><path d="M399 261.589h80v5.172h-80z" fill="url(#H)"/><path d="M399 251.244h80v5.173h-80z" fill="url(#H)"/><path d="M819 385.727h80v5.172h-80z" fill="url(#H)"/><path d="M819 375.382h80v5.172h-80z" fill="url(#H)"/><path d="M819 365.037h80v5.172h-80z" fill="url(#H)"/><path d="M819 354.692h80v5.173h-80z" fill="url(#H)"/><path d="M819 344.347h80v5.173h-80z" fill="url(#H)"/><path d="M819 334.003h80v5.172h-80z" fill="url(#H)"/><path d="M819 323.658h80v5.172h-80z" fill="url(#H)"/><path d="M819 313.313h80v5.172h-80z" fill="url(#H)"/><path d="M819 302.968h80v5.173h-80z" fill="url(#H)"/><path d="M819 292.623h80v5.173h-80z" fill="url(#H)"/><path d="M819 282.279h80v5.172h-80z" fill="url(#H)"/><path d="M819 271.934h80v5.172h-80z" fill="url(#H)"/><path d="M819 261.589h80v5.172h-80z" fill="url(#H)"/><path d="M819 251.244h80v5.173h-80z" fill="url(#H)"/></g></g><g fill="url(#C)"><path d="M135.761 129.319q0-2.427 0-4.332l.976-.148c1.297-.188 2.446-.858 2.999-1.746.7-1.129.611-3.689-.217-5.933l-.612-1.711.508-1.267c.612-1.5.533-2.432-.276-3.275-.538-.552-1.085-.809-2.372-1.085-.977-.217-1.327-2.599-.626-4.142.764-1.667 3.18-3.408 6.006-4.33 3.807-1.253 9.252-3.867 12.462-5.977 2.57-1.697 6.15-5.277 7.388-7.417 1.617-2.782 2.401-5.716 2.401-9.079 0-3.699-.917-7.491-3.471-14.238-.903-2.386-1.835-5.119-2.067-6.07-.473-1.938-.853-5.79-.853-8.606 0-1.608.059-1.938.409-2.293.232-.227.538-.414.706-.414.335 0 1.943 1.681 3.304 3.471.532.721 1.006 1.268 1.055 1.243.089-.113-.873-18.103-.996-18.217-.138-.148-2.185 2.131-3.546 3.931-2.446 3.24-4.054 6.44-5 9.956-.489 1.805-.533 2.338-.533 5.81 0 4.354.118 5.104 2.12 12.767 1.731 6.574 2.131 8.606 2.141 11.027.015 2.412-.365 4.064-1.42 6.234-1.653 3.363-4.967 6.5-9.05 8.546-2.89 1.44-6.697 2.372-8.546 2.111-2.431-.35-4.177-2.402-4.878-5.735-.276-1.297-.305-4.434-.167-25.521l.133-24.046 2.678 1.346c1.484.73 2.722 1.302 2.752 1.267.044-.044-1.973-4.69-4.498-10.321s-4.631-10.154-4.705-10.076c-.108.124-9.162 19.82-9.434 20.506-.049.108 1.174-.464 2.708-1.273l2.781-1.464.168 21.782.167 24.574c.015 3.487-.429 5.183-1.745 6.663-1.361 1.548-2.185 1.884-4.616 1.884-1.988 0-2.141-.03-4.236-.932-4.754-2.062-9.158-5.001-11.008-7.353-2.599-3.319-2.781-6.697-.794-14.77 2.082-8.453 2.673-12.936 2.323-17.507-.518-6.85-3.669-14.05-8.023-18.365l-1.243-1.223v1.134a103.38 103.38 0 0 1-.104 3.487l-.429 13.546c.03.025.562-.754 1.179-1.731 1.864-2.978 3.314-3.698 4.019-2.031.873 2.096.079 6.361-3.916 21.176l-1.967 7.629c-.341 1.849-.124 5.824.394 7.461 1.011 3.151 2.555 5.548 5.262 8.103a32.31 32.31 0 0 0 3.669 2.939c2.461 1.632 6.924 3.802 10.549 5.119l3.728 1.361c2.343.873 4.207 4.024 4.192 7.096 0 .913-.015.947-1.026 1.391-2.002.873-2.431 2.979-.991 5.025.365.558.365.572-.291 1.963-.735 1.588-.981 3.487-.582 4.66.306.962 1.499 2.111 2.737 2.659l1.011.463v4.298h11.313zm-5.124 11.158" vector-effect="non-scaling-stroke"/><path d="M375.761 129.391q0-2.428 0-4.333l.976-.148c1.297-.187 2.446-.858 2.999-1.745.7-1.13.611-3.689-.217-5.933l-.612-1.711.508-1.268c.612-1.499.533-2.431-.276-3.274-.538-.553-1.085-.809-2.372-1.085-.977-.217-1.327-2.599-.626-4.143.764-1.667 3.18-3.407 6.006-4.33 3.807-1.252 9.252-3.866 12.462-5.977 2.57-1.696 6.15-5.276 7.388-7.417 1.617-2.781 2.401-5.715 2.401-9.079 0-3.698-.917-7.491-3.471-14.237-.903-2.387-1.835-5.119-2.067-6.071-.473-1.938-.853-5.789-.853-8.605 0-1.608.059-1.938.409-2.293.232-.227.538-.415.706-.415.335 0 1.943 1.682 3.304 3.472.532.72 1.006 1.268 1.055 1.243.089-.114-.873-18.104-.996-18.217-.138-.148-2.185 2.13-3.546 3.93-2.446 3.24-4.054 6.441-5 9.957-.489 1.805-.533 2.338-.533 5.809 0 4.355.118 5.104 2.12 12.768 1.731 6.574 2.131 8.606 2.141 11.027.015 2.412-.365 4.064-1.42 6.233-1.653 3.364-4.967 6.5-9.05 8.547-2.89 1.44-6.697 2.372-8.546 2.111-2.431-.351-4.177-2.402-4.878-5.736-.276-1.297-.305-4.433-.167-25.521l.133-24.046 2.678 1.347c1.484.729 2.722 1.301 2.752 1.267.044-.044-1.973-4.69-4.498-10.322s-4.631-10.154-4.705-10.075c-.108.123-9.162 19.82-9.434 20.505-.049.109 1.174-.463 2.708-1.272l2.781-1.465.168 21.783.167 24.574c.015 3.486-.429 5.183-1.745 6.662-1.361 1.549-2.185 1.884-4.616 1.884-1.988 0-2.141-.029-4.236-.932-4.754-2.061-9.158-5-11.008-7.353-2.599-3.319-2.781-6.697-.794-14.77 2.082-8.452 2.673-12.935 2.323-17.507-.518-6.85-3.669-14.05-8.023-18.365l-1.243-1.223v1.135c0 .611-.045 2.184-.104 3.486l-.429 13.547c.03.025.562-.754 1.179-1.731 1.864-2.979 3.314-3.699 4.019-2.032.873 2.096.079 6.362-3.916 21.176l-1.967 7.629c-.341 1.85-.124 5.825.394 7.462 1.011 3.151 2.555 5.548 5.262 8.102a32.43 32.43 0 0 0 3.669 2.94c2.461 1.632 6.924 3.802 10.549 5.118l3.728 1.362c2.343.872 4.207 4.024 4.192 7.096 0 .912-.015.947-1.026 1.391-2.002.873-2.431 2.978-.991 5.025.365.557.365.572-.291 1.963-.735 1.588-.981 3.486-.582 4.66.306.962 1.499 2.111 2.737 2.658l1.011.464v4.298h11.313zm-5.124 11.157" vector-effect="non-scaling-stroke"/></g><path d="M287.125 91.601V76.327l-37.125-18-37.125 18v15.275l37.125-18z" fill="url(#F)"/><path d="M287.125 70.601V55.327l-37.125-18-37.125 18v15.275l37.125-18z" fill="url(#E)"/><path d="M287.125 112.601V97.327l-37.125-18-37.125 18v15.275l37.125-18z" fill="url(#G)"/></svg>