<svg xmlns="http://www.w3.org/2000/svg" viewBox="0 0 129.53 17.47"><defs><style>.cls-1{fill:#f90;}.cls-2{font-size:12px;font-family:Semplicita-Medium, Semplicità;font-weight:500;}.cls-2,.cls-4{fill:#019aed;}.cls-3{letter-spacing:-0.02em;}</style></defs><g id="Layer_2" data-name="Layer 2"><g id="development"><path class="cls-1" d="M7.05,2.44a6.3,6.3,0,1,1-6.3,6.3,6.3,6.3,0,0,1,6.3-6.3m0-.75a7,7,0,1,0,7,7.05,7.05,7.05,0,0,0-7-7Z"/><text class="cls-2" transform="translate(25 12.64)">MINIST<tspan class="cls-3" x="35" y="0">R</tspan><tspan x="40.68" y="0">Y OF MEDIA</tspan></text><rect class="cls-1" x="19.04" width="0.75" height="17.47"/><path class="cls-4" d="M13.34,8.74A6.3,6.3,0,1,0,6.61,15a3.17,3.17,0,0,0,.44,0,3.24,3.24,0,0,0,.44,0A6.3,6.3,0,0,0,13.34,8.74Zm-11.21,0a4.92,4.92,0,1,1,9.83,0,4.82,4.82,0,0,1-.58,2.3c0-.12,0-.24,0-.36A4.35,4.35,0,0,0,4,7.6a4.3,4.3,0,0,0-1.28,3.08c0,.12,0,.24,0,.36A4.82,4.82,0,0,1,2.13,8.74Zm5,4a1.44,1.44,0,0,1,1-2.45,1.44,1.44,0,1,1-1,2.45Zm-1-3a2.81,2.81,0,0,0-.31,3.62,3,3,0,0,1-.89-4.81,3,3,0,0,1,4.21,0,3.09,3.09,0,0,1,.61.88A2.83,2.83,0,0,0,6.14,9.77Z"/></g></g></svg>