<svg xmlns="http://www.w3.org/2000/svg" xmlns:xlink="http://www.w3.org/1999/xlink" viewBox="0 0 129.53 17.47" xmlns:v="https://vecta.io/nano"><path d="M7.05 2.44a6.3 6.3 0 1 1-6.3 6.3 6.3 6.3 0 0 1 6.3-6.3m0-.75a7 7 0 1 0 7 7.05 7.05 7.05 0 0 0-7-7z" fill="#f90"/><g fill="#019aed"><path d="M26.884 3.88l-1.428 7.356-.288 1.404h1.152l.204-1.188.6-3.276.156-1.116.048-.012c.036.156.24.732.432 1.164l2.076 4.716 2.088-4.68c.192-.432.408-1.008.444-1.164l.048.012c-.012.12.024.672.108 1.14l.612 3.204.204 1.2h1.152l-.276-1.416L32.74 3.88l-2.388 5.388c-.252.576-.468 1.2-.48 1.332h-.048c-.012-.12-.168-.672-.468-1.332z"/><use xlink:href="#B"/><path d="M45.544 12.976V5.68l.012-1.44h-1.164l.012 1.44v3.84c0 .456.06.768.084.888l-.036.024c-.24-.336-.612-.708-.96-1.068l-5.4-5.46V11.2l-.012 1.44h1.164l-.012-1.44V7.36c0-.456-.06-.768-.084-.888l.036-.024c.24.336.612.708.96 1.068z"/><use xlink:href="#B" x="11.461"/><path d="M49.097 11.2c.432.78 1.284 1.584 2.616 1.584 1.548 0 2.52-.948 2.52-2.304 0-1.344-1.02-2.1-1.956-2.748-.792-.552-1.5-.984-1.5-1.716 0-.492.348-.912 1.008-.912s1.092.432 1.392.84l.876-.66c-.468-.564-1.152-1.188-2.268-1.188-1.272 0-2.136.828-2.136 1.968 0 1.224 1.02 1.908 1.956 2.568.768.54 1.488 1.068 1.488 1.944 0 .66-.516 1.176-1.38 1.176-.78 0-1.332-.54-1.644-1.08zM59.82 4.228l-1.44.012h-2.124c-.42 0-1.212-.012-1.44-.012v1.08l1.44-.012h.492V11.2l-.012 1.44H57.9l-.012-1.44V5.296h.492l1.44.012zm4.644 8.412h1.248l-.624-1.296L64.032 9.1c-.072-.156-.144-.264-.204-.324l.012-.024c.948-.228 1.584-1.128 1.584-2.184 0-1.284-.924-2.328-2.328-2.328H60.6v6.96l-.012 1.44h1.164l-.012-1.44V8.896h.984l1.26 2.676.48 1.068zm-1.512-7.416c.852 0 1.332.6 1.332 1.332s-.48 1.332-1.332 1.332H61.74V5.224zm5.788 7.416h1.164l-.012-1.44V8.956l1.836-3.24.852-1.476h-1.272l-.504.912-1.092 1.932c-.204.372-.396.756-.396.828h-.048c0-.072-.168-.456-.384-.828l-1.128-1.92-.528-.924h-1.296l.912 1.5 1.908 3.252V11.2l-.012 1.44zM81.358 4c-2.448 0-4.44 1.992-4.44 4.44s1.992 4.44 4.44 4.44 4.44-1.992 4.44-4.44S83.806 4 81.358 4zm0 1.056c1.824 0 3.3 1.512 3.3 3.384s-1.476 3.384-3.3 3.384-3.3-1.512-3.3-3.384 1.476-3.384 3.3-3.384zm5.524 6.144l-.012 1.44h1.164l-.012-1.44V8.56h.924l1.44.012v-1.08l-1.44.012h-.924V5.272h1.548l1.44.012V4.228l-1.44.012h-2.688zm10.002-7.32l-1.428 7.356-.288 1.404h1.152l.204-1.188.6-3.276.156-1.116.048-.012c.036.156.24.732.432 1.164l2.076 4.716 2.088-4.68c.192-.432.408-1.008.444-1.164l.048.012c-.012.12.024.672.108 1.14l.612 3.204.204 1.2h1.152l-.276-1.416-1.476-7.344-2.388 5.388c-.252.576-.468 1.2-.48 1.332h-.048c-.012-.12-.168-.672-.468-1.332zm8.396 8.76h3.024l1.44.012v-1.128l-1.44.012h-1.884V8.584h1.056l1.44.012V7.492l-1.44.012h-1.056V5.296h1.644l1.44.012v-1.08l-1.44.012h-2.784zm5.602 0h2.58c2.256 0 4.08-1.884 4.08-4.2s-1.932-4.2-4.32-4.2h-2.34zm2.136-7.368c1.872 0 3.384 1.416 3.384 3.168 0 1.74-1.404 3.144-3.132 3.144h-1.248V5.272z"/><use xlink:href="#B" x="83.336"/><path d="M127.572 11.8l.372.84h1.236l-.6-1.308-3.444-7.548-3.348 7.548-.6 1.308h1.236l.372-.84.144-.336h4.476zm-3.792-1.392c-.216 0-.396.048-.42.072l-.024-.048c.024-.012.12-.12.204-.312l1.296-2.916c.228-.516.288-.84.288-.9h.048c0 .06.06.384.3.9l1.332 2.916c.108.24.168.3.192.312l-.024.048c-.036-.024-.192-.072-.42-.072z"/></g><path d="M19.04 0h.75v17.47h-.75z" fill="#f90"/><path d="M13.34 8.74A6.3 6.3 0 1 0 6.61 15a3.17 3.17 0 0 0 .44 0 3.24 3.24 0 0 0 .44 0 6.3 6.3 0 0 0 5.85-6.26zm-11.21 0a4.92 4.92 0 1 1 9.83 0 4.82 4.82 0 0 1-.58 2.3v-.36A4.35 4.35 0 0 0 4 7.6a4.3 4.3 0 0 0-1.28 3.08v.36a4.82 4.82 0 0 1-.59-2.3zm5 4a1.44 1.44 0 0 1 1-2.45 1.44 1.44 0 1 1-1 2.45zm-1-3a2.81 2.81 0 0 0-.31 3.62 3 3 0 0 1-.89-4.81 3 3 0 0 1 4.21 0 3.09 3.09 0 0 1 .61.88 2.83 2.83 0 0 0-3.61.34z" fill="#019aed"/><defs ><path id="B" d="M35.508 4.24l.012 1.44v5.52l-.012 1.44h1.164l-.012-1.44V5.68l.012-1.44z"/></defs></svg>