<?xml version="1.0" encoding="UTF-8" standalone="no"?>
<svg
   viewBox="0 0 129.53 17.47"
   version="1.1"
   id="svg950"
   sodipodi:docname="media-line-color.svg"
   inkscape:version="1.1 (c4e8f9e, 2021-05-24)"
   xmlns:inkscape="http://www.inkscape.org/namespaces/inkscape"
   xmlns:sodipodi="http://sodipodi.sourceforge.net/DTD/sodipodi-0.dtd"
   xmlns="http://www.w3.org/2000/svg"
   xmlns:svg="http://www.w3.org/2000/svg">
  <sodipodi:namedview
     id="namedview952"
     pagecolor="#ffffff"
     bordercolor="#111111"
     borderopacity="1"
     inkscape:pageshadow="0"
     inkscape:pageopacity="0"
     inkscape:pagecheckerboard="1"
     showgrid="false"
     inkscape:zoom="8.8396511"
     inkscape:cx="30.940135"
     inkscape:cy="10.068271"
     inkscape:current-layer="development" />
  <defs
     id="defs934">
    <style
       id="style932">.cls-1{fill:#f90;}.cls-2{font-size:12px;font-family:Semplicita-Medium, Semplicità;font-weight:500;}.cls-2,.cls-4{fill:#019aed;}.cls-3{letter-spacing:-0.02em;}</style>
  </defs>
  <g
     id="Layer_2"
     data-name="Layer 2">
    <g
       id="development">
      <path
         class="cls-1"
         d="m 7.05,2.44 a 6.3,6.3 0 1 1 -6.3,6.3 6.3,6.3 0 0 1 6.3,-6.3 m 0,-0.75 a 7,7 0 1 0 7,7.05 7.05,7.05 0 0 0 -7,-7 z"
         id="path936" />
      <g
         aria-label="MINISTRY OF MEDIA"
         transform="translate(25,12.64)"
         id="text942"
         class="cls-2"
         style="font-weight:500;font-size:12px;font-family:Semplicita-Medium, Semplicità;fill:#019aed">
        <path
           d="M 1.884,-8.76 0.456,-1.404 C 0.384,-1.008 0.168,0 0.168,0 H 1.32 c 0,0 0.132,-0.768 0.204,-1.188 l 0.6,-3.276 C 2.208,-4.932 2.292,-5.46 2.28,-5.58 l 0.048,-0.012 c 0.036,0.156 0.24,0.732 0.432,1.164 l 2.076,4.716 2.088,-4.68 C 7.116,-4.824 7.332,-5.4 7.368,-5.556 l 0.048,0.012 c -0.012,0.12 0.024,0.672 0.108,1.14 L 8.136,-1.2 C 8.208,-0.804 8.268,-0.396 8.34,0 h 1.152 c 0,0 -0.168,-0.876 -0.276,-1.416 L 7.74,-8.76 5.352,-3.372 C 5.1,-2.796 4.884,-2.172 4.872,-2.04 H 4.824 C 4.812,-2.16 4.656,-2.712 4.356,-3.372 Z"
           style="font-weight:500;font-size:12px;font-family:Semplicita-Medium, Semplicità;fill:#019aed"
           id="path2183" />
        <path
           d="m 10.507687,-8.4 c 0,0.228 0.012,1.02 0.012,1.44 v 5.52 c 0,0.42 -0.012,1.212 -0.012,1.44 h 1.164001 c 0,-0.228 -0.012,-1.02 -0.012,-1.44 v -5.52 c 0,-0.42 0.012,-1.212 0.012,-1.44 z"
           style="font-weight:500;font-size:12px;font-family:Semplicita-Medium, Semplicità;fill:#019aed"
           id="path2185" />
        <path
           d="M 20.544187,0.336 V -6.96 c 0,-0.42 0.012,-1.212 0.012,-1.44 h -1.164 c 0,0.228 0.012,1.02 0.012,1.44 v 3.84 c 0,0.456 0.06,0.768 0.084,0.888 l -0.036,0.024 c -0.24,-0.336 -0.612,-0.708 -0.96,-1.068 l -5.399999,-5.46 v 7.296 c 0,0.42 -0.012,1.212 -0.012,1.44 h 1.163999 c 0,-0.228 -0.012,-1.02 -0.012,-1.44 v -3.84 c 0,-0.456 -0.06,-0.768 -0.084,-0.888 l 0.036,-0.024 c 0.24,0.336 0.612,0.708 0.96,1.068 z"
           style="font-weight:500;font-size:12px;font-family:Semplicita-Medium, Semplicità;fill:#019aed"
           id="path2187" />
        <path
           d="m 21.968625,-8.4 c 0,0.228 0.012,1.02 0.012,1.44 v 5.52 c 0,0.42 -0.012,1.212 -0.012,1.44 h 1.164 c 0,-0.228 -0.012,-1.02 -0.012,-1.44 v -5.52 c 0,-0.42 0.012,-1.212 0.012,-1.44 z"
           style="font-weight:500;font-size:12px;font-family:Semplicita-Medium, Semplicità;fill:#019aed"
           id="path2189" />
        <path
           d="m 24.097125,-1.44 c 0.432,0.78 1.284,1.584 2.616,1.584 1.548,0 2.52,-0.948 2.52,-2.304 0,-1.344 -1.02,-2.1 -1.956,-2.748 -0.792,-0.552 -1.5,-0.984 -1.5,-1.716 0,-0.492 0.348,-0.912 1.008,-0.912 0.66,0 1.092,0.432 1.392,0.84 l 0.876,-0.66 c -0.468,-0.564 -1.152,-1.188 -2.268,-1.188 -1.272,0 -2.136,0.828 -2.136,1.968 0,1.224 1.02,1.908 1.956,2.568 0.768,0.54 1.488,1.068 1.488,1.944 0,0.66 -0.516,1.176 -1.38,1.176 -0.78,0 -1.332,-0.54 -1.644,-1.08 z"
           style="font-weight:500;font-size:12px;font-family:Semplicita-Medium, Semplicità;fill:#019aed"
           id="path2191" />
        <path
           d="m 34.820437,-8.412 c -0.227999,0 -1.02,0.012 -1.44,0.012 h -2.124 c -0.42,0 -1.212,-0.012 -1.44,-0.012 v 1.08 c 0.228,0 1.02,-0.012 1.44,-0.012 h 0.492001 v 5.904 c 0,0.42 -0.012,1.212 -0.012,1.44 h 1.164001 c 0,-0.228 -0.012,-1.02 -0.012,-1.44 v -5.904 h 0.491999 c 0.42,0 1.212001,0.012 1.44,0.012 z"
           style="font-weight:500;font-size:12px;font-family:Semplicita-Medium, Semplicità;fill:#019aed"
           id="path2193" />
        <path
           d="m 39.464,0 h 1.248 c 0,0 -0.396,-0.804 -0.624,-1.296 L 39.032,-3.54 C 38.96,-3.696 38.888,-3.804 38.828,-3.864 l 0.012,-0.024 c 0.948,-0.228 1.584,-1.128 1.584,-2.184 0,-1.284 -0.924,-2.328 -2.328,-2.328 H 35.6 v 6.96 c 0,0.42 -0.012,1.212 -0.012,1.44 h 1.164 c 0,-0.228 -0.012,-1.02 -0.012,-1.44 v -2.304 h 0.984 l 1.26,2.676 c 0.192,0.396 0.36,0.804 0.48,1.068 z m -1.512,-7.416 c 0.852,0 1.332,0.6 1.332,1.332 0,0.732 -0.48,1.332 -1.332,1.332 H 36.74 v -2.664 z"
           style="letter-spacing:-0.02em"
           id="path2195" />
        <path
           d="m 43.74,0 h 1.164 c 0,-0.228 -0.012,-1.02 -0.012,-1.44 v -2.244 l 1.836,-3.24 C 47.016,-7.428 47.292,-7.92 47.58,-8.4 h -1.272 c -0.168,0.3 -0.324,0.6 -0.504,0.912 l -1.092,1.932 c -0.204,0.372 -0.396,0.756 -0.396,0.828 h -0.048 c 0,-0.072 -0.168,-0.456 -0.384,-0.828 l -1.128,-1.92 C 42.564,-7.8 42.408,-8.088 42.228,-8.4 h -1.296 c 0.108,0.192 0.696,1.14 0.912,1.5 l 1.908,3.252 v 2.208 c 0,0.42 -0.012,1.212 -0.012,1.44 z"
           id="path2197" />
        <path
           d="m 56.357813,-8.64 c -2.448,0 -4.44,1.992 -4.44,4.44 0,2.448 1.992,4.44 4.44,4.44 2.448,0 4.44,-1.992 4.44,-4.44 0,-2.448 -1.992,-4.44 -4.44,-4.44 z m 0,1.056 c 1.824,0 3.3,1.512 3.3,3.384 0,1.872 -1.476,3.384 -3.3,3.384 -1.824,0 -3.3,-1.512 -3.3,-3.384 0,-1.872 1.476,-3.384 3.3,-3.384 z"
           id="path2199" />
        <path
           d="m 61.881563,-1.44 c 0,0.42 -0.012,1.212 -0.012,1.44 h 1.164 c 0,-0.228 -0.012,-1.02 -0.012,-1.44 v -2.64 h 0.924 c 0.42,0 1.212,0.012 1.44,0.012 v -1.08 c -0.228,0 -1.02,0.012 -1.44,0.012 h -0.924 v -2.232 h 1.548 c 0.42,0 1.212,0.012 1.44,0.012 v -1.056 c -0.228,0 -1.02,0.012 -1.44,0.012 h -2.688 z"
           id="path2201" />
        <path
           d="m 71.884313,-8.76 -1.428,7.356 c -0.072,0.396 -0.288,1.404 -0.288,1.404 h 1.152 c 0,0 0.132,-0.768 0.204,-1.188 l 0.6,-3.276 c 0.084,-0.468 0.168,-0.996 0.156,-1.116 l 0.048,-0.012 c 0.036,0.156 0.24,0.732 0.432,1.164 l 2.076,4.716 2.088,-4.68 c 0.192,-0.432 0.408,-1.008 0.444,-1.164 l 0.048,0.012 c -0.012,0.12 0.024,0.672 0.108,1.14 l 0.612,3.204 c 0.072,0.396 0.132,0.804 0.204,1.2 h 1.152 c 0,0 -0.168,-0.876 -0.276,-1.416 l -1.476,-7.344 -2.388,5.388 c -0.252,0.576 -0.468,1.2 -0.48,1.332 h -0.048 c -0.012,-0.12 -0.168,-0.672 -0.468,-1.332 z"
           id="path2203" />
        <path
           d="m 80.28,0 h 3.024 c 0.42,0 1.212,0.012 1.44,0.012 v -1.128 c -0.228,0 -1.02,0.012 -1.44,0.012 H 81.42 v -2.952 h 1.056 c 0.42,0 1.212,0.012 1.44,0.012 v -1.104 c -0.228,0 -1.02,0.012 -1.44,0.012 H 81.42 v -2.208 h 1.644 c 0.42,0 1.212,0.012 1.44,0.012 v -1.08 c -0.228,0 -1.02,0.012 -1.44,0.012 H 80.28 Z"
           id="path2205" />
        <path
           d="m 85.881563,0 h 2.58 c 2.256,0 4.08,-1.884 4.08,-4.2 0,-2.316 -1.932,-4.2 -4.32,-4.2 h -2.34 z m 2.136,-7.368 c 1.872,0 3.384,1.416 3.384,3.168 0,1.74 -1.404,3.144 -3.132,3.144 h -1.248 v -6.312 z"
           id="path2207" />
        <path
           d="m 93.843938,-8.4 c 0,0.228 0.012,1.02 0.012,1.44 v 5.52 c 0,0.42 -0.012,1.212 -0.012,1.44 h 1.164 c 0,-0.228 -0.012,-1.02 -0.012,-1.44 v -5.52 c 0,-0.42 0.012,-1.212 0.012,-1.44 z"
           id="path2209" />
        <path
           d="m 102.57244,-0.84 c 0.108,0.228 0.252,0.552 0.372,0.84 h 1.236 c -0.084,-0.204 -0.432,-0.924 -0.6,-1.308 l -3.444,-7.548 -3.348002,7.548 c -0.168,0.384 -0.504,1.104 -0.6,1.308 h 1.236 c 0.12,-0.288 0.264,-0.612 0.372,-0.84 l 0.144,-0.336 h 4.476002 z m -3.792002,-1.392 c -0.216,0 -0.396,0.048 -0.42,0.072 l -0.024,-0.048 c 0.024,-0.012 0.12,-0.12 0.204,-0.312 l 1.296,-2.916 c 0.228002,-0.516 0.288002,-0.84 0.288002,-0.9 h 0.048 c 0,0.06 0.06,0.384 0.3,0.9 l 1.332,2.916 c 0.108,0.24 0.168,0.3 0.192,0.312 l -0.024,0.048 c -0.036,-0.024 -0.192,-0.072 -0.42,-0.072 z"
           id="path2211" />
      </g>
      <rect
         class="cls-1"
         x="19.040001"
         width="0.75"
         height="17.469999"
         id="rect944"
         y="0" />
      <path
         class="cls-4"
         d="M 13.34,8.74 A 6.3,6.3 0 1 0 6.61,15 a 3.17,3.17 0 0 0 0.44,0 3.24,3.24 0 0 0 0.44,0 6.3,6.3 0 0 0 5.85,-6.26 z m -11.21,0 a 4.92,4.92 0 1 1 9.83,0 4.82,4.82 0 0 1 -0.58,2.3 c 0,-0.12 0,-0.24 0,-0.36 A 4.35,4.35 0 0 0 4,7.6 4.3,4.3 0 0 0 2.72,10.68 c 0,0.12 0,0.24 0,0.36 A 4.82,4.82 0 0 1 2.13,8.74 Z m 5,4 a 1.44,1.44 0 0 1 1,-2.45 1.44,1.44 0 1 1 -1,2.45 z m -1,-3 a 2.81,2.81 0 0 0 -0.31,3.62 3,3 0 0 1 -0.89,-4.81 3,3 0 0 1 4.21,0 3.09,3.09 0 0 1 0.61,0.88 2.83,2.83 0 0 0 -3.61,0.34 z"
         id="path946" />
    </g>
  </g>
</svg>
