<?xml version="1.0" encoding="UTF-8" standalone="no"?>
<svg
   viewBox="0 0 173.15 17.47"
   version="1.1"
   id="svg848"
   sodipodi:docname="owl-line-color.svg"
   inkscape:version="1.1 (c4e8f9e, 2021-05-24)"
   xmlns:inkscape="http://www.inkscape.org/namespaces/inkscape"
   xmlns:sodipodi="http://sodipodi.sourceforge.net/DTD/sodipodi-0.dtd"
   xmlns="http://www.w3.org/2000/svg"
   xmlns:svg="http://www.w3.org/2000/svg">
  <sodipodi:namedview
     id="namedview850"
     pagecolor="#ffffff"
     bordercolor="#111111"
     borderopacity="1"
     inkscape:pageshadow="0"
     inkscape:pageopacity="0"
     inkscape:pagecheckerboard="1"
     showgrid="false"
     inkscape:zoom="6.7051689"
     inkscape:cx="41.982537"
     inkscape:cy="10.588846"
     inkscape:current-layer="development" />
  <defs
     id="defs824">
    <style
       id="style822">.cls-1{fill:#f90;}.cls-2{font-size:12px;font-family:Semplicita-Medium, Semplicità;font-weight:500;}.cls-2,.cls-6{fill:#019aed;}.cls-3{letter-spacing:-0.17em;}.cls-4{letter-spacing:-0.09em;}.cls-5{letter-spacing:-0.02em;}</style>
  </defs>
  <g
     id="Layer_2"
     data-name="Layer 2">
    <g
       id="development">
      <path
         class="cls-1"
         d="m 7.05,2.44 a 6.3,6.3 0 1 1 -6.3,6.3 6.3,6.3 0 0 1 6.3,-6.3 m 0,-0.75 a 7,7 0 1 0 7,7.05 7.05,7.05 0 0 0 -7,-7 z"
         id="path826" />
      <g
         aria-label="OFFICE OF WA LEGISLATION"
         transform="translate(25,12.64)"
         id="text840"
         class="cls-2"
         style="font-weight:500;font-size:12px;font-family:Semplicita-Medium, Semplicità;fill:#019aed">
        <path
           d="m 4.92,-8.64 c -2.448,0 -4.44,1.992 -4.44,4.44 0,2.448 1.992,4.44 4.44,4.44 2.448,0 4.44,-1.992 4.44,-4.44 0,-2.448 -1.992,-4.44 -4.44,-4.44 z m 0,1.056 c 1.824,0 3.3,1.512 3.3,3.384 0,1.872 -1.476,3.384 -3.3,3.384 -1.824,0 -3.3,-1.512 -3.3,-3.384 0,-1.872 1.476,-3.384 3.3,-3.384 z"
           style="font-weight:500;font-size:12px;font-family:Semplicita-Medium, Semplicità;fill:#019aed"
           id="path2257" />
        <path
           d="m 10.44375,-1.44 c 0,0.42 -0.012,1.212 -0.012,1.44 h 1.164 c 0,-0.228 -0.012,-1.02 -0.012,-1.44 v -2.64 h 0.924 c 0.42,0 1.212,0.012 1.44,0.012 v -1.08 c -0.228,0 -1.02,0.012 -1.44,0.012 h -0.924 v -2.232 h 1.548 c 0.42,0 1.212,0.012 1.44,0.012 v -1.056 c -0.228,0 -1.02,0.012 -1.44,0.012 h -2.688 z"
           style="font-weight:500;font-size:12px;font-family:Semplicita-Medium, Semplicità;fill:#019aed"
           id="path2259" />
        <path
           d="m 15.553125,-1.44 c 0,0.42 -0.012,1.212 -0.012,1.44 h 1.164 c 0,-0.228 -0.012,-1.02 -0.012,-1.44 v -2.64 h 0.924 c 0.42,0 1.212,0.012 1.44,0.012 v -1.08 c -0.228,0 -1.02,0.012 -1.44,0.012 h -0.924 v -2.232 h 1.548 c 0.42,0 1.212,0.012 1.44,0.012 v -1.056 c -0.228,0 -1.02,0.012 -1.44,0.012 h -2.688 z"
           style="font-weight:500;font-size:12px;font-family:Semplicita-Medium, Semplicità;fill:#019aed"
           id="path2261" />
        <path
           d="m 20.8905,-8.4 c 0,0.228 0.012,1.02 0.012,1.44 v 5.52 c 0,0.42 -0.012,1.212 -0.012,1.44 h 1.164 c 0,-0.228 -0.012,-1.02 -0.012,-1.44 v -5.52 c 0,-0.42 0.012,-1.212 0.012,-1.44 z"
           style="font-weight:500;font-size:12px;font-family:Semplicita-Medium, Semplicità;fill:#019aed"
           id="path2263" />
        <path
           d="m 30.471,-1.98 c -0.648,0.708 -1.608,1.164 -2.676,1.164 -1.824,0 -3.3,-1.512 -3.3,-3.384 0,-1.872 1.476,-3.384 3.3,-3.384 1.008,0 1.92,0.468 2.52,1.2 l 0.816,-0.744 c -0.816,-0.924 -2.004,-1.512 -3.336,-1.512 -2.448,0 -4.44,1.992 -4.44,4.44 0,2.448 1.992,4.44 4.44,4.44 1.368,0 2.592,-0.552 3.444,-1.44 z"
           style="font-weight:500;font-size:12px;font-family:Semplicita-Medium, Semplicità;fill:#019aed"
           id="path2265" />
        <path
           d="m 32.19375,0 h 3.024 c 0.42,0 1.212,0.012 1.44,0.012 v -1.128 c -0.228,0 -1.02,0.012 -1.44,0.012 h -1.884 v -2.952 h 1.056 c 0.42,0 1.212,0.012 1.44,0.012 v -1.104 c -0.228,0 -1.02,0.012 -1.44,0.012 h -1.056 v -2.208 h 1.644 c 0.42,0 1.212,0.012 1.44,0.012 v -1.08 c -0.228,0 -1.02,0.012 -1.44,0.012 h -2.784 z"
           style="font-weight:500;font-size:12px;font-family:Semplicita-Medium, Semplicità;fill:#019aed"
           id="path2267" />
        <path
           d="m 45.724688,-8.64 c -2.448,0 -4.440001,1.992 -4.440001,4.44 0,2.448 1.992001,4.44 4.440001,4.44 2.448,0 4.439999,-1.992 4.439999,-4.44 0,-2.448 -1.991999,-4.44 -4.439999,-4.44 z m 0,1.056 c 1.823999,0 3.299999,1.512 3.299999,3.384 0,1.872 -1.476,3.384 -3.299999,3.384 -1.824,0 -3.300001,-1.512 -3.300001,-3.384 0,-1.872 1.476001,-3.384 3.300001,-3.384 z"
           style="font-weight:500;font-size:12px;font-family:Semplicita-Medium, Semplicità;fill:#019aed"
           id="path2269" />
        <path
           d="m 51.248438,-1.44 c 0,0.42 -0.012,1.212 -0.012,1.44 h 1.164001 c 0,-0.228 -0.012,-1.02 -0.012,-1.44 v -2.64 h 0.924 c 0.42,0 1.211999,0.012 1.439999,0.012 v -1.08 c -0.228,0 -1.019999,0.012 -1.439999,0.012 h -0.924 v -2.232 h 1.547999 c 0.42,0 1.212,0.012 1.440001,0.012 v -1.056 c -0.228001,0 -1.020001,0.012 -1.440001,0.012 h -2.687999 z"
           style="font-weight:500;font-size:12px;font-family:Semplicita-Medium, Semplicità;fill:#019aed"
           id="path2271" />
        <path
           d="m 65.298001,-5.952 h 0.024 c 0.012,0.132 0.192,0.756 0.36,1.2 l 1.944,5.112 2.928,-7.224 c 0.156,-0.396 0.552,-1.32 0.636,-1.536 h -1.176 c -0.156,0.372 -0.288,0.756 -0.456,1.152 l -1.524,3.744 c -0.156,0.396 -0.348,1.08 -0.36,1.2 h -0.048 c -0.012,-0.144 -0.156,-0.672 -0.36,-1.2 l -1.956,-5.136 -1.98,5.136 c -0.204,0.528 -0.324,1.056 -0.336,1.2 h -0.048 c -0.012,-0.12 -0.168,-0.804 -0.324,-1.2 l -1.512,-3.744 c -0.168,-0.396 -0.3,-0.78 -0.456,-1.152 h -1.224 c 0.084,0.216 0.48,1.14 0.636,1.536 l 2.928,7.224 1.944,-5.112 c 0.168,-0.444 0.348,-1.068 0.36,-1.2 z"
           style="letter-spacing:-0.17em"
           id="path2273" />
        <path
           d="m 76.053998,-0.84 c 0.108,0.228 0.252,0.552 0.372,0.84 h 1.236 c -0.084,-0.204 -0.432,-0.924 -0.6,-1.308 l -3.444,-7.548 -3.348,7.548 c -0.168,0.384 -0.504,1.104 -0.6,1.308 h 1.236 c 0.12,-0.288 0.264,-0.612 0.372,-0.84 l 0.144,-0.336 h 4.476 z m -3.792,-1.392 c -0.216,0 -0.396,0.048 -0.42,0.072 l -0.024,-0.048 c 0.024,-0.012 0.12,-0.12 0.204,-0.312 l 1.296,-2.916 c 0.228,-0.516 0.288,-0.84 0.288,-0.9 h 0.048 c 0,0.06 0.06,0.384 0.3,0.9 l 1.332,2.916 c 0.108,0.24 0.168,0.3 0.192,0.312 l -0.024,0.048 c -0.036,-0.024 -0.192,-0.072 -0.42,-0.072 z"
           id="path2275" />
        <path
           d="m 82.238123,0 h 2.292 c 0.42,0 1.212,0.012 1.44,0.012 v -1.08 c -0.228,0 -1.02,0.012 -1.44,0.012 h -1.152 V -6.96 c 0,-0.42 0.012,-1.212 0.012,-1.44 h -1.164 c 0,0.228 0.012,1.02 0.012,1.44 z"
           id="path2277" />
        <path
           d="m 86.808435,0 h 3.024 c 0.42,0 1.212,0.012 1.44,0.012 v -1.128 c -0.228,0 -1.02,0.012 -1.44,0.012 h -1.884 v -2.952 h 1.056 c 0.42,0 1.212,0.012 1.44,0.012 v -1.104 c -0.228,0 -1.02,0.012 -1.44,0.012 h -1.056 v -2.208 h 1.644 c 0.42,0 1.212,0.012 1.44,0.012 v -1.08 c -0.228,0 -1.02,0.012 -1.44,0.012 h -2.784 z"
           id="path2279" />
        <path
           d="m 99.081998,-2.664 c 0.204,0 0.336,-0.048 0.372,-0.072 l 0.036,0.048 c -0.036,0.024 -0.144,0.144 -0.228,0.36 -0.348,0.852 -1.404,1.512 -2.532,1.512 -1.824,0 -3.3,-1.512 -3.3,-3.384 0,-1.872 1.476,-3.384 3.3,-3.384 1.056,0 2.004,0.552 2.58,1.404 L 100.15,-6.912 c -0.792002,-1.056 -2.028002,-1.728 -3.420002,-1.728 -2.448,0 -4.44,1.992 -4.44,4.44 0,2.448 1.992,4.44 4.44,4.44 2.136,0 3.864002,-1.596 3.864002,-3.552 0,-0.144 -0.012,-0.276 -0.024,-0.408 h -2.532002 c -0.42,0 -1.212,-0.012 -1.44,-0.012 v 1.08 c 0.228,0 1.02,-0.012 1.44,-0.012 z"
           id="path2281" />
        <path
           d="m 101.84894,-8.4 c 0,0.228 0.012,1.02 0.012,1.44 v 5.52 c 0,0.42 -0.012,1.212 -0.012,1.44 h 1.164 c 0,-0.228 -0.012,-1.02 -0.012,-1.44 v -5.52 c 0,-0.42 0.012,-1.212 0.012,-1.44 z"
           id="path2283" />
        <path
           d="m 103.97744,-1.44 c 0.432,0.78 1.284,1.584 2.616,1.584 1.548,0 2.52,-0.948 2.52,-2.304 0,-1.344 -1.02,-2.1 -1.956,-2.748 -0.792,-0.552 -1.5,-0.984 -1.5,-1.716 0,-0.492 0.348,-0.912 1.008,-0.912 0.66,0 1.092,0.432 1.392,0.84 l 0.876,-0.66 c -0.468,-0.564 -1.152,-1.188 -2.268,-1.188 -1.272,0 -2.136,0.828 -2.136,1.968 0,1.224 1.02,1.908 1.956,2.568 0.768,0.54 1.488,1.068 1.488,1.944 0,0.66 -0.516,1.176 -1.38,1.176 -0.78,0 -1.332,-0.54 -1.644,-1.08 z"
           id="path2285" />
        <path
           d="m 110.12875,0 h 2.292 c 0.42,0 1.212,0.012 1.44,0.012 v -1.08 c -0.228,0 -1.02,0.012 -1.44,0.012 h -1.152 V -6.96 c 0,-0.42 0.012,-1.212 0.012,-1.44 h -1.164 c 0,0.228 0.012,1.02 0.012,1.44 z"
           id="path2287" />
        <path
           d="m 120.824,-0.84 c 0.108,0.228 0.252,0.552 0.372,0.84 h 1.236 c -0.084,-0.204 -0.432,-0.924 -0.6,-1.308 l -3.444,-7.548 -3.348,7.548 c -0.168,0.384 -0.504,1.104 -0.6,1.308 h 1.236 c 0.12,-0.288 0.264,-0.612 0.372,-0.84 l 0.144,-0.336 h 4.476 z m -3.792,-1.392 c -0.216,0 -0.396,0.048 -0.42,0.072 l -0.024,-0.048 c 0.024,-0.012 0.12,-0.12 0.204,-0.312 l 1.296,-2.916 c 0.228,-0.516 0.288,-0.84 0.288,-0.9 h 0.048 c 0,0.06 0.06,0.384 0.3,0.9 l 1.332,2.916 c 0.108,0.24 0.168,0.3 0.192,0.312 l -0.024,0.048 c -0.036,-0.024 -0.192,-0.072 -0.42,-0.072 z"
           style="letter-spacing:-0.09em"
           id="path2289" />
        <path
           d="m 126.942,-8.412 c -0.228,0 -1.02,0.012 -1.44,0.012 h -2.124 c -0.42,0 -1.212,-0.012 -1.44,-0.012 v 1.08 c 0.228,0 1.02,-0.012 1.44,-0.012 h 0.492 v 5.904 c 0,0.42 -0.012,1.212 -0.012,1.44 h 1.164 c 0,-0.228 -0.012,-1.02 -0.012,-1.44 v -5.904 h 0.492 c 0.42,0 1.212,0.012 1.44,0.012 z"
           id="path2291" />
        <path
           d="m 127.938,-8.4 c 0,0.228 0.012,1.02 0.012,1.44 v 5.52 c 0,0.42 -0.012,1.212 -0.012,1.44 h 1.164 c 0,-0.228 -0.012,-1.02 -0.012,-1.44 v -5.52 c 0,-0.42 0.012,-1.212 0.012,-1.44 z"
           style="letter-spacing:-0.02em"
           id="path2293" />
        <path
           d="m 134.58,-8.64 c -2.448,0 -4.44,1.992 -4.44,4.44 0,2.448 1.992,4.44 4.44,4.44 2.448,0 4.44,-1.992 4.44,-4.44 0,-2.448 -1.992,-4.44 -4.44,-4.44 z m 0,1.056 c 1.824,0 3.3,1.512 3.3,3.384 0,1.872 -1.476,3.384 -3.3,3.384 -1.824,0 -3.3,-1.512 -3.3,-3.384 0,-1.872 1.476,-3.384 3.3,-3.384 z"
           id="path2295" />
        <path
           d="M 147.55575,0.336 V -6.96 c 0,-0.42 0.012,-1.212 0.012,-1.44 h -1.164 c 0,0.228 0.012,1.02 0.012,1.44 v 3.84 c 0,0.456 0.06,0.768 0.084,0.888 l -0.036,0.024 c -0.24,-0.336 -0.612,-0.708 -0.96,-1.068 l -5.4,-5.46 v 7.296 c 0,0.42 -0.012,1.212 -0.012,1.44 h 1.164 c 0,-0.228 -0.012,-1.02 -0.012,-1.44 v -3.84 c 0,-0.456 -0.06,-0.768 -0.084,-0.888 l 0.036,-0.024 c 0.24,0.336 0.612,0.708 0.96,1.068 z"
           id="path2297" />
      </g>
      <rect
         class="cls-1"
         x="19.040001"
         width="0.75"
         height="17.469999"
         id="rect842"
         y="0" />
      <path
         class="cls-6"
         d="M 13.34,8.73 V 8.47 8.07 a 0.28,0.28 0 0 0 0,-0.09 0.43,0.43 0 0 0 0,-0.11 c 0,-0.15 0,-0.29 -0.07,-0.44 -0.07,-0.15 0,-0.12 0,-0.18 L 13.15,6.83 13,6.64 12.85,6.27 12.76,6.05 12.59,5.73 12.46,5.5 12.28,5.21 C 12.22,5.14 12.17,5.06 12.11,4.98 L 12,4.85 11.88,4.71 11.72,4.53 11.44,4.23 11.32,4.12 11,3.81 10.92,3.75 10.49,3.44 H 10.44 C 10.29,3.34 10.13,3.26 9.98,3.17 H 9.9 L 9.45,2.97 9.29,2.91 A 3.56,3.56 0 0 0 8.9,2.78 L 8.65,2.71 8.3,2.56 8,2.51 H 7.82 7.69 7.38 6.8 6.37 6.29 6.2 L 5.75,2.58 H 5.58 L 5.18,2.69 5,2.8 A 2.08,2.08 0 0 0 4.68,2.92 L 4.39,3.05 4.16,3.16 A 3.79,3.79 0 0 0 3.82,3.36 L 3.65,3.47 C 3.53,3.54 3.41,3.63 3.3,3.71 L 3.21,3.78 3.14,3.84 A 3.47,3.47 0 0 0 2.85,4.09 L 2.64,4.28 2.45,4.49 C 2.36,4.58 2.28,4.68 2.2,4.77 L 2.14,4.85 2,4.94 1.76,5.28 C 1.76,5.34 1.69,5.4 1.65,5.45 L 1.46,5.8 1.36,6 A 2.55,2.55 0 0 0 1.23,6.29 L 1.11,6.6 1,6.87 C 1,7 1,7.13 0.93,7.25 l -0.05,0.2 c 0,0.14 -0.05,0.28 -0.07,0.42 A 0.43,0.43 0 0 1 0.79,8 a 0.28,0.28 0 0 1 0,0.09 c 0,0.13 0,0.25 0,0.38 a 2.72,2.72 0 0 0 0,0.28 A 2.81,2.81 0 0 0 0.76,9 c 0,0.13 0,0.25 0,0.38 a 0.28,0.28 0 0 1 0,0.09 0.43,0.43 0 0 1 0,0.11 c 0,0.14 0,0.28 0.07,0.42 l 0.05,0.2 c 0,0.12 0.06,0.25 0.1,0.38 l 0.08,0.24 0.12,0.31 0.13,0.3 0.11,0.22 0.2,0.35 c 0,0.05 0.07,0.11 0.11,0.17 l 0.24,0.34 0.07,0.09 0.06,0.07 A 3.47,3.47 0 0 0 2.4,13 l 0.19,0.21 0.21,0.19 a 3.47,3.47 0 0 0 0.29,0.25 l 0.07,0.06 0.11,0.08 0.27,0.2 0.2,0.12 0.27,0.17 0.4,0.19 0.1,0.05 a 5.2,5.2 0 0 0 0.55,0.21 h 0.08 l 0.5,0.14 h 0.09 a 4.37,4.37 0 0 0 0.5,0.09 h 0.14 0.24 0.87 0.25 0.13 a 4.51,4.51 0 0 0 0.53,-0.09 h 0.07 a 6,6 0 0 0 1.68,-0.65 l 0.12,-0.07 0.37,-0.23 0.14,-0.11 0.17,-0.12 0.14,-0.12 0.17,-0.15 a 2.76,2.76 0 0 0 0.3,-0.29 l 0.11,-0.11 c 0.11,-0.12 0.22,-0.24 0.32,-0.37 v -0.06 l 0.31,-0.44 V 12.1 a 4.39,4.39 0 0 0 0.27,-0.47 0.25,0.25 0 0 1 0,-0.07 c 0.07,-0.15 0.14,-0.3 0.2,-0.46 l 0.06,-0.14 c 0.05,-0.14 0.09,-0.27 0.13,-0.4 a 1.82,1.82 0 0 0 0.07,-0.25 3,3 0 0 0 0.08,-0.32 c 0,-0.11 0,-0.21 0,-0.32 a 1.13,1.13 0 0 0 0,-0.18 0.41,0.41 0 0 0 0,-0.11 c 0,-0.11 0,-0.21 0,-0.32 0,-0.11 0.24,-0.22 0.24,-0.33 z m -1.47,1 -0.06,0.26 c 0,0.06 0,0.13 -0.05,0.19 -0.05,0.06 -0.07,0.21 -0.11,0.31 -0.04,0.1 0,0.08 0,0.12 0,0.04 -0.11,0.23 -0.16,0.35 v 0.06 l -0.21,0.36 v 0 a 2.62,2.62 0 0 1 -0.24,0.34 v 0.06 c -0.08,0.09 -0.16,0.19 -0.25,0.28 l -0.08,0.09 -0.24,0.23 -0.13,0.11 -0.23,0.18 L 9.94,12.79 9.57,13 9.4,13.1 9.14,13.23 9,13.26 8.7,13.38 H 8.56 L 8.22,13.47 H 8.09 L 7.74,13.53 H 7.59 7.28 6.81 6.54 6.36 A 2.84,2.84 0 0 1 6.05,13.47 H 5.88 L 5.6,13.39 5.4,13.32 5.17,13.23 4.93,13.13 4.75,13.04 4.48,12.89 4.35,12.8 4.08,12.61 4,12.56 3.78,12.37 3.62,12.22 3.46,12.05 C 3.4,11.98 3.33,11.91 3.27,11.83 L 3.17,11.7 2.98,11.43 2.9,11.3 C 2.84,11.21 2.79,11.12 2.74,11.03 L 2.65,10.85 c 0,-0.07 -0.07,-0.15 -0.1,-0.23 L 2.46,10.38 A 1.39,1.39 0 0 1 2.4,10.19 c 0,-0.1 -0.06,-0.2 -0.09,-0.3 V 9.74 L 2.25,9.41 c 0,0 0,-0.08 0,-0.12 a 1.66,1.66 0 0 1 1,-1.71 2.21,2.21 0 0 0 1.59,3.76 h 0.27 a 2.21,2.21 0 0 0 2,-2.2 v 0 0 a 1.93,1.93 0 0 0 0,-0.24 c 0,0 0,-0.07 0,-0.11 A 3.08,3.08 0 0 0 3.49,6.06 3,3 0 0 0 2.82,6.21 v 0 L 2.93,6 3.12,5.73 A 1.47,1.47 0 0 1 3.22,5.6 C 3.28,5.52 3.35,5.45 3.42,5.37 3.49,5.29 3.51,5.27 3.57,5.22 L 3.73,5.06 4,4.91 4.1,4.8 A 1,1 0 0 1 4.31,4.65 L 4.46,4.55 4.68,4.42 A 2.64,2.64 0 0 1 5,4.27 H 5.1 L 5.52,4.11 H 5.59 L 5.97,4.01 H 6.05 L 6.44,3.94 h 0.08 a 5.25,5.25 0 0 1 0.56,0 4.89,4.89 0 0 1 0.54,0 H 7.79 8.07 L 8.26,4 h 0.21 l 0.27,0.09 h 0.13 l 0.31,0.14 h 0.07 l 0.34,0.19 v 0 a 4.87,4.87 0 0 1 1.25,1.1 h 0.05 l 0.12,0.17 0.15,0.21 0.09,0.15 A 2.88,2.88 0 0 0 10.59,5.9 3.08,3.08 0 0 0 7.17,8.75 v 0.12 a 1.79,1.79 0 0 0 0,0.23 v 0 0 a 2.21,2.21 0 0 0 1.95,2.2 H 9.39 A 2.22,2.22 0 0 0 11,7.58 1.72,1.72 0 0 1 12,9.28 V 9.47 A 2,2 0 0 1 11.87,9.71 Z M 4.62,8.28 A 0.86,0.86 0 0 1 5.56,9 0.82,0.82 0 0 1 5.39,9.62 0.85,0.85 0 0 1 4.82,9.94 0.87,0.87 0 0 1 4.2,9.76 0.85,0.85 0 0 1 4.62,8.26 Z M 8.53,9 A 0.85,0.85 0 0 1 9.37,8.26 h 0.1 A 0.87572827,0.87572827 0 0 1 9.27,10 0.85,0.85 0 0 1 8.71,9.68 0.87,0.87 0 0 1 8.53,9 Z"
         id="path844" />
    </g>
  </g>
</svg>
