<svg xmlns="http://www.w3.org/2000/svg" viewBox="0 0 173.15 17.47"><defs><style>.cls-1{fill:#f90;}.cls-2{font-size:12px;font-family:Semplicita-Medium, Semplicità;font-weight:500;}.cls-2,.cls-6{fill:#019aed;}.cls-3{letter-spacing:-0.17em;}.cls-4{letter-spacing:-0.09em;}.cls-5{letter-spacing:-0.02em;}</style></defs><g id="Layer_2" data-name="Layer 2"><g id="development"><path class="cls-1" d="M7.05,2.44a6.3,6.3,0,1,1-6.3,6.3,6.3,6.3,0,0,1,6.3-6.3m0-.75a7,7,0,1,0,7,7.05,7.05,7.05,0,0,0-7-7Z"/><text class="cls-2" transform="translate(25 12.64)">OFFICE OF <tspan class="cls-3" x="59.31" y="0">W</tspan><tspan x="69.31" y="0">A LEGISL</tspan><tspan class="cls-4" x="114.08" y="0">A</tspan><tspan x="121.77" y="0">T</tspan><tspan class="cls-5" x="127.11" y="0">I</tspan><tspan x="129.66" y="0">ON</tspan></text><rect class="cls-1" x="19.04" width="0.75" height="17.47"/><path class="cls-6" d="M13.34,8.73V8.47l0-.4a.28.28,0,0,0,0-.09.43.43,0,0,0,0-.11c0-.15,0-.29-.07-.44s0-.12,0-.18l-.12-.42L13,6.64l-.15-.37-.09-.22-.17-.32-.13-.23-.18-.29c-.06-.07-.11-.15-.17-.23L12,4.85l-.12-.14-.16-.18-.28-.3-.12-.11L11,3.81l-.08-.06-.43-.31-.05,0c-.15-.1-.31-.18-.46-.27l-.08,0-.45-.2-.16-.06a3.56,3.56,0,0,0-.39-.13l-.25-.07L8.3,2.56,8,2.51l-.18,0H7.69l-.31,0H6.8l-.43,0H6.29l-.09,0-.45.07-.17,0-.4.11L5,2.8a2.08,2.08,0,0,0-.32.12l-.29.13-.23.11a3.79,3.79,0,0,0-.34.2l-.17.11c-.12.07-.24.16-.35.24l-.09.07-.07.06a3.47,3.47,0,0,0-.29.25l-.21.19-.19.21c-.09.09-.17.19-.25.28l-.06.08L2,4.94l-.24.34c0,.06-.07.12-.11.17l-.19.35L1.36,6a2.55,2.55,0,0,0-.13.29l-.12.31L1,6.87C1,7,1,7.13.93,7.25l-.05.2c0,.14-.05.28-.07.42A.43.43,0,0,1,.79,8a.28.28,0,0,1,0,.09c0,.13,0,.25,0,.38a2.72,2.72,0,0,0,0,.28A2.81,2.81,0,0,0,.76,9c0,.13,0,.25,0,.38a.28.28,0,0,1,0,.09.43.43,0,0,1,0,.11c0,.14,0,.28.07.42l.05.2c0,.12.06.25.1.38l.08.24.12.31.13.3.11.22.2.35c0,.05.07.11.11.17l.24.34.07.09.06.07A3.47,3.47,0,0,0,2.4,13l.19.21.21.19a3.47,3.47,0,0,0,.29.25l.07.06.11.08.27.2.2.12.27.17.4.19.1.05a5.2,5.2,0,0,0,.55.21l.08,0,.5.14h.09a4.37,4.37,0,0,0,.5.09h.14l.24,0h.87l.25,0h.13a4.51,4.51,0,0,0,.53-.09l.07,0a6,6,0,0,0,1.68-.65l.12-.07.37-.23.14-.11.17-.12.14-.12.17-.15a2.76,2.76,0,0,0,.3-.29l.11-.11c.11-.12.22-.24.32-.37l0-.06.31-.44,0-.05a4.39,4.39,0,0,0,.27-.47.25.25,0,0,1,0-.07c.07-.15.14-.3.2-.46l.06-.14c.05-.14.09-.27.13-.4a1.82,1.82,0,0,0,.07-.25,3,3,0,0,0,.08-.32c0-.11,0-.21,0-.32a1.13,1.13,0,0,0,0-.18.41.41,0,0,0,0-.11c0-.11,0-.21,0-.32S13.34,8.84,13.34,8.73Zm-1.47,1-.06.26c0,.06,0,.13-.05.19s-.07.21-.11.31,0,.08,0,.12-.11.23-.16.35l0,.06-.21.36,0,0a2.62,2.62,0,0,1-.24.34l0,.06c-.08.09-.16.19-.25.28l-.08.09-.24.23-.13.11-.23.18-.17.12L9.57,13l-.17.1-.26.13L9,13.26l-.3.12-.14,0-.34.09-.13,0-.35.06-.15,0-.31,0H6.81l-.27,0-.18,0a2.84,2.84,0,0,1-.31-.06l-.17,0-.28-.08-.2-.07-.23-.09-.24-.1-.18-.09-.27-.15-.13-.09-.27-.19L4,12.56l-.22-.19-.16-.15-.16-.17c-.06-.07-.13-.14-.19-.22l-.1-.13-.19-.27-.08-.13c-.06-.09-.11-.18-.16-.27l-.09-.18c0-.07-.07-.15-.1-.23l-.09-.24a1.39,1.39,0,0,1-.06-.19c0-.1-.06-.2-.09-.3l0-.15-.06-.33s0-.08,0-.12a1.66,1.66,0,0,1,1-1.71,2.21,2.21,0,0,0,1.59,3.76l.27,0a2.21,2.21,0,0,0,2-2.2h0v0a1.93,1.93,0,0,0,0-.24s0-.07,0-.11A3.08,3.08,0,0,0,3.49,6.06a3,3,0,0,0-.67.15l0,0L2.93,6l.19-.27a1.47,1.47,0,0,1,.1-.13c.06-.08.13-.15.2-.23s.09-.1.15-.15l.16-.16L4,4.91,4.1,4.8a1,1,0,0,1,.21-.15l.15-.1.22-.13A2.64,2.64,0,0,1,5,4.27l.1,0,.42-.16.07,0,.38-.1.08,0,.39-.07h.08a5.25,5.25,0,0,1,.56,0,4.89,4.89,0,0,1,.54,0l.17,0,.28,0L8.26,4l.21,0,.27.09.13,0,.31.14.07,0,.34.19h0a4.87,4.87,0,0,1,1.25,1.1l.05,0,.12.17.15.21.09.15a2.88,2.88,0,0,0-.66-.15A3.08,3.08,0,0,0,7.17,8.75v.12a1.79,1.79,0,0,0,0,.23v0h0a2.21,2.21,0,0,0,1.95,2.2l.27,0A2.22,2.22,0,0,0,11,7.58a1.72,1.72,0,0,1,1,1.7l0,.19A2,2,0,0,1,11.87,9.71ZM4.62,8.28A.86.86,0,0,1,5.56,9a.82.82,0,0,1-.17.62.85.85,0,0,1-.57.32.87.87,0,0,1-.62-.18.85.85,0,0,1,.42-1.5ZM8.53,9a.85.85,0,0,1,.84-.74h.1A.85.85,0,0,1,9.27,10a.85.85,0,0,1-.56-.32A.87.87,0,0,1,8.53,9Z"/></g></g></svg>