<svg xmlns="http://www.w3.org/2000/svg" xmlns:xlink="http://www.w3.org/1999/xlink" viewBox="0 0 173.15 17.47" xmlns:v="https://vecta.io/nano"><path d="M7.05 2.44a6.3 6.3 0 1 1-6.3 6.3 6.3 6.3 0 0 1 6.3-6.3m0-.75a7 7 0 1 0 7 7.05 7.05 7.05 0 0 0-7-7z" fill="#f90"/><g fill="#019aed"><path d="M29.92 4c-2.448 0-4.44 1.992-4.44 4.44s1.992 4.44 4.44 4.44 4.44-1.992 4.44-4.44S32.368 4 29.92 4zm0 1.056c1.824 0 3.3 1.512 3.3 3.384s-1.476 3.384-3.3 3.384-3.3-1.512-3.3-3.384 1.476-3.384 3.3-3.384z"/><use xlink:href="#B"/><use xlink:href="#B" x="5.109"/><use xlink:href="#C"/><path d="M55.471 10.66c-.648.708-1.608 1.164-2.676 1.164-1.824 0-3.3-1.512-3.3-3.384s1.476-3.384 3.3-3.384a3.26 3.26 0 0 1 2.52 1.2l.816-.744C55.315 4.588 54.127 4 52.795 4c-2.448 0-4.44 1.992-4.44 4.44s1.992 4.44 4.44 4.44c1.368 0 2.592-.552 3.444-1.44z"/><use xlink:href="#D"/><path d="M70.725 4c-2.448 0-4.44 1.992-4.44 4.44s1.992 4.44 4.44 4.44 4.44-1.992 4.44-4.44S73.173 4 70.725 4zm0 1.056c1.824 0 3.3 1.512 3.3 3.384s-1.476 3.384-3.3 3.384-3.3-1.512-3.3-3.384 1.476-3.384 3.3-3.384zm5.523 6.144l-.012 1.44H77.4l-.012-1.44V8.56h.924l1.44.012v-1.08l-1.44.012h-.924V5.272h1.548l1.44.012V4.228l-1.44.012h-2.688zm14.05-4.512h.024c.012.132.192.756.36 1.2L92.626 13l2.928-7.224.636-1.536h-1.176l-.456 1.152-1.524 3.744a8.64 8.64 0 0 0-.36 1.2h-.048c-.012-.144-.156-.672-.36-1.2L90.31 4l-1.98 5.136c-.204.528-.324 1.056-.336 1.2h-.048c-.012-.12-.168-.804-.324-1.2L86.11 5.392l-.456-1.152H84.43l.636 1.536L87.994 13l1.944-5.112c.168-.444.348-1.068.36-1.2z"/><use xlink:href="#E"/><path d="M107.238 12.64h2.292l1.44.012v-1.08l-1.44.012h-1.152V5.68l.012-1.44h-1.164l.012 1.44z"/><use xlink:href="#D" x="54.614"/><path d="M124.082 9.976c.204 0 .336-.048.372-.072l.036.048c-.036.024-.144.144-.228.36-.348.852-1.404 1.512-2.532 1.512-1.824 0-3.3-1.512-3.3-3.384s1.476-3.384 3.3-3.384c1.056 0 2.004.552 2.58 1.404l.84-.732C124.358 4.672 123.122 4 121.73 4c-2.448 0-4.44 1.992-4.44 4.44s1.992 4.44 4.44 4.44c2.136 0 3.864-1.596 3.864-3.552a4.39 4.39 0 0 0-.024-.408h-2.532c-.42 0-1.212-.012-1.44-.012v1.08l1.44-.012z"/><use xlink:href="#C" x="80.958"/><path d="M128.977 11.2c.432.78 1.284 1.584 2.616 1.584 1.548 0 2.52-.948 2.52-2.304 0-1.344-1.02-2.1-1.956-2.748-.792-.552-1.5-.984-1.5-1.716 0-.492.348-.912 1.008-.912s1.092.432 1.392.84l.876-.66c-.468-.564-1.152-1.188-2.268-1.188-1.272 0-2.136.828-2.136 1.968 0 1.224 1.02 1.908 1.956 2.568.768.54 1.488 1.068 1.488 1.944 0 .66-.516 1.176-1.38 1.176-.78 0-1.332-.54-1.644-1.08zm6.152 1.44h2.292l1.44.012v-1.08l-1.44.012h-1.152V5.68l.012-1.44h-1.164l.012 1.44z"/><use xlink:href="#E" x="44.77"/><path d="M151.942 4.228l-1.44.012h-2.124c-.42 0-1.212-.012-1.44-.012v1.08l1.44-.012h.492V11.2l-.012 1.44h1.164l-.012-1.44V5.296h.492l1.44.012z"/><use xlink:href="#C" x="107.047"/><path d="M159.58 4c-2.448 0-4.44 1.992-4.44 4.44s1.992 4.44 4.44 4.44 4.44-1.992 4.44-4.44S162.028 4 159.58 4zm0 1.056c1.824 0 3.3 1.512 3.3 3.384s-1.476 3.384-3.3 3.384-3.3-1.512-3.3-3.384 1.476-3.384 3.3-3.384zm12.976 7.92V5.68l.012-1.44h-1.164l.012 1.44v3.84c0 .456.06.768.084.888l-.036.024c-.24-.336-.612-.708-.96-1.068l-5.4-5.46V11.2l-.012 1.44h1.164l-.012-1.44V7.36c0-.456-.06-.768-.084-.888l.036-.024c.24.336.612.708.96 1.068z"/></g><path d="M19.04 0h.75v17.47h-.75z" fill="#f90"/><path d="M13.34 8.73v-.26-.4a.28.28 0 0 0 0-.09.43.43 0 0 0 0-.11c0-.15 0-.29-.07-.44s0-.12 0-.18l-.12-.42-.15-.19-.15-.37-.09-.22-.17-.32-.13-.23-.18-.29c-.06-.07-.11-.15-.17-.23L12 4.85l-.12-.14-.16-.18-.28-.3-.12-.11-.32-.31-.08-.06-.43-.31h-.05c-.15-.1-.31-.18-.46-.27H9.9l-.45-.2-.16-.06a3.56 3.56 0 0 0-.39-.13l-.25-.07-.35-.15-.3-.05h-.18-.13-.31-.58-.43-.08-.09l-.45.07h-.17l-.4.11L5 2.8a2.08 2.08 0 0 0-.32.12l-.29.13-.23.11a3.79 3.79 0 0 0-.34.2l-.17.11c-.12.07-.24.16-.35.24l-.09.07-.07.06a3.47 3.47 0 0 0-.29.25l-.21.19-.19.21c-.09.09-.17.19-.25.28l-.06.08-.14.09-.24.34c0 .06-.07.12-.11.17l-.19.35-.1.2a2.55 2.55 0 0 0-.13.29l-.12.31-.11.27c0 .13 0 .26-.07.38l-.05.2c0 .14-.05.28-.07.42A.43.43 0 0 1 .79 8a.28.28 0 0 1 0 .09v.38a2.72 2.72 0 0 0 0 .28A2.81 2.81 0 0 0 .76 9v.38a.28.28 0 0 1 0 .09.43.43 0 0 1 0 .11c0 .14 0 .28.07.42l.05.2c0 .12.06.25.1.38l.08.24.12.31.13.3.11.22.2.35c0 .05.07.11.11.17l.24.34.07.09.06.07a3.47 3.47 0 0 0 .3.33l.19.21.21.19a3.47 3.47 0 0 0 .29.25l.07.06.11.08.27.2.2.12.27.17.4.19.1.05a5.2 5.2 0 0 0 .55.21h.08l.5.14h.09a4.37 4.37 0 0 0 .5.09h.14.24.87.25.13a4.51 4.51 0 0 0 .53-.09h.07a6 6 0 0 0 1.68-.65l.12-.07.37-.23.14-.11.17-.12.14-.12.17-.15a2.76 2.76 0 0 0 .3-.29l.11-.11.32-.37v-.06l.31-.44v-.05a4.39 4.39 0 0 0 .27-.47.25.25 0 0 1 0-.07l.2-.46.06-.14.13-.4a1.82 1.82 0 0 0 .07-.25 3 3 0 0 0 .08-.32v-.32a1.13 1.13 0 0 0 0-.18.41.41 0 0 0 0-.11v-.32c0-.11.24-.22.24-.33zm-1.47 1l-.06.26c0 .06 0 .13-.05.19s-.07.21-.11.31 0 .08 0 .12-.11.23-.16.35v.06l-.21.36h0a2.62 2.62 0 0 1-.24.34v.06l-.25.28-.08.09-.24.23-.13.11-.23.18-.17.12-.37.21-.17.1-.26.13-.14.03-.3.12h-.14l-.34.09h-.13l-.35.06h-.15-.31-.47-.27-.18a2.84 2.84 0 0 1-.31-.06h-.17l-.28-.08-.2-.07-.23-.09-.24-.1-.18-.09-.27-.15-.13-.09-.27-.19-.08-.05-.22-.19-.16-.15-.16-.17-.19-.22-.1-.13-.19-.27-.08-.13c-.06-.09-.11-.18-.16-.27l-.09-.18c0-.07-.07-.15-.1-.23l-.09-.24a1.39 1.39 0 0 1-.06-.19c0-.1-.06-.2-.09-.3v-.15l-.06-.33v-.12a1.66 1.66 0 0 1 1-1.71 2.21 2.21 0 0 0 1.59 3.76h.27a2.21 2.21 0 0 0 2-2.2h0 0a1.93 1.93 0 0 0 0-.24v-.11a3.08 3.08 0 0 0-3.62-2.73 3 3 0 0 0-.67.15h0L2.93 6l.19-.27a1.47 1.47 0 0 1 .1-.13c.06-.08.13-.15.2-.23s.09-.1.15-.15l.16-.16.27-.15.1-.11a1 1 0 0 1 .21-.15l.15-.1.22-.13A2.64 2.64 0 0 1 5 4.27h.1l.42-.16h.07l.38-.1h.08l.39-.07h.08a5.25 5.25 0 0 1 .56 0 4.89 4.89 0 0 1 .54 0h.17.28l.19.06h.21l.27.09h.13l.31.14h.07l.34.19h0a4.87 4.87 0 0 1 1.25 1.1h.05l.12.17.15.21.09.15a2.88 2.88 0 0 0-.66-.15 3.08 3.08 0 0 0-3.42 2.85v.12a1.79 1.79 0 0 0 0 .23h0 0a2.21 2.21 0 0 0 1.95 2.2h.27A2.22 2.22 0 0 0 11 7.58a1.72 1.72 0 0 1 1 1.7v.19a2 2 0 0 1-.13.24zM4.62 8.28a.86.86 0 0 1 .94.72.82.82 0 0 1-.17.62.85.85 0 0 1-.57.32.87.87 0 0 1-.62-.18.85.85 0 0 1 .42-1.5zM8.53 9a.85.85 0 0 1 .84-.74h.1a.876.876 0 0 1-.2 1.74.85.85 0 0 1-.56-.32.87.87 0 0 1-.18-.68z" fill="#019aed"/><defs ><path id="B" d="M35.444 11.2l-.012 1.44h1.164l-.012-1.44V8.56h.924l1.44.012v-1.08l-1.44.012h-.924V5.272h1.548l1.44.012V4.228l-1.44.012h-2.688z"/><path id="C" d="M45.891 4.24l.012 1.44v5.52l-.012 1.44h1.164l-.012-1.44V5.68l.012-1.44z"/><path id="D" d="M57.194 12.64h3.024l1.44.012v-1.128l-1.44.012h-1.884V8.584h1.056l1.44.012V7.492l-1.44.012h-1.056V5.296h1.644l1.44.012v-1.08l-1.44.012h-2.784z"/><path id="E" d="M101.054 11.8l.372.84h1.236l-.6-1.308-3.444-7.548-3.348 7.548-.6 1.308h1.236l.372-.84.144-.336h4.476zm-3.792-1.392c-.216 0-.396.048-.42.072l-.024-.048c.024-.012.12-.12.204-.312l1.296-2.916c.228-.516.288-.84.288-.9h.048c0 .06.06.384.3.9l1.332 2.916c.108.24.168.3.192.312l-.024.048c-.036-.024-.192-.072-.42-.072z"/></defs></svg>