<?xml version="1.0" encoding="UTF-8" standalone="no"?>
<svg
   viewBox="0 0 138.96 17.47"
   version="1.1"
   id="svg1290"
   sodipodi:docname="culture-line-color.svg"
   inkscape:version="1.1 (c4e8f9e, 2021-05-24)"
   xmlns:inkscape="http://www.inkscape.org/namespaces/inkscape"
   xmlns:sodipodi="http://sodipodi.sourceforge.net/DTD/sodipodi-0.dtd"
   xmlns="http://www.w3.org/2000/svg"
   xmlns:svg="http://www.w3.org/2000/svg">
  <sodipodi:namedview
     id="namedview1292"
     pagecolor="#ffffff"
     bordercolor="#111111"
     borderopacity="1"
     inkscape:pageshadow="0"
     inkscape:pageopacity="0"
     inkscape:pagecheckerboard="1"
     showgrid="false"
     inkscape:zoom="8.2397808"
     inkscape:cx="33.19263"
     inkscape:cy="10.194446"
     inkscape:current-layer="development" />
  <defs
     id="defs1264">
    <style
       id="style1262">.cls-1{fill:#f90;}.cls-2{font-size:12px;font-family:Semplicita-Medium, Semplicità;font-weight:500;}.cls-2,.cls-7{fill:#019aed;}.cls-3{letter-spacing:-0.02em;}.cls-4{letter-spacing:-0.01em;}.cls-5{letter-spacing:-0.06em;}.cls-6{letter-spacing:-0.01em;}</style>
  </defs>
  <g
     id="Layer_2"
     data-name="Layer 2">
    <g
       id="development">
      <path
         class="cls-1"
         d="m 7.05,2.44 a 6.3,6.3 0 1 1 -6.3,6.3 6.3,6.3 0 0 1 6.3,-6.3 m 0,-0.75 a 7,7 0 1 0 7,7.05 7.05,7.05 0 0 0 -7,-7 z"
         id="path1266" />
      <g
         aria-label="MINISTRY OF CULTURE"
         transform="translate(25,12.64)"
         id="text1282"
         class="cls-2"
         style="font-weight:500;font-size:12px;font-family:Semplicita-Medium, Semplicità;fill:#019aed">
        <path
           d="M 1.884,-8.76 0.456,-1.404 C 0.384,-1.008 0.168,0 0.168,0 H 1.32 c 0,0 0.132,-0.768 0.204,-1.188 l 0.6,-3.276 C 2.208,-4.932 2.292,-5.46 2.28,-5.58 l 0.048,-0.012 c 0.036,0.156 0.24,0.732 0.432,1.164 l 2.076,4.716 2.088,-4.68 C 7.116,-4.824 7.332,-5.4 7.368,-5.556 l 0.048,0.012 c -0.012,0.12 0.024,0.672 0.108,1.14 L 8.136,-1.2 C 8.208,-0.804 8.268,-0.396 8.34,0 h 1.152 c 0,0 -0.168,-0.876 -0.276,-1.416 L 7.74,-8.76 5.352,-3.372 C 5.1,-2.796 4.884,-2.172 4.872,-2.04 H 4.824 C 4.812,-2.16 4.656,-2.712 4.356,-3.372 Z"
           style="font-weight:500;font-size:12px;font-family:Semplicita-Medium, Semplicità;fill:#019aed"
           id="path1872" />
        <path
           d="m 10.507687,-8.4 c 0,0.228 0.012,1.02 0.012,1.44 v 5.52 c 0,0.42 -0.012,1.212 -0.012,1.44 h 1.164001 c 0,-0.228 -0.012,-1.02 -0.012,-1.44 v -5.52 c 0,-0.42 0.012,-1.212 0.012,-1.44 z"
           style="font-weight:500;font-size:12px;font-family:Semplicita-Medium, Semplicità;fill:#019aed"
           id="path1874" />
        <path
           d="M 20.544187,0.336 V -6.96 c 0,-0.42 0.012,-1.212 0.012,-1.44 h -1.164 c 0,0.228 0.012,1.02 0.012,1.44 v 3.84 c 0,0.456 0.06,0.768 0.084,0.888 l -0.036,0.024 c -0.24,-0.336 -0.612,-0.708 -0.96,-1.068 l -5.399999,-5.46 v 7.296 c 0,0.42 -0.012,1.212 -0.012,1.44 h 1.163999 c 0,-0.228 -0.012,-1.02 -0.012,-1.44 v -3.84 c 0,-0.456 -0.06,-0.768 -0.084,-0.888 l 0.036,-0.024 c 0.24,0.336 0.612,0.708 0.96,1.068 z"
           style="font-weight:500;font-size:12px;font-family:Semplicita-Medium, Semplicità;fill:#019aed"
           id="path1876" />
        <path
           d="m 21.968625,-8.4 c 0,0.228 0.012,1.02 0.012,1.44 v 5.52 c 0,0.42 -0.012,1.212 -0.012,1.44 h 1.164 c 0,-0.228 -0.012,-1.02 -0.012,-1.44 v -5.52 c 0,-0.42 0.012,-1.212 0.012,-1.44 z"
           style="font-weight:500;font-size:12px;font-family:Semplicita-Medium, Semplicità;fill:#019aed"
           id="path1878" />
        <path
           d="m 24.097125,-1.44 c 0.432,0.78 1.284,1.584 2.616,1.584 1.548,0 2.52,-0.948 2.52,-2.304 0,-1.344 -1.02,-2.1 -1.956,-2.748 -0.792,-0.552 -1.5,-0.984 -1.5,-1.716 0,-0.492 0.348,-0.912 1.008,-0.912 0.66,0 1.092,0.432 1.392,0.84 l 0.876,-0.66 c -0.468,-0.564 -1.152,-1.188 -2.268,-1.188 -1.272,0 -2.136,0.828 -2.136,1.968 0,1.224 1.02,1.908 1.956,2.568 0.768,0.54 1.488,1.068 1.488,1.944 0,0.66 -0.516,1.176 -1.38,1.176 -0.78,0 -1.332,-0.54 -1.644,-1.08 z"
           style="font-weight:500;font-size:12px;font-family:Semplicita-Medium, Semplicità;fill:#019aed"
           id="path1880" />
        <path
           d="m 34.820437,-8.412 c -0.227999,0 -1.02,0.012 -1.44,0.012 h -2.124 c -0.42,0 -1.212,-0.012 -1.44,-0.012 v 1.08 c 0.228,0 1.02,-0.012 1.44,-0.012 h 0.492001 v 5.904 c 0,0.42 -0.012,1.212 -0.012,1.44 h 1.164001 c 0,-0.228 -0.012,-1.02 -0.012,-1.44 v -5.904 h 0.491999 c 0.42,0 1.212001,0.012 1.44,0.012 z"
           style="font-weight:500;font-size:12px;font-family:Semplicita-Medium, Semplicità;fill:#019aed"
           id="path1882" />
        <path
           d="m 39.464,0 h 1.248 c 0,0 -0.396,-0.804 -0.624,-1.296 L 39.032,-3.54 C 38.96,-3.696 38.888,-3.804 38.828,-3.864 l 0.012,-0.024 c 0.948,-0.228 1.584,-1.128 1.584,-2.184 0,-1.284 -0.924,-2.328 -2.328,-2.328 H 35.6 v 6.96 c 0,0.42 -0.012,1.212 -0.012,1.44 h 1.164 c 0,-0.228 -0.012,-1.02 -0.012,-1.44 v -2.304 h 0.984 l 1.26,2.676 c 0.192,0.396 0.36,0.804 0.48,1.068 z m -1.512,-7.416 c 0.852,0 1.332,0.6 1.332,1.332 0,0.732 -0.48,1.332 -1.332,1.332 H 36.74 v -2.664 z"
           style="letter-spacing:-0.02em"
           id="path1884" />
        <path
           d="m 43.74,0 h 1.164 c 0,-0.228 -0.012,-1.02 -0.012,-1.44 v -2.244 l 1.836,-3.24 C 47.016,-7.428 47.292,-7.92 47.58,-8.4 h -1.272 c -0.168,0.3 -0.324,0.6 -0.504,0.912 l -1.092,1.932 c -0.204,0.372 -0.396,0.756 -0.396,0.828 h -0.048 c 0,-0.072 -0.168,-0.456 -0.384,-0.828 l -1.128,-1.92 C 42.564,-7.8 42.408,-8.088 42.228,-8.4 h -1.296 c 0.108,0.192 0.696,1.14 0.912,1.5 l 1.908,3.252 v 2.208 c 0,0.42 -0.012,1.212 -0.012,1.44 z"
           id="path1886" />
        <path
           d="m 56.357813,-8.64 c -2.448,0 -4.44,1.992 -4.44,4.44 0,2.448 1.992,4.44 4.44,4.44 2.448,0 4.44,-1.992 4.44,-4.44 0,-2.448 -1.992,-4.44 -4.44,-4.44 z m 0,1.056 c 1.824,0 3.3,1.512 3.3,3.384 0,1.872 -1.476,3.384 -3.3,3.384 -1.824,0 -3.3,-1.512 -3.3,-3.384 0,-1.872 1.476,-3.384 3.3,-3.384 z"
           id="path1888" />
        <path
           d="m 61.881563,-1.44 c 0,0.42 -0.012,1.212 -0.012,1.44 h 1.164 c 0,-0.228 -0.012,-1.02 -0.012,-1.44 v -2.64 h 0.924 c 0.42,0 1.212,0.012 1.44,0.012 v -1.08 c -0.228,0 -1.02,0.012 -1.44,0.012 h -0.924 v -2.232 h 1.548 c 0.42,0 1.212,0.012 1.44,0.012 v -1.056 c -0.228,0 -1.02,0.012 -1.44,0.012 h -2.688 z"
           id="path1890" />
        <path
           d="m 77.596313,-1.98 c -0.648,0.708 -1.608,1.164 -2.676,1.164 -1.824,0 -3.3,-1.512 -3.3,-3.384 0,-1.872 1.476,-3.384 3.3,-3.384 1.008,0 1.92,0.468 2.52,1.2 l 0.816,-0.744 c -0.816,-0.924 -2.004,-1.512 -3.336,-1.512 -2.448,0 -4.44,1.992 -4.44,4.44 0,2.448 1.992,4.44 4.44,4.44 1.368,0 2.592,-0.552 3.444,-1.44 z"
           id="path1892" />
        <path
           d="m 80.432,-8.4 h -1.164 c 0,0.228 0.012,1.02 0.012,1.44 v 4.32 c 0,0.936 0.252,1.512 0.696,1.98 0.588,0.624 1.524,0.9 2.64,0.9 1.572,0 2.532,-0.528 2.904,-1.032 V -6.96 c 0,-0.42 0.012,-1.212 0.012,-1.44 h -1.164 c 0,0.228 0.012,1.02 0.012,1.44 v 5.712 c -0.24,0.216 -0.84,0.48 -1.764,0.48 -0.732,0 -1.38,-0.204 -1.764,-0.612 -0.312,-0.324 -0.432,-0.816 -0.432,-1.5 v -4.08 c 0,-0.42 0.012,-1.212 0.012,-1.44 z"
           style="letter-spacing:-0.01em"
           id="path1894" />
        <path
           d="m 86.589998,0 h 2.292 c 0.42,0 1.212,0.012 1.44,0.012 v -1.08 c -0.228,0 -1.02,0.012 -1.44,0.012 h -1.152 V -6.96 c 0,-0.42 0.012,-1.212 0.012,-1.44 h -1.164 c 0,0.228 0.012,1.02 0.012,1.44 z"
           style="letter-spacing:-0.06em"
           id="path1896" />
        <path
           d="m 94.981998,-8.412 c -0.228,0 -1.02,0.012 -1.44,0.012 h -2.124 c -0.42,0 -1.212,-0.012 -1.44,-0.012 v 1.08 c 0.228,0 1.02,-0.012 1.44,-0.012 h 0.492 v 5.904 c 0,0.42 -0.012,1.212 -0.012,1.44 h 1.164 c 0,-0.228 -0.012,-1.02 -0.012,-1.44 v -5.904 h 0.492 c 0.42,0 1.212,0.012 1.44,0.012 z"
           id="path1898" />
        <path
           d="m 96.902002,-8.4 h -1.164 c 0,0.228 0.012,1.02 0.012,1.44 v 4.32 c 0,0.936 0.252,1.512 0.696,1.98 0.588,0.624 1.524,0.9 2.64,0.9 1.571998,0 2.531998,-0.528 2.903998,-1.032 V -6.96 c 0,-0.42 0.012,-1.212 0.012,-1.44 h -1.164 c 0,0.228 0.012,1.02 0.012,1.44 v 5.712 c -0.24,0.216 -0.84,0.48 -1.763998,0.48 -0.732,0 -1.38,-0.204 -1.764,-0.612 -0.312,-0.324 -0.432,-0.816 -0.432,-1.5 v -4.08 c 0,-0.42 0.012,-1.212 0.012,-1.44 z"
           style="letter-spacing:-0.01em"
           id="path1900" />
        <path
           d="m 106.924,0 h 1.248 c 0,0 -0.396,-0.804 -0.624,-1.296 l -1.056,-2.244 c -0.072,-0.156 -0.144,-0.264 -0.204,-0.324 l 0.012,-0.024 c 0.948,-0.228 1.584,-1.128 1.584,-2.184 0,-1.284 -0.924,-2.328 -2.328,-2.328 h -2.496 v 6.96 c 0,0.42 -0.012,1.212 -0.012,1.44 h 1.164 c 0,-0.228 -0.012,-1.02 -0.012,-1.44 v -2.304 h 0.984 l 1.26,2.676 c 0.192,0.396 0.36,0.804 0.48,1.068 z m -1.512,-7.416 c 0.852,0 1.332,0.6 1.332,1.332 0,0.732 -0.48,1.332 -1.332,1.332 H 104.2 v -2.664 z"
           id="path1902" />
        <path
           d="m 108.96625,0 h 3.024 c 0.42,0 1.212,0.012 1.44,0.012 v -1.128 c -0.228,0 -1.02,0.012 -1.44,0.012 h -1.884 v -2.952 h 1.056 c 0.42,0 1.212,0.012 1.44,0.012 v -1.104 c -0.228,0 -1.02,0.012 -1.44,0.012 h -1.056 v -2.208 h 1.644 c 0.42,0 1.212,0.012 1.44,0.012 v -1.08 c -0.228,0 -1.02,0.012 -1.44,0.012 h -2.784 z"
           id="path1904" />
      </g>
      <rect
         class="cls-1"
         x="19.040001"
         width="0.75"
         height="17.469999"
         id="rect1284"
         y="0" />
      <path
         class="cls-7"
         d="m 11.5,4.28 a 6.32,6.32 0 0 0 -8.9,0 v 0 L 2.53,4.36 2.44,4.46 a 6.3,6.3 0 0 0 0,8.54 l 0.17,0.19 a 6.31,6.31 0 0 0 8.91,0 L 11.69,13 A 6.3,6.3 0 0 0 11.5,4.28 Z m -4.45,9.4 a 4.93,4.93 0 0 1 -3.5,-1.45 1.17,1.17 0 0 1 0,-1.67 1.2,1.2 0 0 1 1.64,0 0.52,0.52 0 0 0 -0.11,0.1 1.07,1.07 0 0 0 0,1.53 1.07,1.07 0 0 0 0.76,0.32 1.12,1.12 0 0 0 0.77,-0.32 1.1,1.1 0 0 0 0.32,-0.77 v 0 A 2.55,2.55 0 0 0 2.59,9.6 2.37,2.37 0 0 0 2.27,9.99 a 5.12,5.12 0 0 1 0,-2.52 3,3 0 0 0 0.32,0.39 2.53,2.53 0 0 0 3.59,0 2.51,2.51 0 0 0 0.75,-1.79 v 0 A 1.05,1.05 0 0 0 6.61,5.3 1.09,1.09 0 0 0 5.08,5.3 1.07,1.07 0 0 0 4.76,6.06 1.12,1.12 0 0 0 5.08,6.83 v 0 L 5.2,6.92 a 1.18,1.18 0 0 1 -2,-0.86 1.14,1.14 0 0 1 0.35,-0.83 4.95,4.95 0 0 1 7,0 1.17,1.17 0 0 1 0,1.67 1.2,1.2 0 0 1 -1.64,0 A 0.52,0.52 0 0 0 9,6.84 1,1 0 0 0 9.32,6.08 1.07,1.07 0 0 0 9,5.31 1.08,1.08 0 0 0 7.16,6.08 v 0 a 2.5,2.5 0 0 0 0.74,1.79 2.52,2.52 0 0 0 3.59,0 2.37,2.37 0 0 0 0.32,-0.39 4.72,4.72 0 0 1 0,2.51 2.37,2.37 0 0 0 -0.32,-0.39 2.54,2.54 0 0 0 -4.33,1.79 v 0 a 1.09,1.09 0 0 0 0.31,0.77 1.12,1.12 0 0 0 0.77,0.32 1.07,1.07 0 0 0 0.76,-0.32 1.07,1.07 0 0 0 0,-1.53 0.52,0.52 0 0 0 -0.11,-0.1 1.1810588,1.1810588 0 0 1 1.64,1.7 4.91,4.91 0 0 1 -3.48,1.45 z"
         id="path1286" />
    </g>
  </g>
</svg>
