<svg xmlns="http://www.w3.org/2000/svg" viewBox="0 0 138.96 17.47"><defs><style>.cls-1{fill:#f90;}.cls-2{font-size:12px;font-family:Semplicita-Medium, Semplicità;font-weight:500;}.cls-2,.cls-7{fill:#019aed;}.cls-3{letter-spacing:-0.02em;}.cls-4{letter-spacing:-0.01em;}.cls-5{letter-spacing:-0.06em;}.cls-6{letter-spacing:-0.01em;}</style></defs><g id="Layer_2" data-name="Layer 2"><g id="development"><path class="cls-1" d="M7.05,2.44a6.3,6.3,0,1,1-6.3,6.3,6.3,6.3,0,0,1,6.3-6.3m0-.75a7,7,0,1,0,7,7.05,7.05,7.05,0,0,0-7-7Z"/><text class="cls-2" transform="translate(25 12.64)">MINIST<tspan class="cls-3" x="35" y="0">R</tspan><tspan x="40.68" y="0">Y OF C</tspan><tspan class="cls-4" x="78.68" y="0">U</tspan><tspan class="cls-5" x="85.99" y="0">L</tspan><tspan x="89.81" y="0">T</tspan><tspan class="cls-6" x="95.15" y="0">U</tspan><tspan x="102.46" y="0">RE</tspan></text><rect class="cls-1" x="19.04" width="0.75" height="17.47"/><path class="cls-7" d="M11.5,4.28a6.32,6.32,0,0,0-8.9,0h0l-.07.08-.09.1a6.3,6.3,0,0,0,0,8.54l.17.19a6.31,6.31,0,0,0,8.91,0l.17-.19A6.3,6.3,0,0,0,11.5,4.28Zm-4.45,9.4a4.93,4.93,0,0,1-3.5-1.45,1.17,1.17,0,0,1,0-1.67,1.2,1.2,0,0,1,1.64,0,.52.52,0,0,0-.11.1,1.07,1.07,0,0,0,0,1.53,1.07,1.07,0,0,0,.76.32,1.12,1.12,0,0,0,.77-.32,1.1,1.1,0,0,0,.32-.77h0A2.55,2.55,0,0,0,2.59,9.6a2.37,2.37,0,0,0-.32.39,5.12,5.12,0,0,1,0-2.52,3,3,0,0,0,.32.39,2.53,2.53,0,0,0,3.59,0,2.51,2.51,0,0,0,.75-1.79h0a1.05,1.05,0,0,0-.32-.77,1.09,1.09,0,0,0-1.53,0,1.07,1.07,0,0,0-.32.76,1.12,1.12,0,0,0,.32.77h0l.12.09a1.18,1.18,0,0,1-2-.86,1.14,1.14,0,0,1,.35-.83,4.95,4.95,0,0,1,7,0,1.17,1.17,0,0,1,0,1.67,1.2,1.2,0,0,1-1.64,0A.52.52,0,0,0,9,6.84a1,1,0,0,0,.32-.76A1.07,1.07,0,0,0,9,5.31a1.08,1.08,0,0,0-1.84.77h0a2.5,2.5,0,0,0,.74,1.79,2.52,2.52,0,0,0,3.59,0,2.37,2.37,0,0,0,.32-.39,4.72,4.72,0,0,1,0,2.51,2.37,2.37,0,0,0-.32-.39,2.54,2.54,0,0,0-4.33,1.79h0a1.09,1.09,0,0,0,.31.77,1.12,1.12,0,0,0,.77.32A1.07,1.07,0,0,0,9,12.16a1.07,1.07,0,0,0,0-1.53.52.52,0,0,0-.11-.1,1.18,1.18,0,0,1,1.64,1.7A4.91,4.91,0,0,1,7.05,13.68Z"/></g></g></svg>