<svg xmlns="http://www.w3.org/2000/svg" xmlns:xlink="http://www.w3.org/1999/xlink" viewBox="0 0 138.96 17.47" xmlns:v="https://vecta.io/nano"><path d="M7.05 2.44a6.3 6.3 0 1 1-6.3 6.3 6.3 6.3 0 0 1 6.3-6.3m0-.75a7 7 0 1 0 7 7.05 7.05 7.05 0 0 0-7-7z" fill="#f90"/><g fill="#019aed"><path d="M26.884 3.88l-1.428 7.356-.288 1.404h1.152l.204-1.188.6-3.276.156-1.116.048-.012c.036.156.24.732.432 1.164l2.076 4.716 2.088-4.68c.192-.432.408-1.008.444-1.164l.048.012c-.012.12.024.672.108 1.14l.612 3.204.204 1.2h1.152l-.276-1.416L32.74 3.88l-2.388 5.388c-.252.576-.468 1.2-.48 1.332h-.048c-.012-.12-.168-.672-.468-1.332zm8.624.36l.012 1.44v5.52l-.012 1.44h1.164l-.012-1.44V5.68l.012-1.44zm10.036 8.736V5.68l.012-1.44h-1.164l.012 1.44v3.84c0 .456.06.768.084.888l-.036.024c-.24-.336-.612-.708-.96-1.068l-5.4-5.46V11.2l-.012 1.44h1.164l-.012-1.44V7.36c0-.456-.06-.768-.084-.888l.036-.024c.24.336.612.708.96 1.068zm1.425-8.736l.012 1.44v5.52l-.012 1.44h1.164l-.012-1.44V5.68l.012-1.44zm2.128 6.96c.432.78 1.284 1.584 2.616 1.584 1.548 0 2.52-.948 2.52-2.304 0-1.344-1.02-2.1-1.956-2.748-.792-.552-1.5-.984-1.5-1.716 0-.492.348-.912 1.008-.912s1.092.432 1.392.84l.876-.66c-.468-.564-1.152-1.188-2.268-1.188-1.272 0-2.136.828-2.136 1.968 0 1.224 1.02 1.908 1.956 2.568.768.54 1.488 1.068 1.488 1.944 0 .66-.516 1.176-1.38 1.176-.78 0-1.332-.54-1.644-1.08zM59.82 4.228l-1.44.012h-2.124c-.42 0-1.212-.012-1.44-.012v1.08l1.44-.012h.492V11.2l-.012 1.44H57.9l-.012-1.44V5.296h.492l1.44.012zm4.644 8.412h1.248l-.624-1.296L64.032 9.1c-.072-.156-.144-.264-.204-.324l.012-.024c.948-.228 1.584-1.128 1.584-2.184 0-1.284-.924-2.328-2.328-2.328H60.6v6.96l-.012 1.44h1.164l-.012-1.44V8.896h.984l1.26 2.676.48 1.068zm-1.512-7.416c.852 0 1.332.6 1.332 1.332s-.48 1.332-1.332 1.332H61.74V5.224zm5.788 7.416h1.164l-.012-1.44V8.956l1.836-3.24.852-1.476h-1.272l-.504.912-1.092 1.932c-.204.372-.396.756-.396.828h-.048c0-.072-.168-.456-.384-.828l-1.128-1.92-.528-.924h-1.296l.912 1.5 1.908 3.252V11.2l-.012 1.44zM81.358 4c-2.448 0-4.44 1.992-4.44 4.44s1.992 4.44 4.44 4.44 4.44-1.992 4.44-4.44S83.806 4 81.358 4zm0 1.056c1.824 0 3.3 1.512 3.3 3.384s-1.476 3.384-3.3 3.384-3.3-1.512-3.3-3.384 1.476-3.384 3.3-3.384zm5.524 6.144l-.012 1.44h1.164l-.012-1.44V8.56h.924l1.44.012v-1.08l-1.44.012h-.924V5.272h1.548l1.44.012V4.228l-1.44.012h-2.688zm15.714-.54c-.648.708-1.608 1.164-2.676 1.164-1.824 0-3.3-1.512-3.3-3.384s1.476-3.384 3.3-3.384a3.26 3.26 0 0 1 2.52 1.2l.816-.744C102.44 4.588 101.252 4 99.92 4c-2.448 0-4.44 1.992-4.44 4.44s1.992 4.44 4.44 4.44c1.368 0 2.592-.552 3.444-1.44z"/><use xlink:href="#B"/><path d="M111.59 12.64h2.292l1.44.012v-1.08l-1.44.012h-1.152V5.68l.012-1.44h-1.164l.012 1.44zm8.392-8.412l-1.44.012h-2.124c-.42 0-1.212-.012-1.44-.012v1.08l1.44-.012h.492V11.2l-.012 1.44h1.164l-.012-1.44V5.296h.492l1.44.012z"/><use xlink:href="#B" x="16.47"/><path d="M131.924 12.64h1.248l-.624-1.296-1.056-2.244c-.072-.156-.144-.264-.204-.324l.012-.024c.948-.228 1.584-1.128 1.584-2.184 0-1.284-.924-2.328-2.328-2.328h-2.496v6.96l-.012 1.44h1.164l-.012-1.44V8.896h.984l1.26 2.676.48 1.068zm-1.512-7.416c.852 0 1.332.6 1.332 1.332s-.48 1.332-1.332 1.332H129.2V5.224zm3.554 7.416h3.024l1.44.012v-1.128l-1.44.012h-1.884V8.584h1.056l1.44.012V7.492l-1.44.012h-1.056V5.296h1.644l1.44.012v-1.08l-1.44.012h-2.784z"/></g><path d="M19.04 0h.75v17.47h-.75z" fill="#f90"/><path d="M11.5 4.28a6.32 6.32 0 0 0-8.9 0h0l-.07.08-.09.1a6.3 6.3 0 0 0 0 8.54l.17.19a6.31 6.31 0 0 0 8.91 0l.17-.19a6.3 6.3 0 0 0-.19-8.72zm-4.45 9.4a4.93 4.93 0 0 1-3.5-1.45 1.17 1.17 0 0 1 0-1.67 1.2 1.2 0 0 1 1.64 0 .52.52 0 0 0-.11.1 1.07 1.07 0 0 0 0 1.53 1.07 1.07 0 0 0 .76.32 1.12 1.12 0 0 0 .77-.32 1.1 1.1 0 0 0 .32-.77h0A2.55 2.55 0 0 0 2.59 9.6a2.37 2.37 0 0 0-.32.39 5.12 5.12 0 0 1 0-2.52 3 3 0 0 0 .32.39 2.53 2.53 0 0 0 3.59 0 2.51 2.51 0 0 0 .75-1.79h0a1.05 1.05 0 0 0-.32-.77 1.09 1.09 0 0 0-1.53 0 1.07 1.07 0 0 0-.32.76 1.12 1.12 0 0 0 .32.77h0l.12.09a1.18 1.18 0 0 1-2-.86 1.14 1.14 0 0 1 .35-.83 4.95 4.95 0 0 1 7 0 1.17 1.17 0 0 1 0 1.67 1.2 1.2 0 0 1-1.64 0A.52.52 0 0 0 9 6.84a1 1 0 0 0 .32-.76A1.07 1.07 0 0 0 9 5.31a1.08 1.08 0 0 0-1.84.77h0a2.5 2.5 0 0 0 .74 1.79 2.52 2.52 0 0 0 3.59 0 2.37 2.37 0 0 0 .32-.39 4.72 4.72 0 0 1 0 2.51 2.37 2.37 0 0 0-.32-.39 2.54 2.54 0 0 0-4.33 1.79h0a1.09 1.09 0 0 0 .31.77 1.12 1.12 0 0 0 .77.32 1.07 1.07 0 0 0 .76-.32 1.07 1.07 0 0 0 0-1.53.52.52 0 0 0-.11-.1 1.181 1.181 0 0 1 1.64 1.7 4.91 4.91 0 0 1-3.48 1.45z" fill="#019aed"/><defs ><path id="B" d="M105.432 4.24h-1.164l.012 1.44V10c0 .936.252 1.512.696 1.98.588.624 1.524.9 2.64.9 1.572 0 2.532-.528 2.904-1.032V5.68l.012-1.44h-1.164l.012 1.44v5.712c-.24.216-.84.48-1.764.48-.732 0-1.38-.204-1.764-.612-.312-.324-.432-.816-.432-1.5V5.68l.012-1.44z"/></defs></svg>