<?xml version="1.0" encoding="UTF-8" standalone="no"?>
<svg
   viewBox="0 0 200.57 17.47"
   version="1.1"
   id="svg1122"
   sodipodi:docname="assembly-line-color.svg"
   inkscape:version="1.1 (c4e8f9e, 2021-05-24)"
   xmlns:inkscape="http://www.inkscape.org/namespaces/inkscape"
   xmlns:sodipodi="http://sodipodi.sourceforge.net/DTD/sodipodi-0.dtd"
   xmlns="http://www.w3.org/2000/svg"
   xmlns:svg="http://www.w3.org/2000/svg">
  <sodipodi:namedview
     id="namedview1124"
     pagecolor="#ffffff"
     bordercolor="#111111"
     borderopacity="1"
     inkscape:pageshadow="0"
     inkscape:pageopacity="0"
     inkscape:pagecheckerboard="1"
     showgrid="false"
     inkscape:zoom="5.7087299"
     inkscape:cx="47.90908"
     inkscape:cy="10.860559"
     inkscape:current-layer="development" />
  <defs
     id="defs1100">
    <style
       id="style1098">.cls-1{fill:#f90;}.cls-2{font-size:12px;font-family:Semplicita-Medium, Semplicità;font-weight:500;}.cls-2,.cls-5{fill:#019aed;}.cls-3{letter-spacing:-0.12em;}.cls-4{letter-spacing:-0.08em;}</style>
  </defs>
  <g
     id="Layer_2"
     data-name="Layer 2">
    <g
       id="development">
      <path
         class="cls-1"
         d="m 7.05,2.44 a 6.3,6.3 0 1 1 -6.3,6.3 6.3,6.3 0 0 1 6.3,-6.3 m 0,-0.75 a 7,7 0 1 0 7,7.05 7.05,7.05 0 0 0 -7,-7 z"
         id="path1102" />
      <g
         aria-label="ASSEMBLY OF THE SOUTHPACIFIC"
         transform="translate(25,12.64)"
         id="text1114"
         class="cls-2"
         style="font-weight:500;font-size:12px;font-family:Semplicita-Medium, Semplicità;fill:#019aed">
        <path
           d="M 6.744,-0.84 C 6.852,-0.612 6.996,-0.288 7.116,0 H 8.352 C 8.268,-0.204 7.92,-0.924 7.752,-1.308 L 4.308,-8.856 0.96,-1.308 C 0.792,-0.924 0.456,-0.204 0.36,0 H 1.596 C 1.716,-0.288 1.86,-0.612 1.968,-0.84 L 2.112,-1.176 H 6.588 Z M 2.952,-2.232 c -0.216,0 -0.396,0.048 -0.42,0.072 L 2.508,-2.208 c 0.024,-0.012 0.12,-0.12 0.204,-0.312 l 1.296,-2.916 c 0.228,-0.516 0.288,-0.84 0.288,-0.9 h 0.048 c 0,0.06 0.06,0.384 0.3,0.9 l 1.332,2.916 c 0.108,0.24 0.168,0.3 0.192,0.312 L 6.144,-2.16 C 6.108,-2.184 5.952,-2.232 5.724,-2.232 Z"
           style="font-weight:500;font-size:12px;font-family:Semplicita-Medium, Semplicità;fill:#019aed"
           id="path2008" />
        <path
           d="m 8.86275,-1.44 c 0.432,0.78 1.284,1.584 2.616,1.584 1.548,0 2.52,-0.948 2.52,-2.304 0,-1.344 -1.02,-2.1 -1.956,-2.748 -0.792,-0.552 -1.5,-0.984 -1.5,-1.716 0,-0.492 0.348,-0.912 1.008,-0.912 0.66,0 1.092,0.432 1.392,0.84 l 0.876,-0.66 c -0.468,-0.564 -1.152,-1.188 -2.268,-1.188 -1.272,0 -2.136,0.828 -2.136,1.968 0,1.224 1.02,1.908 1.956,2.568 0.768,0.54 1.488,1.068 1.488,1.944 0,0.66 -0.516,1.176 -1.38,1.176 -0.78,0 -1.332,-0.54 -1.644,-1.08 z"
           style="font-weight:500;font-size:12px;font-family:Semplicita-Medium, Semplicità;fill:#019aed"
           id="path2010" />
        <path
           d="m 14.558063,-1.44 c 0.432,0.78 1.284,1.584 2.616,1.584 1.547999,0 2.519999,-0.948 2.519999,-2.304 0,-1.344 -1.02,-2.1 -1.955999,-2.748 -0.792001,-0.552 -1.500001,-0.984 -1.500001,-1.716 0,-0.492 0.348,-0.912 1.008,-0.912 0.66,0 1.092,0.432 1.392,0.84 l 0.876001,-0.66 c -0.468001,-0.564 -1.152001,-1.188 -2.268001,-1.188 -1.271999,0 -2.135999,0.828 -2.135999,1.968 0,1.224 1.019999,1.908 1.955999,2.568 0.768001,0.54 1.488,1.068 1.488,1.944 0,0.66 -0.516,1.176 -1.379999,1.176 -0.780001,0 -1.332,-0.54 -1.644,-1.08 z"
           style="font-weight:500;font-size:12px;font-family:Semplicita-Medium, Semplicità;fill:#019aed"
           id="path2012" />
        <path
           d="m 20.709375,0 h 3.024 c 0.42,0 1.212,0.012 1.44,0.012 v -1.128 c -0.228,0 -1.02,0.012 -1.44,0.012 h -1.884 v -2.952 h 1.056 c 0.42,0 1.212,0.012 1.44,0.012 v -1.104 c -0.228,0 -1.02,0.012 -1.44,0.012 h -1.056 v -2.208 h 1.644 c 0.42,0 1.212,0.012 1.44,0.012 v -1.08 c -0.228,0 -1.02,0.012 -1.44,0.012 h -2.784 z"
           style="font-weight:500;font-size:12px;font-family:Semplicita-Medium, Semplicità;fill:#019aed"
           id="path2014" />
        <path
           d="m 27.594937,-8.76 -1.428,7.356 c -0.072,0.396 -0.288,1.404 -0.288,1.404 h 1.152 c 0,0 0.132,-0.768 0.204,-1.188 l 0.6,-3.276 c 0.084,-0.468 0.168001,-0.996 0.156,-1.116 l 0.048,-0.012 c 0.036,0.156 0.240001,0.732 0.432001,1.164 l 2.075999,4.716 2.088,-4.68 c 0.192,-0.432 0.408,-1.008 0.444001,-1.164 l 0.048,0.012 c -0.012,0.12 0.024,0.672 0.108,1.14 l 0.612001,3.204 c 0.072,0.396 0.131999,0.804 0.204,1.2 h 1.152 c 0,0 -0.168001,-0.876 -0.276001,-1.416 l -1.475999,-7.344 -2.388001,5.388 c -0.251999,0.576 -0.468,1.2 -0.48,1.332 h -0.048 c -0.012,-0.12 -0.168,-0.672 -0.467999,-1.332 z"
           style="font-weight:500;font-size:12px;font-family:Semplicita-Medium, Semplicità;fill:#019aed"
           id="path2016" />
        <path
           d="m 35.990625,0 h 2.724 c 1.344,0 2.436,-1.092 2.436,-2.436 0,-0.996 -0.636,-1.848 -1.38,-2.04 v -0.048 c 0.564,-0.228 0.936,-0.852 0.936,-1.62 0,-1.248 -1.02,-2.256 -2.268,-2.256 h -2.448 c 0,7.38 0,8.172 0,8.4 z m 2.628,-3.84 c 0.768,0 1.392,0.624 1.392,1.404 0,0.756 -0.624,1.38 -1.392,1.38 h -1.488 V -3.84 Z m 0.984,-2.304 c 0,0.72 -0.576,1.296 -1.284,1.296 h -1.188 v -2.568 h 1.188 c 0.708,0 1.284,0.564 1.284,1.272 z"
           style="font-weight:500;font-size:12px;font-family:Semplicita-Medium, Semplicità;fill:#019aed"
           id="path2018" />
        <path
           d="m 42.219999,0 h 2.292 c 0.42,0 1.212,0.012 1.44,0.012 v -1.08 c -0.228,0 -1.02,0.012 -1.44,0.012 h -1.152 V -6.96 c 0,-0.42 0.012,-1.212 0.012,-1.44 h -1.164 c 0,0.228 0.012,1.02 0.012,1.44 z"
           style="letter-spacing:-0.12em"
           id="path2020" />
        <path
           d="m 47.819998,0 h 1.164 c 0,-0.228 -0.012,-1.02 -0.012,-1.44 v -2.244 l 1.836,-3.24 c 0.288,-0.504 0.564,-0.996 0.852,-1.476 h -1.272 c -0.168,0.3 -0.324,0.6 -0.504,0.912 l -1.092,1.932 c -0.204,0.372 -0.396,0.756 -0.396,0.828 h -0.048 c 0,-0.072 -0.168,-0.456 -0.384,-0.828 l -1.128,-1.92 c -0.192,-0.324 -0.348,-0.612 -0.528,-0.924 h -1.296 c 0.108,0.192 0.696,1.14 0.912,1.5 l 1.908,3.252 v 2.208 c 0,0.42 -0.012,1.212 -0.012,1.44 z"
           id="path2022" />
        <path
           d="m 60.437811,-8.64 c -2.448,0 -4.44,1.992 -4.44,4.44 0,2.448 1.992,4.44 4.44,4.44 2.448,0 4.44,-1.992 4.44,-4.44 0,-2.448 -1.992,-4.44 -4.44,-4.44 z m 0,1.056 c 1.824,0 3.3,1.512 3.3,3.384 0,1.872 -1.476,3.384 -3.3,3.384 -1.824,0 -3.3,-1.512 -3.3,-3.384 0,-1.872 1.476,-3.384 3.3,-3.384 z"
           id="path2024" />
        <path
           d="m 65.961561,-1.44 c 0,0.42 -0.012,1.212 -0.012,1.44 h 1.164 c 0,-0.228 -0.012,-1.02 -0.012,-1.44 v -2.64 h 0.924 c 0.42,0 1.212,0.012 1.44,0.012 v -1.08 c -0.228,0 -1.02,0.012 -1.44,0.012 h -0.924 v -2.232 h 1.548 c 0.42,0 1.212,0.012 1.44,0.012 v -1.056 c -0.228,0 -1.02,0.012 -1.44,0.012 h -2.688 z"
           id="path2026" />
        <path
           d="m 79.252311,-8.412 c -0.228,0 -1.02,0.012 -1.44,0.012 h -2.124 c -0.42,0 -1.212,-0.012 -1.44,-0.012 v 1.08 c 0.228,0 1.02,-0.012 1.44,-0.012 h 0.492 v 5.904 c 0,0.42 -0.012,1.212 -0.012,1.44 h 1.164 c 0,-0.228 -0.012,-1.02 -0.012,-1.44 v -5.904 h 0.492 c 0.42,0 1.212,0.012 1.44,0.012 z"
           id="path2028" />
        <path
           d="m 86.312061,-6.96 c 0,-0.42 0.012,-1.212 0.012,-1.44 h -1.164 c 0,0.228 0.012,1.02 0.012,1.44 v 1.884 h -4.008 V -6.96 c 0,-0.42 0.012,-1.212 0.012,-1.44 h -1.164 c 0,0.228 0.012,1.02 0.012,1.44 v 5.52 c 0,0.42 -0.012,1.212 -0.012,1.44 h 1.164 c 0,-0.228 -0.012,-1.02 -0.012,-1.44 v -2.58 h 4.008 v 2.58 c 0,0.42 -0.012,1.212 -0.012,1.44 h 1.164 c 0,-0.228 -0.012,-1.02 -0.012,-1.44 z"
           id="path2030" />
        <path
           d="m 87.500623,0 h 3.024 c 0.42,0 1.212,0.012 1.44,0.012 v -1.128 c -0.228,0 -1.02,0.012 -1.44,0.012 h -1.884 v -2.952 h 1.056 c 0.42,0 1.212,0.012 1.44,0.012 v -1.104 c -0.228,0 -1.02,0.012 -1.44,0.012 h -1.056 v -2.208 h 1.644 c 0.42,0 1.212,0.012 1.44,0.012 v -1.08 c -0.228,0 -1.02,0.012 -1.44,0.012 h -2.784 z"
           id="path2032" />
        <path
           d="m 96.255561,-1.44 c 0.432,0.78 1.284,1.584 2.616,1.584 1.547999,0 2.519999,-0.948 2.519999,-2.304 0,-1.344 -1.02,-2.1 -1.955999,-2.748 -0.792,-0.552 -1.5,-0.984 -1.5,-1.716 0,-0.492 0.348,-0.912 1.008,-0.912 0.66,0 1.091999,0.432 1.391999,0.84 l 0.876,-0.66 c -0.468,-0.564 -1.152,-1.188 -2.267999,-1.188 -1.272,0 -2.136,0.828 -2.136,1.968 0,1.224 1.02,1.908 1.956,2.568 0.768,0.54 1.487999,1.068 1.487999,1.944 0,0.66 -0.515999,1.176 -1.379999,1.176 -0.78,0 -1.332,-0.54 -1.644,-1.08 z"
           id="path2034" />
        <path
           d="m 106.72687,-8.64 c -2.448,0 -4.44,1.992 -4.44,4.44 0,2.448 1.992,4.44 4.44,4.44 2.448,0 4.44,-1.992 4.44,-4.44 0,-2.448 -1.992,-4.44 -4.44,-4.44 z m 0,1.056 c 1.824,0 3.3,1.512 3.3,3.384 0,1.872 -1.476,3.384 -3.3,3.384 -1.824,0 -3.3,-1.512 -3.3,-3.384 0,-1.872 1.476,-3.384 3.3,-3.384 z"
           id="path2036" />
        <path
           d="m 113.40262,-8.4 h -1.164 c 0,0.228 0.012,1.02 0.012,1.44 v 4.32 c 0,0.936 0.252,1.512 0.696,1.98 0.588,0.624 1.524,0.9 2.64,0.9 1.572,0 2.532,-0.528 2.904,-1.032 V -6.96 c 0,-0.42 0.012,-1.212 0.012,-1.44 h -1.164 c 0,0.228 0.012,1.02 0.012,1.44 v 5.712 c -0.24,0.216 -0.84,0.48 -1.764,0.48 -0.732,0 -1.38,-0.204 -1.764,-0.612 -0.312,-0.324 -0.432,-0.816 -0.432,-1.5 v -4.08 c 0,-0.42 0.012,-1.212 0.012,-1.44 z"
           id="path2038" />
        <path
           d="m 124.25231,-8.412 c -0.228,0 -1.02,0.012 -1.44,0.012 h -2.124 c -0.42,0 -1.212,-0.012 -1.44,-0.012 v 1.08 c 0.228,0 1.02,-0.012 1.44,-0.012 h 0.492 v 5.904 c 0,0.42 -0.012,1.212 -0.012,1.44 h 1.164 c 0,-0.228 -0.012,-1.02 -0.012,-1.44 v -5.904 h 0.492 c 0.42,0 1.212,0.012 1.44,0.012 z"
           id="path2040" />
        <path
           d="m 131.31206,-6.96 c 0,-0.42 0.012,-1.212 0.012,-1.44 h -1.164 c 0,0.228 0.012,1.02 0.012,1.44 v 1.884 h -4.008 V -6.96 c 0,-0.42 0.012,-1.212 0.012,-1.44 h -1.164 c 0,0.228 0.012,1.02 0.012,1.44 v 5.52 c 0,0.42 -0.012,1.212 -0.012,1.44 h 1.164 c 0,-0.228 -0.012,-1.02 -0.012,-1.44 v -2.58 h 4.008 v 2.58 c 0,0.42 -0.012,1.212 -0.012,1.44 h 1.164 c 0,-0.228 -0.012,-1.02 -0.012,-1.44 z"
           id="path2042" />
        <path
           d="m 138.36,-3.432 c 1.392,0 2.52,-1.104 2.52,-2.472 0,-1.38 -1.128,-2.496 -2.52,-2.496 h -2.28 v 6.96 c 0,0.42 -0.012,1.212 -0.012,1.44 h 1.164 c 0,-0.228 -0.012,-1.02 -0.012,-1.44 v -1.992 z m -1.14,-1.008 v -2.976 h 1.092 c 0.804,0 1.464,0.672 1.464,1.512 0,0.804 -0.66,1.464 -1.464,1.464 z"
           style="letter-spacing:-0.12em"
           id="path2044" />
        <path
           d="m 146.434,-0.84 c 0.108,0.228 0.252,0.552 0.372,0.84 h 1.236 c -0.084,-0.204 -0.432,-0.924 -0.6,-1.308 l -3.444,-7.548 -3.348,7.548 c -0.168,0.384 -0.504,1.104 -0.6,1.308 h 1.236 c 0.12,-0.288 0.264,-0.612 0.372,-0.84 l 0.144,-0.336 h 4.476 z m -3.792,-1.392 c -0.216,0 -0.396,0.048 -0.42,0.072 l -0.024,-0.048 c 0.024,-0.012 0.12,-0.12 0.204,-0.312 l 1.296,-2.916 c 0.228,-0.516 0.288,-0.84 0.288,-0.9 h 0.048 c 0,0.06 0.06,0.384 0.3,0.9 l 1.332,2.916 c 0.108,0.24 0.168,0.3 0.192,0.312 l -0.024,0.048 c -0.036,-0.024 -0.192,-0.072 -0.42,-0.072 z"
           style="letter-spacing:-0.08em"
           id="path2046" />
        <path
           d="m 155.006,-1.98 c -0.648,0.708 -1.608,1.164 -2.676,1.164 -1.824,0 -3.3,-1.512 -3.3,-3.384 0,-1.872 1.476,-3.384 3.3,-3.384 1.008,0 1.92,0.468 2.52,1.2 l 0.816,-0.744 c -0.816,-0.924 -2.004,-1.512 -3.336,-1.512 -2.448,0 -4.44,1.992 -4.44,4.44 0,2.448 1.992,4.44 4.44,4.44 1.368,0 2.592,-0.552 3.444,-1.44 z"
           id="path2048" />
        <path
           d="m 156.95675,-8.4 c 0,0.228 0.012,1.02 0.012,1.44 v 5.52 c 0,0.42 -0.012,1.212 -0.012,1.44 h 1.164 c 0,-0.228 -0.012,-1.02 -0.012,-1.44 v -5.52 c 0,-0.42 0.012,-1.212 0.012,-1.44 z"
           id="path2050" />
        <path
           d="m 159.54125,-1.44 c 0,0.42 -0.012,1.212 -0.012,1.44 h 1.164 c 0,-0.228 -0.012,-1.02 -0.012,-1.44 v -2.64 h 0.924 c 0.42,0 1.212,0.012 1.44,0.012 v -1.08 c -0.228,0 -1.02,0.012 -1.44,0.012 h -0.924 v -2.232 h 1.548 c 0.42,0 1.212,0.012 1.44,0.012 v -1.056 c -0.228,0 -1.02,0.012 -1.44,0.012 h -2.688 z"
           id="path2052" />
        <path
           d="m 164.87863,-8.4 c 0,0.228 0.012,1.02 0.012,1.44 v 5.52 c 0,0.42 -0.012,1.212 -0.012,1.44 h 1.164 c 0,-0.228 -0.012,-1.02 -0.012,-1.44 v -5.52 c 0,-0.42 0.012,-1.212 0.012,-1.44 z"
           id="path2054" />
        <path
           d="m 174.45913,-1.98 c -0.648,0.708 -1.608,1.164 -2.676,1.164 -1.824,0 -3.3,-1.512 -3.3,-3.384 0,-1.872 1.476,-3.384 3.3,-3.384 1.008,0 1.92,0.468 2.52,1.2 l 0.816,-0.744 c -0.816,-0.924 -2.004,-1.512 -3.336,-1.512 -2.448,0 -4.44,1.992 -4.44,4.44 0,2.448 1.992,4.44 4.44,4.44 1.368,0 2.592,-0.552 3.444,-1.44 z"
           id="path2056" />
      </g>
      <rect
         class="cls-1"
         x="19.040001"
         width="0.75"
         height="17.469999"
         id="rect1116"
         y="0" />
      <path
         class="cls-5"
         d="M 11.68,13 A 6.291075,6.291075 0 0 0 2.6,4.29 v 0 L 2.43,4.5 A 6.22,6.22 0 0 0 0.75,8.74 6.3,6.3 0 0 0 11.5,13.19 v 0 z M 7.05,13.69 A 4.94,4.94 0 0 1 2.11,8.74 5.15,5.15 0 0 1 2.3,7.37 a 2.43,2.43 0 0 0 2,1.07 h 3.9 a 1.9,1.9 0 0 0 0,-3.8 v 0 a 1.09,1.09 0 1 0 0.53,2 A 0.55,0.55 0 0 1 8.2,7.07 H 4.32 A 1.08,1.08 0 0 1 3.24,6 1,1 0 0 1 3.53,5.27 4.88,4.88 0 0 1 7.05,3.8 4.94,4.94 0 0 1 12,8.74 4.71,4.71 0 0 1 11.8,10.1 2.45,2.45 0 0 0 9.78,9 H 5.89 a 1.9,1.9 0 1 0 0,3.8 A 1.06,1.06 0 0 0 7,11.75 1.07,1.07 0 0 0 6.66,11 1.11,1.11 0 0 0 5.36,10.83 0.54,0.54 0 0 1 5.89,10.4 h 3.89 a 1.07,1.07 0 0 1 0.79,1.8 4.9,4.9 0 0 1 -3.52,1.48 z"
         id="path1118" />
    </g>
  </g>
</svg>
