<svg xmlns="http://www.w3.org/2000/svg" viewBox="0 0 200.57 17.47"><defs><style>.cls-1{fill:#f90;}.cls-2{font-size:12px;font-family:Semplicita-Medium, Semplicità;font-weight:500;}.cls-2,.cls-5{fill:#019aed;}.cls-3{letter-spacing:-0.12em;}.cls-4{letter-spacing:-0.08em;}</style></defs><g id="Layer_2" data-name="Layer 2"><g id="development"><path class="cls-1" d="M7.05,2.44a6.3,6.3,0,1,1-6.3,6.3,6.3,6.3,0,0,1,6.3-6.3m0-.75a7,7,0,1,0,7,7.05,7.05,7.05,0,0,0-7-7Z"/><text class="cls-2" transform="translate(25 12.64)">ASSEMB<tspan class="cls-3" x="41.62" y="0">L</tspan><tspan x="44.76" y="0">Y OF THE SOUTH </tspan><tspan class="cls-3" x="135.48" y="0">P</tspan><tspan class="cls-4" x="139.69" y="0">A</tspan><tspan x="147.41" y="0">CIFIC</tspan></text><rect class="cls-1" x="19.04" width="0.75" height="17.47"/><path class="cls-5" d="M11.68,13A6.29,6.29,0,0,0,2.6,4.29h0l-.17.21A6.22,6.22,0,0,0,.75,8.74,6.3,6.3,0,0,0,11.5,13.19h0Zm-4.63.69A4.94,4.94,0,0,1,2.11,8.74,5.15,5.15,0,0,1,2.3,7.37a2.43,2.43,0,0,0,2,1.07H8.2a1.9,1.9,0,0,0,0-3.8h0a1.09,1.09,0,1,0,.53,2,.55.55,0,0,1-.53.43H4.32A1.08,1.08,0,0,1,3.24,6a1,1,0,0,1,.29-.73A4.88,4.88,0,0,1,7.05,3.8,4.94,4.94,0,0,1,12,8.74a4.71,4.71,0,0,1-.2,1.36A2.45,2.45,0,0,0,9.78,9H5.89a1.9,1.9,0,1,0,0,3.8A1.06,1.06,0,0,0,7,11.75,1.07,1.07,0,0,0,6.66,11a1.11,1.11,0,0,0-1.3-.17.54.54,0,0,1,.53-.43H9.78a1.07,1.07,0,0,1,.79,1.8A4.9,4.9,0,0,1,7.05,13.68Z"/></g></g></svg>