<svg xmlns="http://www.w3.org/2000/svg" xmlns:xlink="http://www.w3.org/1999/xlink" viewBox="0 0 200.57 17.47" xmlns:v="https://vecta.io/nano"><path d="M7.05 2.44a6.3 6.3 0 1 1-6.3 6.3 6.3 6.3 0 0 1 6.3-6.3m0-.75a7 7 0 1 0 7 7.05 7.05 7.05 0 0 0-7-7z" fill="#f90"/><g fill="#019aed"><use xlink:href="#B"/><use xlink:href="#C"/><use xlink:href="#C" x="5.695"/><use xlink:href="#D"/><path d="M52.595 3.88l-1.428 7.356-.288 1.404h1.152l.204-1.188.6-3.276.156-1.116.048-.012c.036.156.24.732.432 1.164l2.076 4.716 2.088-4.68c.192-.432.408-1.008.444-1.164l.048.012c-.012.12.024.672.108 1.14l.612 3.204.204 1.2h1.152l-.276-1.416-1.476-7.344-2.388 5.388c-.252.576-.468 1.2-.48 1.332h-.048c-.012-.12-.168-.672-.468-1.332zm8.396 8.76h2.724a2.44 2.44 0 0 0 2.436-2.436c0-.996-.636-1.848-1.38-2.04v-.048c.564-.228.936-.852.936-1.62 0-1.248-1.02-2.256-2.268-2.256h-2.448v8.4zm2.628-3.84c.768 0 1.392.624 1.392 1.404a1.39 1.39 0 0 1-1.392 1.38h-1.488V8.8zm.984-2.304c0 .72-.576 1.296-1.284 1.296h-1.188V5.224h1.188c.708 0 1.284.564 1.284 1.272zm2.617 6.144h2.292l1.44.012v-1.08l-1.44.012H68.36V5.68l.012-1.44h-1.164l.012 1.44zm5.6 0h1.164l-.012-1.44V8.956l1.836-3.24.852-1.476h-1.272l-.504.912-1.092 1.932c-.204.372-.396.756-.396.828h-.048c0-.072-.168-.456-.384-.828l-1.128-1.92-.528-.924h-1.296l.912 1.5 1.908 3.252V11.2l-.012 1.44zM85.438 4c-2.448 0-4.44 1.992-4.44 4.44s1.992 4.44 4.44 4.44 4.44-1.992 4.44-4.44S87.886 4 85.438 4zm0 1.056c1.824 0 3.3 1.512 3.3 3.384s-1.476 3.384-3.3 3.384-3.3-1.512-3.3-3.384 1.476-3.384 3.3-3.384z"/><use xlink:href="#E"/><use xlink:href="#F"/><use xlink:href="#G"/><use xlink:href="#D" x="66.792"/><use xlink:href="#C" x="87.393"/><path d="M131.727 4c-2.448 0-4.44 1.992-4.44 4.44s1.992 4.44 4.44 4.44 4.44-1.992 4.44-4.44S134.175 4 131.727 4zm0 1.056c1.824 0 3.3 1.512 3.3 3.384s-1.476 3.384-3.3 3.384-3.3-1.512-3.3-3.384 1.476-3.384 3.3-3.384zm6.676-.816h-1.164l.012 1.44V10c0 .936.252 1.512.696 1.98.588.624 1.524.9 2.64.9 1.572 0 2.532-.528 2.904-1.032V5.68l.012-1.44h-1.164l.012 1.44v5.712c-.24.216-.84.48-1.764.48-.732 0-1.38-.204-1.764-.612-.312-.324-.432-.816-.432-1.5V5.68l.012-1.44z"/><use xlink:href="#F" x="45"/><use xlink:href="#G" x="45"/><path d="M163.36 9.208c1.392 0 2.52-1.104 2.52-2.472 0-1.38-1.128-2.496-2.52-2.496h-2.28v6.96l-.012 1.44h1.164l-.012-1.44V9.208zM162.22 8.2V5.224h1.092c.804 0 1.464.672 1.464 1.512a1.47 1.47 0 0 1-1.464 1.464z"/><use xlink:href="#B" x="139.69"/><path d="M180.006 10.66c-.648.708-1.608 1.164-2.676 1.164-1.824 0-3.3-1.512-3.3-3.384s1.476-3.384 3.3-3.384a3.26 3.26 0 0 1 2.52 1.2l.816-.744C179.85 4.588 178.662 4 177.33 4c-2.448 0-4.44 1.992-4.44 4.44s1.992 4.44 4.44 4.44c1.368 0 2.592-.552 3.444-1.44zm1.951-6.42l.012 1.44v5.52l-.012 1.44h1.164l-.012-1.44V5.68l.012-1.44z"/><use xlink:href="#E" x="93.579"/><path d="M189.879 4.24l.012 1.44v5.52l-.012 1.44h1.164l-.012-1.44V5.68l.012-1.44zm9.58 6.42c-.648.708-1.608 1.164-2.676 1.164-1.824 0-3.3-1.512-3.3-3.384s1.476-3.384 3.3-3.384a3.26 3.26 0 0 1 2.52 1.2l.816-.744C199.303 4.588 198.115 4 196.783 4c-2.448 0-4.44 1.992-4.44 4.44s1.992 4.44 4.44 4.44c1.368 0 2.592-.552 3.444-1.44z"/></g><path d="M19.04 0h.75v17.47h-.75z" fill="#f90"/><path d="M11.68 13A6.291 6.291 0 0 0 2.6 4.29h0l-.17.21A6.22 6.22 0 0 0 .75 8.74a6.3 6.3 0 0 0 10.75 4.45h0zm-4.63.69a4.94 4.94 0 0 1-4.94-4.95 5.15 5.15 0 0 1 .19-1.37 2.43 2.43 0 0 0 2 1.07h3.9a1.9 1.9 0 0 0 0-3.8h0a1.09 1.09 0 1 0 .53 2 .55.55 0 0 1-.53.43H4.32A1.08 1.08 0 0 1 3.24 6a1 1 0 0 1 .29-.73A4.88 4.88 0 0 1 7.05 3.8 4.94 4.94 0 0 1 12 8.74a4.71 4.71 0 0 1-.2 1.36A2.45 2.45 0 0 0 9.78 9H5.89a1.9 1.9 0 1 0 0 3.8A1.06 1.06 0 0 0 7 11.75a1.07 1.07 0 0 0-.34-.75 1.11 1.11 0 0 0-1.3-.17.54.54 0 0 1 .53-.43h3.89a1.07 1.07 0 0 1 .79 1.8 4.9 4.9 0 0 1-3.52 1.48z" fill="#019aed"/><defs ><path id="B" d="M31.744 11.8l.372.84h1.236l-.6-1.308-3.444-7.548-3.348 7.548-.6 1.308h1.236l.372-.84.144-.336h4.476zm-3.792-1.392c-.216 0-.396.048-.42.072l-.024-.048c.024-.012.12-.12.204-.312l1.296-2.916c.228-.516.288-.84.288-.9h.048c0 .06.06.384.3.9l1.332 2.916c.108.24.168.3.192.312l-.024.048c-.036-.024-.192-.072-.42-.072z"/><path id="C" d="M33.863 11.2c.432.78 1.284 1.584 2.616 1.584 1.548 0 2.52-.948 2.52-2.304 0-1.344-1.02-2.1-1.956-2.748-.792-.552-1.5-.984-1.5-1.716 0-.492.348-.912 1.008-.912s1.092.432 1.392.84l.876-.66c-.468-.564-1.152-1.188-2.268-1.188-1.272 0-2.136.828-2.136 1.968 0 1.224 1.02 1.908 1.956 2.568.768.54 1.488 1.068 1.488 1.944 0 .66-.516 1.176-1.38 1.176-.78 0-1.332-.54-1.644-1.08z"/><path id="D" d="M45.709 12.64h3.024l1.44.012v-1.128l-1.44.012h-1.884V8.584h1.056l1.44.012V7.492l-1.44.012h-1.056V5.296h1.644l1.44.012v-1.08l-1.44.012h-2.784z"/><path id="E" d="M90.962 11.2l-.012 1.44h1.164l-.012-1.44V8.56h.924l1.44.012v-1.08l-1.44.012h-.924V5.272h1.548l1.44.012V4.228l-1.44.012h-2.688z"/><path id="F" d="M104.252 4.228l-1.44.012h-2.124c-.42 0-1.212-.012-1.44-.012v1.08l1.44-.012h.492V11.2l-.012 1.44h1.164l-.012-1.44V5.296h.492l1.44.012z"/><path id="G" d="M111.312 5.68l.012-1.44h-1.164l.012 1.44v1.884h-4.008V5.68l.012-1.44h-1.164l.012 1.44v5.52l-.012 1.44h1.164l-.012-1.44V8.62h4.008v2.58l-.012 1.44h1.164l-.012-1.44z"/></defs></svg>