<svg xmlns="http://www.w3.org/2000/svg" viewBox="0 0 161.15 69.27"><defs><style>.cls-1{font-size:12px;font-family:Semplicita-Medium, Semplicità;font-weight:500;}.cls-1,.cls-10,.cls-6{fill:#019aed;}.cls-2{letter-spacing:-0.02em;}.cls-3{letter-spacing:-0.1em;}.cls-4{letter-spacing:-0.03em;}.cls-5{letter-spacing:0em;}.cls-6{font-size:7.58px;font-family:Semplicita-Light, Semplicità;font-weight:300;}.cls-7{letter-spacing:-0.07em;}.cls-8{letter-spacing:-0.02em;}.cls-9{fill:#f90;}</style></defs><title>mofa-header_full-color</title><g id="Layer_2" data-name="Layer 2"><g id="final"><g id="mofa"><g id="color-2" data-name="color"><text class="cls-1" transform="translate(0 52.11)">MINIST<tspan class="cls-2" x="35" y="0">R</tspan><tspan x="40.68" y="0">Y OF FOREIGN AF</tspan><tspan class="cls-3" x="134.51" y="0">F</tspan><tspan x="138.37" y="0">A</tspan><tspan class="cls-4" x="147.08" y="0">I</tspan><tspan class="cls-5" x="149.55" y="0">RS</tspan></text><text class="cls-6" transform="translate(50.3 67.51)">THE SOUTH <tspan class="cls-7" x="37.25" y="0">P</tspan><tspan class="cls-8" x="39.9" y="0">A</tspan><tspan x="44.37" y="0">CIFIC</tspan></text><rect class="cls-9" x="40.99" y="56.79" width="79.16" height="0.75"/><polygon class="cls-10" points="82.77 10.24 85.91 6.42 86.52 1.18 83.2 5.38 82.77 10.24"/><polygon class="cls-10" points="84.63 11.49 89.05 9.08 91.56 4.55 86.95 7.12 84.63 11.49"/><polygon class="cls-10" points="80.57 9.81 82.04 5.15 80.57 0 79.1 5.17 80.57 9.81"/><polygon class="cls-10" points="91.48 16.87 96.12 15.55 91.29 14.17 86.31 15.55 91.48 16.87"/><polygon class="cls-10" points="78.38 10.24 77.96 5.4 74.62 1.18 75.24 6.5 78.38 10.24"/><polygon class="cls-10" points="90.07 20.93 94.94 21.5 90.92 18.32 85.88 17.74 90.07 20.93"/><polygon class="cls-10" points="90.92 12.77 94.94 9.6 89.8 10.19 85.88 13.35 90.92 12.77"/><polygon class="cls-10" points="87.32 24.18 91.56 26.54 89.18 22.25 84.63 19.6 87.32 24.18"/><polygon class="cls-10" points="80.57 21.29 79.24 26.41 80.57 38.94 81.9 26.43 80.57 21.29"/><polygon class="cls-10" points="76.51 11.49 74.25 7.15 69.58 4.55 72.15 9.17 76.51 11.49"/><polygon class="cls-10" points="75.27 13.35 71.44 10.2 66.21 9.6 70.27 12.81 75.27 13.35"/><polygon class="cls-10" points="82.77 20.85 83.52 26.11 86.52 29.91 85.96 25.08 82.77 20.85"/><polygon class="cls-10" points="70 14.13 65.03 15.55 69.9 16.93 74.83 15.55 70 14.13"/><polygon class="cls-10" points="75.19 25.05 74.62 29.91 77.64 26.1 78.38 20.85 75.19 25.05"/><polygon class="cls-10" points="70.18 18.35 66.21 21.5 71.15 20.92 75.27 17.74 70.18 18.35"/><polygon class="cls-10" points="72 22.2 69.58 26.54 73.87 24.15 76.51 19.6 72 22.2"/><polygon class="cls-9" points="89.74 16.42 92.83 15.55 89.62 14.63 86.31 15.55 89.74 16.42"/><polygon class="cls-9" points="82.77 10.24 84.86 7.7 85.26 4.22 83.06 7.01 82.77 10.24"/><polygon class="cls-9" points="89.23 12.97 91.89 10.86 88.48 11.25 85.88 13.35 89.23 12.97"/><polygon class="cls-9" points="78.38 10.24 78.1 7.03 75.88 4.22 76.29 7.76 78.38 10.24"/><polygon class="cls-9" points="87.56 9.88 89.24 6.88 86.17 8.59 84.63 11.49 87.56 9.88"/><polygon class="cls-9" points="80.57 9.81 81.55 6.71 80.57 3.29 79.59 6.73 80.57 9.81"/><polygon class="cls-9" points="76.51 11.49 75.01 8.61 71.91 6.88 73.61 9.95 76.51 11.49"/><polygon class="cls-9" points="72.73 11.26 69.25 10.86 71.94 12.99 75.27 13.35 72.73 11.26"/><polygon class="cls-9" points="71.62 14.61 68.32 15.55 71.56 16.47 74.83 15.55 71.62 14.61"/></g></g></g></g></svg>