<svg xmlns="http://www.w3.org/2000/svg" viewBox="0 0 31.09 38.94"><defs><style>.cls-1{fill:#fff;}.cls-2{fill:#f90;}</style></defs><title>mofa-logo-color_white</title><g id="Layer_2" data-name="Layer 2"><g id="final"><g id="mofa"><g id="color"><polygon class="cls-1" points="17.74 10.24 20.89 6.42 21.5 1.18 18.17 5.38 17.74 10.24"/><polygon class="cls-1" points="19.6 11.49 24.02 9.08 26.54 4.55 21.93 7.12 19.6 11.49"/><polygon class="cls-1" points="15.55 9.81 17.01 5.15 15.55 0 14.07 5.17 15.55 9.81"/><polygon class="cls-1" points="26.45 16.87 31.09 15.55 26.26 14.17 21.29 15.55 26.45 16.87"/><polygon class="cls-1" points="13.35 10.24 12.94 5.4 9.6 1.18 10.21 6.5 13.35 10.24"/><polygon class="cls-1" points="25.04 20.93 29.91 21.5 25.9 18.32 20.85 17.74 25.04 20.93"/><polygon class="cls-1" points="25.9 12.77 29.91 9.6 24.77 10.19 20.85 13.35 25.9 12.77"/><polygon class="cls-1" points="22.3 24.18 26.54 26.54 24.15 22.25 19.6 19.6 22.3 24.18"/><polygon class="cls-1" points="15.55 21.29 14.21 26.41 15.54 38.94 16.87 26.43 15.55 21.29"/><polygon class="cls-1" points="11.49 11.49 9.22 7.15 4.55 4.55 7.12 9.17 11.49 11.49"/><polygon class="cls-1" points="10.24 13.35 6.42 10.2 1.18 9.6 5.24 12.81 10.24 13.35"/><polygon class="cls-1" points="17.74 20.85 18.49 26.11 21.5 29.91 20.93 25.08 17.74 20.85"/><polygon class="cls-1" points="4.97 14.13 0 15.55 4.88 16.93 9.81 15.55 4.97 14.13"/><polygon class="cls-1" points="10.16 25.05 9.6 29.91 12.61 26.1 13.35 20.85 10.16 25.05"/><polygon class="cls-1" points="5.15 18.35 1.18 21.5 6.13 20.92 10.24 17.74 5.15 18.35"/><polygon class="cls-1" points="6.97 22.2 4.55 26.54 8.84 24.15 11.49 19.6 6.97 22.2"/><polygon class="cls-2" points="24.72 16.42 27.8 15.55 24.59 14.63 21.29 15.55 24.72 16.42"/><polygon class="cls-2" points="17.74 10.24 19.83 7.7 20.23 4.22 18.03 7.01 17.74 10.24"/><polygon class="cls-2" points="24.2 12.97 26.87 10.86 23.46 11.25 20.85 13.35 24.2 12.97"/><polygon class="cls-2" points="13.35 10.24 13.07 7.03 10.86 4.22 11.27 7.76 13.35 10.24"/><polygon class="cls-2" points="22.54 9.88 24.21 6.88 21.15 8.59 19.6 11.49 22.54 9.88"/><polygon class="cls-2" points="15.55 9.81 16.52 6.71 15.55 3.29 14.57 6.73 15.55 9.81"/><polygon class="cls-2" points="11.49 11.49 9.98 8.61 6.88 6.88 8.59 9.95 11.49 11.49"/><polygon class="cls-2" points="7.7 11.26 4.22 10.86 6.92 12.99 10.24 13.35 7.7 11.26"/><polygon class="cls-2" points="6.6 14.61 3.29 15.55 6.53 16.47 9.81 15.55 6.6 14.61"/></g></g></g></g></svg>