<svg xmlns="http://www.w3.org/2000/svg" viewBox="0 0 51.42 51.42"><defs><style>.cls-1{fill:#019aed;}.cls-2{fill:#fff;}.cls-3{fill:#f90;}</style></defs><title>mofa-emoji</title><g id="Layer_2" data-name="Layer 2"><g id="final"><g id="mofa"><g id="emoji"><rect class="cls-1" width="51.42" height="51.42" rx="11.65"/><polygon class="cls-2" points="28 16.11 31.27 12.13 31.9 6.67 28.45 11.04 28 16.11"/><polygon class="cls-2" points="29.94 17.4 34.53 14.89 37.16 10.18 32.35 12.86 29.94 17.4"/><polygon class="cls-2" points="25.71 15.65 27.24 10.8 25.71 5.44 24.18 10.83 25.71 15.65"/><polygon class="cls-2" points="37.06 23 41.89 21.63 36.87 20.2 31.69 21.63 37.06 23"/><polygon class="cls-2" points="23.43 16.11 22.99 11.06 19.52 6.67 20.16 12.21 23.43 16.11"/><polygon class="cls-2" points="35.59 27.23 40.66 27.82 36.49 24.51 31.23 23.91 35.59 27.23"/><polygon class="cls-2" points="36.49 18.74 40.66 15.43 35.32 16.05 31.23 19.34 36.49 18.74"/><polygon class="cls-2" points="32.74 30.61 37.16 33.07 34.67 28.61 29.94 25.85 32.74 30.61"/><polygon class="cls-2" points="25.71 27.6 24.33 32.94 25.71 45.98 27.09 32.95 25.71 27.6"/><polygon class="cls-2" points="21.49 17.4 19.13 12.89 14.27 10.18 16.94 14.98 21.49 17.4"/><polygon class="cls-2" points="20.19 19.34 16.21 16.07 10.76 15.43 14.98 18.78 20.19 19.34"/><polygon class="cls-2" points="28 27.15 28.77 32.63 31.9 36.58 31.32 31.55 28 27.15"/><polygon class="cls-2" points="14.71 20.15 9.53 21.63 14.6 23.07 19.74 21.63 14.71 20.15"/><polygon class="cls-2" points="20.11 31.52 19.52 36.58 22.66 32.62 23.43 27.15 20.11 31.52"/><polygon class="cls-2" points="14.89 24.55 10.76 27.82 15.91 27.22 20.19 23.91 14.89 24.55"/><polygon class="cls-2" points="16.79 28.55 14.27 33.07 18.73 30.58 21.49 25.85 16.79 28.55"/><polygon class="cls-3" points="35.26 22.54 38.47 21.63 35.13 20.68 31.69 21.63 35.26 22.54"/><polygon class="cls-3" points="28 16.11 30.17 13.46 30.59 9.84 28.3 12.74 28 16.11"/><polygon class="cls-3" points="34.72 18.94 37.5 16.75 33.95 17.16 31.23 19.34 34.72 18.94"/><polygon class="cls-3" points="23.43 16.11 23.14 12.76 20.83 9.84 21.26 13.52 23.43 16.11"/><polygon class="cls-3" points="32.99 15.73 34.73 12.61 31.54 14.38 29.94 17.4 32.99 15.73"/><polygon class="cls-3" points="25.71 15.65 26.72 12.43 25.71 8.87 24.69 12.45 25.71 15.65"/><polygon class="cls-3" points="21.49 17.4 19.92 14.4 16.69 12.61 18.47 15.8 21.49 17.4"/><polygon class="cls-3" points="17.55 17.16 13.93 16.75 16.73 18.97 20.19 19.34 17.55 17.16"/><polygon class="cls-3" points="16.39 20.65 12.96 21.63 16.33 22.59 19.74 21.63 16.39 20.65"/></g></g></g></g></svg>