<svg xmlns="http://www.w3.org/2000/svg" viewBox="0 0 76.53 43.79"><defs><style>.cls-1{fill:#fff;}</style></defs><title>mofa-wordmark-white</title><g id="Layer_2" data-name="Layer 2"><g id="final"><g id="mofa"><g id="color"><polygon class="cls-1" points="41.08 20.85 43.44 17.99 43.89 14.07 41.41 17.21 41.08 20.85"/><polygon class="cls-1" points="42.48 21.79 45.78 19.98 47.67 16.59 44.22 18.52 42.48 21.79"/><polygon class="cls-1" points="39.44 20.53 40.54 17.04 39.44 13.19 38.34 17.06 39.44 20.53"/><polygon class="cls-1" points="47.6 25.81 51.08 24.82 47.46 23.8 43.74 24.82 47.6 25.81"/><polygon class="cls-1" points="37.79 20.85 37.48 17.23 34.98 14.07 35.45 18.05 37.79 20.85"/><polygon class="cls-1" points="46.55 28.86 50.19 29.28 47.19 26.9 43.41 26.47 46.55 28.86"/><polygon class="cls-1" points="47.19 22.75 50.19 20.37 46.35 20.82 43.41 23.18 47.19 22.75"/><polygon class="cls-1" points="44.49 31.29 47.67 33.05 45.88 29.85 42.48 27.86 44.49 31.29"/><polygon class="cls-1" points="39.44 29.12 38.44 32.96 39.44 42.34 40.43 32.97 39.44 29.12"/><polygon class="cls-1" points="36.4 21.79 34.7 18.54 31.21 16.59 33.13 20.05 36.4 21.79"/><polygon class="cls-1" points="35.47 23.18 32.6 20.82 28.68 20.37 31.72 22.77 35.47 23.18"/><polygon class="cls-1" points="41.08 28.8 41.64 32.74 43.89 35.58 43.47 31.96 41.08 28.8"/><polygon class="cls-1" points="31.52 23.77 27.8 24.82 31.45 25.86 35.14 24.82 31.52 23.77"/><polygon class="cls-1" points="35.41 31.94 34.98 35.58 37.24 32.73 37.79 28.8 35.41 31.94"/><polygon class="cls-1" points="31.66 26.93 28.68 29.28 32.39 28.85 35.47 26.47 31.66 26.93"/><polygon class="cls-1" points="33.02 29.81 31.21 33.05 34.42 31.27 36.4 27.86 33.02 29.81"/><polygon class="cls-1" points="46.3 25.48 48.61 24.82 46.21 24.14 43.74 24.82 46.3 25.48"/><polygon class="cls-1" points="41.08 20.85 42.65 18.95 42.95 16.35 41.3 18.43 41.08 20.85"/><polygon class="cls-1" points="45.92 22.89 47.91 21.31 45.36 21.61 43.41 23.18 45.92 22.89"/><polygon class="cls-1" points="37.79 20.85 37.59 18.45 35.93 16.35 36.23 19 37.79 20.85"/><polygon class="cls-1" points="44.67 20.59 45.93 18.34 43.63 19.61 42.48 21.79 44.67 20.59"/><polygon class="cls-1" points="39.44 20.53 40.17 18.21 39.44 15.65 38.71 18.22 39.44 20.53"/><polygon class="cls-1" points="36.4 21.79 35.27 19.63 32.95 18.34 34.23 20.63 36.4 21.79"/><polygon class="cls-1" points="33.57 21.62 30.96 21.31 32.98 22.91 35.47 23.18 33.57 21.62"/><polygon class="cls-1" points="32.74 24.12 30.26 24.82 32.69 25.51 35.14 24.82 32.74 24.12"/><path class="cls-1" d="M3.45,18.29l.17.09a6,6,0,0,1,5.55-3,6,6,0,0,1,5.45,2.94,6.74,6.74,0,0,1,6.06-2.94c4.56,0,7.08,3,7.08,7.29v6.65c0,1.49,0,4.31,0,5.12H23.88c0-.81,0-3.63,0-5.12V23.75a7.22,7.22,0,0,0-.64-3.5,3.27,3.27,0,0,0-3.07-1.66c-2.47,0-4.43,1.58-4.43,5.5v5.2c0,1.49,0,4.31,0,5.12H11.9c0-.81,0-3.63,0-5.12V23.75a6.24,6.24,0,0,0-.77-3.63,3.48,3.48,0,0,0-2.94-1.53c-2.52,0-4.35,2.05-4.35,5.5v5.2c0,1.49,0,4.31,0,5.12H0c0-.81,0-3.63,0-5.12V21c0-1.49,0-4.31,0-5.12H3.67A17.87,17.87,0,0,1,3.45,18.29Z"/><path class="cls-1" d="M58.28,15.82v3.84L55,19.61V38.67c0,1.49,0,4.31,0,5.12H51.08c0-.81,0-3.63,0-5.12V8.1c0-5.16,3.41-8.1,7.76-8.1V3.75C56.66,3.75,55,5.33,55,8.1v7.76C56.19,15.86,57.77,15.82,58.28,15.82Z"/><path class="cls-1" d="M60.59,27.84c0-4,3.36-6.39,7.5-6.39a6.08,6.08,0,0,1,4.86,2l.17-.09a10,10,0,0,1-.38-1.75c-.17-1.79-2-2.73-3.8-2.73a9.71,9.71,0,0,0-5,1.5l-1.53-3.2a13.37,13.37,0,0,1,6.52-1.79c2.82,0,5.5,1.11,6.83,3.41a6.6,6.6,0,0,1,.76,3.37v10.4a14.6,14.6,0,0,1-7.76,2.39C63.87,34.92,60.59,32.06,60.59,27.84ZM72.7,30.4V26.78a5.61,5.61,0,0,0-4.61-2.18c-2,0-3.84,1.24-3.84,3.24,0,2.26,1.75,3.67,4.52,3.67A7.6,7.6,0,0,0,72.7,30.4Z"/></g></g></g></g></svg>