<?xml version="1.0" encoding="UTF-8" standalone="no"?>
<svg
   viewBox="0 0 116.2 17.47"
   version="1.1"
   id="svg1037"
   sodipodi:docname="admin-line-color.svg"
   inkscape:version="1.1 (c4e8f9e, 2021-05-24)"
   xmlns:inkscape="http://www.inkscape.org/namespaces/inkscape"
   xmlns:sodipodi="http://sodipodi.sourceforge.net/DTD/sodipodi-0.dtd"
   xmlns="http://www.w3.org/2000/svg"
   xmlns:svg="http://www.w3.org/2000/svg">
  <sodipodi:namedview
     id="namedview1039"
     pagecolor="#ffffff"
     bordercolor="#111111"
     borderopacity="1"
     inkscape:pageshadow="0"
     inkscape:pageopacity="0"
     inkscape:pagecheckerboard="1"
     showgrid="false"
     inkscape:zoom="9.8537008"
     inkscape:cx="27.756069"
     inkscape:cy="9.9455019"
     inkscape:current-layer="development" />
  <defs
     id="defs1013">
    <style
       id="style1011">.cls-1{fill:#f90;}.cls-2{font-size:12px;font-family:Semplicita-Medium, Semplicità;font-weight:500;}.cls-2,.cls-6{fill:#019aed;}.cls-3{letter-spacing:-0.02em;}.cls-4{letter-spacing:-0.08em;}.cls-5{letter-spacing:-0.02em;}</style>
  </defs>
  <g
     id="Layer_2"
     data-name="Layer 2">
    <g
       id="development">
      <path
         class="cls-1"
         d="m 7.05,2.44 a 6.3,6.3 0 1 1 -6.3,6.3 6.3,6.3 0 0 1 6.3,-6.3 m 0,-0.75 a 7,7 0 1 0 7,7.05 7.05,7.05 0 0 0 -7,-7 z"
         id="path1015" />
      <g
         aria-label="ADMINISTRATION"
         transform="translate(25,12.64)"
         id="text1029"
         class="cls-2"
         style="font-weight:500;font-size:12px;font-family:Semplicita-Medium, Semplicità;fill:#019aed">
        <path
           d="M 6.744,-0.84 C 6.852,-0.612 6.996,-0.288 7.116,0 H 8.352 C 8.268,-0.204 7.92,-0.924 7.752,-1.308 L 4.308,-8.856 0.96,-1.308 C 0.792,-0.924 0.456,-0.204 0.36,0 H 1.596 C 1.716,-0.288 1.86,-0.612 1.968,-0.84 L 2.112,-1.176 H 6.588 Z M 2.952,-2.232 c -0.216,0 -0.396,0.048 -0.42,0.072 L 2.508,-2.208 c 0.024,-0.012 0.12,-0.12 0.204,-0.312 l 1.296,-2.916 c 0.228,-0.516 0.288,-0.84 0.288,-0.9 h 0.048 c 0,0.06 0.06,0.384 0.3,0.9 l 1.332,2.916 c 0.108,0.24 0.168,0.3 0.192,0.312 L 6.144,-2.16 C 6.108,-2.184 5.952,-2.232 5.724,-2.232 Z"
           style="font-weight:500;font-size:12px;font-family:Semplicita-Medium, Semplicità;fill:#019aed"
           id="path2112" />
        <path
           d="m 9.31,0 h 2.58 c 2.256,0 4.08,-1.884 4.08,-4.2 0,-2.316 -1.932,-4.2 -4.32,-4.2 H 9.31 Z m 2.136,-7.368 c 1.872,0 3.384,1.416 3.384,3.168 0,1.74 -1.404,3.144 -3.132,3.144 H 10.45 v -6.312 z"
           style="letter-spacing:-0.02em"
           id="path2114" />
        <path
           d="m 18.103999,-8.76 -1.428,7.356 c -0.072,0.396 -0.288,1.404 -0.288,1.404 h 1.152 c 0,0 0.132,-0.768 0.204,-1.188 l 0.6,-3.276 c 0.084,-0.468 0.168,-0.996 0.156,-1.116 l 0.048,-0.012 c 0.036,0.156 0.24,0.732 0.432,1.164 l 2.076,4.716 2.088,-4.68 c 0.192,-0.432 0.408,-1.008 0.444,-1.164 l 0.048,0.012 c -0.012,0.12 0.024,0.672 0.108,1.14 l 0.612,3.204 c 0.072,0.396 0.132,0.804 0.204,1.2 h 1.152 c 0,0 -0.168,-0.876 -0.276,-1.416 l -1.476,-7.344 -2.388,5.388 c -0.252,0.576 -0.468,1.2 -0.48,1.332 h -0.048 c -0.012,-0.12 -0.168,-0.672 -0.468,-1.332 z"
           id="path2116" />
        <path
           d="m 26.727687,-8.4 c 0,0.228 0.012,1.02 0.012,1.44 v 5.52 c 0,0.42 -0.012,1.212 -0.012,1.44 h 1.164 c 0,-0.228 -0.012,-1.02 -0.012,-1.44 v -5.52 c 0,-0.42 0.012,-1.212 0.012,-1.44 z"
           id="path2118" />
        <path
           d="M 36.764187,0.336 V -6.96 c 0,-0.42 0.012,-1.212 0.012,-1.44 h -1.164 c 0,0.228 0.012,1.02 0.012,1.44 v 3.84 c 0,0.456 0.06,0.768 0.084,0.888 l -0.036,0.024 c -0.24,-0.336 -0.612,-0.708 -0.96,-1.068 l -5.4,-5.46 v 7.296 c 0,0.42 -0.012,1.212 -0.012,1.44 h 1.164 c 0,-0.228 -0.012,-1.02 -0.012,-1.44 v -3.84 c 0,-0.456 -0.06,-0.768 -0.084,-0.888 l 0.036,-0.024 c 0.24,0.336 0.612,0.708 0.96,1.068 z"
           id="path2120" />
        <path
           d="m 38.188624,-8.4 c 0,0.228 0.012,1.02 0.012,1.44 v 5.52 c 0,0.42 -0.012,1.212 -0.012,1.44 h 1.164 c 0,-0.228 -0.012,-1.02 -0.012,-1.44 v -5.52 c 0,-0.42 0.012,-1.212 0.012,-1.44 z"
           id="path2122" />
        <path
           d="m 40.317124,-1.44 c 0.432,0.78 1.284,1.584 2.616,1.584 1.548,0 2.52,-0.948 2.52,-2.304 0,-1.344 -1.02,-2.1 -1.956,-2.748 -0.792,-0.552 -1.5,-0.984 -1.5,-1.716 0,-0.492 0.348,-0.912 1.008,-0.912 0.66,0 1.092,0.432 1.392,0.84 l 0.876,-0.66 c -0.468,-0.564 -1.152,-1.188 -2.268,-1.188 -1.272,0 -2.136,0.828 -2.136,1.968 0,1.224 1.02,1.908 1.956,2.568 0.768,0.54 1.488,1.068 1.488,1.944 0,0.66 -0.516,1.176 -1.38,1.176 -0.78,0 -1.332,-0.54 -1.644,-1.08 z"
           id="path2124" />
        <path
           d="m 51.040437,-8.412 c -0.228,0 -1.02,0.012 -1.44,0.012 h -2.124 c -0.42,0 -1.212,-0.012 -1.44,-0.012 v 1.08 c 0.228,0 1.02,-0.012 1.44,-0.012 h 0.492 v 5.904 c 0,0.42 -0.012,1.212 -0.012,1.44 h 1.164 c 0,-0.228 -0.012,-1.02 -0.012,-1.44 v -5.904 h 0.492 c 0.42,0 1.212,0.012 1.44,0.012 z"
           id="path2126" />
        <path
           d="m 55.676187,0 h 1.248 c 0,0 -0.396,-0.804 -0.624,-1.296 l -1.056,-2.244 c -0.072,-0.156 -0.144,-0.264 -0.204,-0.324 l 0.012,-0.024 c 0.948,-0.228 1.584,-1.128 1.584,-2.184 0,-1.284 -0.924,-2.328 -2.328,-2.328 h -2.496 v 6.96 c 0,0.42 -0.012,1.212 -0.012,1.44 h 1.164 c 0,-0.228 -0.012,-1.02 -0.012,-1.44 v -2.304 h 0.984 l 1.26,2.676 c 0.192,0.396 0.36,0.804 0.48,1.068 z m -1.512,-7.416 c 0.852,0 1.332,0.6 1.332,1.332 0,0.732 -0.48,1.332 -1.332,1.332 h -1.212 v -2.664 z"
           id="path2128" />
        <path
           d="m 63.874001,-0.84 c 0.108,0.228 0.252,0.552 0.372,0.84 h 1.236 c -0.084,-0.204 -0.432,-0.924 -0.6,-1.308 l -3.444,-7.548 -3.348,7.548 c -0.168,0.384 -0.504,1.104 -0.6,1.308 h 1.236 c 0.12,-0.288 0.264,-0.612 0.372,-0.84 l 0.144,-0.336 h 4.476 z m -3.792,-1.392 c -0.216,0 -0.396,0.048 -0.42,0.072 l -0.024,-0.048 c 0.024,-0.012 0.12,-0.12 0.204,-0.312 l 1.296,-2.916 c 0.228,-0.516 0.288,-0.84 0.288,-0.9 h 0.048 c 0,0.06 0.06,0.384 0.3,0.9 l 1.332,2.916 c 0.108,0.24 0.168,0.3 0.192,0.312 l -0.024,0.048 c -0.036,-0.024 -0.192,-0.072 -0.42,-0.072 z"
           style="letter-spacing:-0.08em"
           id="path2130" />
        <path
           d="m 69.992,-8.412 c -0.228,0 -1.02,0.012 -1.44,0.012 h -2.124 c -0.42,0 -1.212,-0.012 -1.44,-0.012 v 1.08 c 0.228,0 1.02,-0.012 1.44,-0.012 h 0.492 v 5.904 c 0,0.42 -0.012,1.212 -0.012,1.44 h 1.164 c 0,-0.228 -0.012,-1.02 -0.012,-1.44 v -5.904 h 0.492 c 0.42,0 1.212,0.012 1.44,0.012 z"
           id="path2132" />
        <path
           d="m 70.988004,-8.4 c 0,0.228 0.012,1.02 0.012,1.44 v 5.52 c 0,0.42 -0.012,1.212 -0.012,1.44 h 1.164 c 0,-0.228 -0.012,-1.02 -0.012,-1.44 v -5.52 c 0,-0.42 0.012,-1.212 0.012,-1.44 z"
           style="letter-spacing:-0.02em"
           id="path2134" />
        <path
           d="m 77.629999,-8.64 c -2.448,0 -4.44,1.992 -4.44,4.44 0,2.448 1.992,4.44 4.44,4.44 2.448,0 4.44,-1.992 4.44,-4.44 0,-2.448 -1.992,-4.44 -4.44,-4.44 z m 0,1.056 c 1.824,0 3.3,1.512 3.3,3.384 0,1.872 -1.476,3.384 -3.3,3.384 -1.824,0 -3.3,-1.512 -3.3,-3.384 0,-1.872 1.476,-3.384 3.3,-3.384 z"
           id="path2136" />
        <path
           d="M 90.605749,0.336 V -6.96 c 0,-0.42 0.012,-1.212 0.012,-1.44 h -1.164 c 0,0.228 0.012,1.02 0.012,1.44 v 3.84 c 0,0.456 0.06,0.768 0.084,0.888 l -0.036,0.024 c -0.24,-0.336 -0.612,-0.708 -0.96,-1.068 l -5.4,-5.46 v 7.296 c 0,0.42 -0.012,1.212 -0.012,1.44 h 1.164 c 0,-0.228 -0.012,-1.02 -0.012,-1.44 v -3.84 c 0,-0.456 -0.06,-0.768 -0.084,-0.888 l 0.036,-0.024 c 0.24,0.336 0.612,0.708 0.96,1.068 z"
           id="path2138" />
      </g>
      <rect
         class="cls-1"
         x="19.040001"
         width="0.75"
         height="17.469999"
         id="rect1031"
         y="0" />
      <path
         class="cls-6"
         d="M 11.5,4.28 A 6.31,6.31 0 1 0 13.34,8.74 6.29,6.29 0 0 0 11.5,4.28 Z M 8,13.58 A 1.33,1.33 0 0 0 8.37,12.65 1.35,1.35 0 0 0 7.02,11.29 1.37,1.37 0 0 0 5.66,12.65 1.38,1.38 0 0 0 6.03,13.58 4.92,4.92 0 0 1 3.52,12.23 L 3.36,12 a 1.45,1.45 0 0 0 0.29,0 1.38,1.38 0 0 0 1,-0.4 1.36,1.36 0 0 0 0,-1.92 1.4,1.4 0 0 0 -1.92,0 A 1.31,1.31 0 0 0 2.4,10.23 5,5 0 0 1 2.15,8.68 5.09,5.09 0 0 1 2.4,7.12 a 1.31,1.31 0 0 0 0.33,0.55 1.33,1.33 0 0 0 1,0.4 1.36,1.36 0 0 0 1,-2.31 A 1.37,1.37 0 0 0 3.48,5.39 L 3.67,5.18 a 4.94,4.94 0 0 1 2.38,-1.28 1.34,1.34 0 0 0 0,1.87 1.31,1.31 0 0 0 1,0.4 A 1.35,1.35 0 0 0 8,3.9 4.9,4.9 0 0 1 10.5,5.24 l 0.19,0.21 A 1.35,1.35 0 0 0 9.45,5.82 v 0 a 1.35,1.35 0 0 0 0,1.91 1.32,1.32 0 0 0 1,0.4 1.36,1.36 0 0 0 1,-0.4 A 1.29,1.29 0 0 0 11.77,7.18 4.82,4.82 0 0 1 12,8.74 4.71,4.71 0 0 1 11.74,10.29 1.29,1.29 0 0 0 11.42,9.74 1.38,1.38 0 1 0 10.73,12 l -0.19,0.21 A 4.92,4.92 0 0 1 8,13.58 Z"
         id="path1033" />
    </g>
  </g>
</svg>
