<svg xmlns="http://www.w3.org/2000/svg" xmlns:xlink="http://www.w3.org/1999/xlink" viewBox="0 0 116.2 17.47" xmlns:v="https://vecta.io/nano"><path d="M7.05 2.44a6.3 6.3 0 1 1-6.3 6.3 6.3 6.3 0 0 1 6.3-6.3m0-.75a7 7 0 1 0 7 7.05 7.05 7.05 0 0 0-7-7z" fill="#f90"/><g fill="#019aed"><use xlink:href="#B"/><path d="M34.31 12.64h2.58c2.256 0 4.08-1.884 4.08-4.2s-1.932-4.2-4.32-4.2h-2.34zm2.136-7.368c1.872 0 3.384 1.416 3.384 3.168 0 1.74-1.404 3.144-3.132 3.144H35.45V5.272zm6.658-1.392l-1.428 7.356-.288 1.404h1.152l.204-1.188.6-3.276.156-1.116.048-.012c.036.156.24.732.432 1.164l2.076 4.716 2.088-4.68c.192-.432.408-1.008.444-1.164l.048.012c-.012.12.024.672.108 1.14l.612 3.204.204 1.2h1.152l-.276-1.416L48.96 3.88l-2.388 5.388c-.252.576-.468 1.2-.48 1.332h-.048c-.012-.12-.168-.672-.468-1.332zm8.624.36l.012 1.44v5.52l-.012 1.44h1.164l-.012-1.44V5.68l.012-1.44z"/><use xlink:href="#C"/><path d="M63.189 4.24l.012 1.44v5.52l-.012 1.44h1.164l-.012-1.44V5.68l.012-1.44zm2.128 6.96c.432.78 1.284 1.584 2.616 1.584 1.548 0 2.52-.948 2.52-2.304 0-1.344-1.02-2.1-1.956-2.748-.792-.552-1.5-.984-1.5-1.716 0-.492.348-.912 1.008-.912s1.092.432 1.392.84l.876-.66c-.468-.564-1.152-1.188-2.268-1.188-1.272 0-2.136.828-2.136 1.968 0 1.224 1.02 1.908 1.956 2.568.768.54 1.488 1.068 1.488 1.944 0 .66-.516 1.176-1.38 1.176-.78 0-1.332-.54-1.644-1.08z"/><use xlink:href="#D"/><path d="M80.676 12.64h1.248l-.624-1.296L80.244 9.1c-.072-.156-.144-.264-.204-.324l.012-.024c.948-.228 1.584-1.128 1.584-2.184 0-1.284-.924-2.328-2.328-2.328h-2.496v6.96l-.012 1.44h1.164l-.012-1.44V8.896h.984l1.26 2.676.48 1.068zm-1.512-7.416c.852 0 1.332.6 1.332 1.332s-.48 1.332-1.332 1.332h-1.212V5.224z"/><use xlink:href="#B" x="57.13"/><use xlink:href="#D" x="18.952"/><path d="M95.988 4.24L96 5.68v5.52l-.012 1.44h1.164l-.012-1.44V5.68l.012-1.44zM102.63 4c-2.448 0-4.44 1.992-4.44 4.44s1.992 4.44 4.44 4.44 4.44-1.992 4.44-4.44S105.078 4 102.63 4zm0 1.056c1.824 0 3.3 1.512 3.3 3.384s-1.476 3.384-3.3 3.384-3.3-1.512-3.3-3.384 1.476-3.384 3.3-3.384z"/><use xlink:href="#C" x="53.842"/></g><path d="M19.04 0h.75v17.47h-.75z" fill="#f90"/><path d="M11.5 4.28a6.31 6.31 0 1 0 1.84 4.46 6.29 6.29 0 0 0-1.84-4.46zM8 13.58a1.33 1.33 0 0 0 .37-.93 1.35 1.35 0 0 0-1.35-1.36 1.37 1.37 0 0 0-1.36 1.36 1.38 1.38 0 0 0 .37.93 4.92 4.92 0 0 1-2.51-1.35L3.36 12a1.45 1.45 0 0 0 .29 0 1.38 1.38 0 0 0 1-.4 1.36 1.36 0 0 0 0-1.92 1.4 1.4 0 0 0-1.92 0 1.31 1.31 0 0 0-.33.55 5 5 0 0 1-.25-1.55 5.09 5.09 0 0 1 .25-1.56 1.31 1.31 0 0 0 .33.55 1.33 1.33 0 0 0 1 .4 1.36 1.36 0 0 0 1-2.31 1.37 1.37 0 0 0-1.25-.37l.19-.21A4.94 4.94 0 0 1 6.05 3.9a1.34 1.34 0 0 0 0 1.87 1.31 1.31 0 0 0 1 .4A1.35 1.35 0 0 0 8 3.9a4.9 4.9 0 0 1 2.5 1.34l.19.21a1.35 1.35 0 0 0-1.24.37h0a1.35 1.35 0 0 0 0 1.91 1.32 1.32 0 0 0 1 .4 1.36 1.36 0 0 0 1-.4 1.29 1.29 0 0 0 .32-.55A4.82 4.82 0 0 1 12 8.74a4.71 4.71 0 0 1-.26 1.55 1.29 1.29 0 0 0-.32-.55 1.38 1.38 0 1 0-.69 2.26l-.19.21A4.92 4.92 0 0 1 8 13.58z" fill="#019aed"/><defs ><path id="B" d="M31.744 11.8l.372.84h1.236l-.6-1.308-3.444-7.548-3.348 7.548-.6 1.308h1.236l.372-.84.144-.336h4.476zm-3.792-1.392c-.216 0-.396.048-.42.072l-.024-.048c.024-.012.12-.12.204-.312l1.296-2.916c.228-.516.288-.84.288-.9h.048c0 .06.06.384.3.9l1.332 2.916c.108.24.168.3.192.312l-.024.048c-.036-.024-.192-.072-.42-.072z"/><path id="C" d="M61.764 12.976V5.68l.012-1.44h-1.164l.012 1.44v3.84c0 .456.06.768.084.888l-.036.024c-.24-.336-.612-.708-.96-1.068l-5.4-5.46V11.2l-.012 1.44h1.164l-.012-1.44V7.36c0-.456-.06-.768-.084-.888l.036-.024c.24.336.612.708.96 1.068z"/><path id="D" d="M76.04 4.228l-1.44.012h-2.124c-.42 0-1.212-.012-1.44-.012v1.08l1.44-.012h.492V11.2l-.012 1.44h1.164l-.012-1.44V5.296h.492l1.44.012z"/></defs></svg>