<svg xmlns="http://www.w3.org/2000/svg" viewBox="0 0 116.2 17.47"><defs><style>.cls-1{fill:#f90;}.cls-2{font-size:12px;font-family:Semplicita-Medium, Semplicità;font-weight:500;}.cls-2,.cls-6{fill:#019aed;}.cls-3{letter-spacing:-0.02em;}.cls-4{letter-spacing:-0.08em;}.cls-5{letter-spacing:-0.02em;}</style></defs><g id="Layer_2" data-name="Layer 2"><g id="development"><path class="cls-1" d="M7.05,2.44a6.3,6.3,0,1,1-6.3,6.3,6.3,6.3,0,0,1,6.3-6.3m0-.75a7,7,0,1,0,7,7.05,7.05,7.05,0,0,0-7-7Z"/><text class="cls-2" transform="translate(25 12.64)">A<tspan class="cls-3" x="8.71" y="0">D</tspan><tspan x="16.22" y="0">MINISTR</tspan><tspan class="cls-4" x="57.13" y="0">A</tspan><tspan x="64.82" y="0">T</tspan><tspan class="cls-5" x="70.16" y="0">I</tspan><tspan x="72.71" y="0">ON</tspan></text><rect class="cls-1" x="19.04" width="0.75" height="17.47"/><path class="cls-6" d="M11.5,4.28a6.31,6.31,0,1,0,1.84,4.46A6.29,6.29,0,0,0,11.5,4.28ZM8,13.58a1.33,1.33,0,0,0,.37-.93,1.35,1.35,0,0,0-1.35-1.36,1.37,1.37,0,0,0-1.36,1.36,1.38,1.38,0,0,0,.37.93,4.92,4.92,0,0,1-2.51-1.35L3.36,12a1.45,1.45,0,0,0,.29,0,1.38,1.38,0,0,0,1-.4,1.36,1.36,0,0,0,0-1.92,1.4,1.4,0,0,0-1.92,0,1.31,1.31,0,0,0-.33.55,5,5,0,0,1-.25-1.55,5.09,5.09,0,0,1,.25-1.56,1.31,1.31,0,0,0,.33.55,1.33,1.33,0,0,0,1,.4,1.36,1.36,0,0,0,1-2.31,1.37,1.37,0,0,0-1.25-.37l.19-.21A4.94,4.94,0,0,1,6.05,3.9a1.34,1.34,0,0,0,0,1.87,1.31,1.31,0,0,0,1,.4A1.35,1.35,0,0,0,8,3.9a4.9,4.9,0,0,1,2.5,1.34l.19.21a1.35,1.35,0,0,0-1.24.37h0a1.35,1.35,0,0,0,0,1.91,1.32,1.32,0,0,0,1,.4,1.36,1.36,0,0,0,1-.4,1.29,1.29,0,0,0,.32-.55A4.82,4.82,0,0,1,12,8.74a4.71,4.71,0,0,1-.26,1.55,1.29,1.29,0,0,0-.32-.55A1.38,1.38,0,1,0,10.73,12l-.19.21A4.92,4.92,0,0,1,8,13.58Z"/></g></g></svg>