<svg xmlns="http://www.w3.org/2000/svg" xmlns:xlink="http://www.w3.org/1999/xlink" viewBox="0 0 169.55 17.47" xmlns:v="https://vecta.io/nano"><path d="M7.05 2.44a6.3 6.3 0 1 1-6.3 6.3 6.3 6.3 0 0 1 6.3-6.3m0-.75a7 7 0 1 0 7 7.05 7.05 7.05 0 0 0-7-7z" fill="#f90"/><g fill="#019aed"><path d="M26.884 3.88l-1.428 7.356-.288 1.404h1.152l.204-1.188.6-3.276.156-1.116.048-.012c.036.156.24.732.432 1.164l2.076 4.716 2.088-4.68c.192-.432.408-1.008.444-1.164l.048.012c-.012.12.024.672.108 1.14l.612 3.204.204 1.2h1.152l-.276-1.416L32.74 3.88l-2.388 5.388c-.252.576-.468 1.2-.48 1.332h-.048c-.012-.12-.168-.672-.468-1.332zm8.624.36l.012 1.44v5.52l-.012 1.44h1.164l-.012-1.44V5.68l.012-1.44z"/><use xlink:href="#B"/><path d="M46.969 4.24l.012 1.44v5.52l-.012 1.44h1.164l-.012-1.44V5.68l.012-1.44zm2.128 6.96c.432.78 1.284 1.584 2.616 1.584 1.548 0 2.52-.948 2.52-2.304 0-1.344-1.02-2.1-1.956-2.748-.792-.552-1.5-.984-1.5-1.716 0-.492.348-.912 1.008-.912s1.092.432 1.392.84l.876-.66c-.468-.564-1.152-1.188-2.268-1.188-1.272 0-2.136.828-2.136 1.968 0 1.224 1.02 1.908 1.956 2.568.768.54 1.488 1.068 1.488 1.944 0 .66-.516 1.176-1.38 1.176-.78 0-1.332-.54-1.644-1.08zM59.82 4.228l-1.44.012h-2.124c-.42 0-1.212-.012-1.44-.012v1.08l1.44-.012h.492V11.2l-.012 1.44H57.9l-.012-1.44V5.296h.492l1.44.012zm4.644 8.412h1.248l-.624-1.296L64.032 9.1c-.072-.156-.144-.264-.204-.324l.012-.024c.948-.228 1.584-1.128 1.584-2.184 0-1.284-.924-2.328-2.328-2.328H60.6v6.96l-.012 1.44h1.164l-.012-1.44V8.896h.984l1.26 2.676.48 1.068zm-1.512-7.416c.852 0 1.332.6 1.332 1.332s-.48 1.332-1.332 1.332H61.74V5.224zm5.788 7.416h1.164l-.012-1.44V8.956l1.836-3.24.852-1.476h-1.272l-.504.912-1.092 1.932c-.204.372-.396.756-.396.828h-.048c0-.072-.168-.456-.384-.828l-1.128-1.92-.528-.924h-1.296l.912 1.5 1.908 3.252V11.2l-.012 1.44zM81.358 4c-2.448 0-4.44 1.992-4.44 4.44s1.992 4.44 4.44 4.44 4.44-1.992 4.44-4.44S83.806 4 81.358 4zm0 1.056c1.824 0 3.3 1.512 3.3 3.384s-1.476 3.384-3.3 3.384-3.3-1.512-3.3-3.384 1.476-3.384 3.3-3.384zm5.524 6.144l-.012 1.44h1.164l-.012-1.44V8.56h.924l1.44.012v-1.08l-1.44.012h-.924V5.272h1.548l1.44.012V4.228l-1.44.012h-2.688zm8.718 1.44h3.024l1.44.012v-1.128l-1.44.012H96.74V8.584h1.056l1.44.012V7.492l-1.44.012H96.74V5.296h1.644l1.44.012v-1.08l-1.44.012H95.6z"/><use xlink:href="#B" x="63.11"/><path d="M116.502 9.976c.204 0 .336-.048.372-.072l.036.048c-.036.024-.144.144-.228.36-.348.852-1.404 1.512-2.532 1.512-1.824 0-3.3-1.512-3.3-3.384s1.476-3.384 3.3-3.384c1.056 0 2.004.552 2.58 1.404l.84-.732C116.778 4.672 115.542 4 114.15 4c-2.448 0-4.44 1.992-4.44 4.44s1.992 4.44 4.44 4.44c2.136 0 3.864-1.596 3.864-3.552 0-.144-.012-.276-.024-.408h-2.532c-.42 0-1.212-.012-1.44-.012v1.08l1.44-.012zm7.992 1.824l.372.84h1.236l-.6-1.308-3.444-7.548-3.348 7.548-.6 1.308h1.236l.372-.84.144-.336h4.476zm-3.792-1.392c-.216 0-.396.048-.42.072l-.024-.048c.024-.012.12-.12.204-.312l1.296-2.916c.228-.516.288-.84.288-.9h.048c0 .06.06.384.3.9l1.332 2.916c.108.24.168.3.192.312l-.024.048c-.036-.024-.192-.072-.42-.072zm12.03-.432c.204 0 .336-.048.372-.072l.036.048c-.036.024-.144.144-.228.36-.348.852-1.404 1.512-2.532 1.512-1.824 0-3.3-1.512-3.3-3.384s1.476-3.384 3.3-3.384c1.056 0 2.004.552 2.58 1.404l.84-.732C133.008 4.672 131.772 4 130.38 4c-2.448 0-4.44 1.992-4.44 4.44s1.992 4.44 4.44 4.44c2.136 0 3.864-1.596 3.864-3.552 0-.144-.012-.276-.024-.408h-2.532c-.42 0-1.212-.012-1.44-.012v1.08l1.44-.012z"/><use xlink:href="#C"/><path d="M142.157 3.88l-1.428 7.356-.288 1.404h1.152l.204-1.188.6-3.276.156-1.116.048-.012c.036.156.24.732.432 1.164l2.076 4.716 2.088-4.68c.192-.432.408-1.008.444-1.164l.048.012c-.012.12.024.672.108 1.14l.612 3.204.204 1.2h1.152l-.276-1.416-1.476-7.344-2.388 5.388c-.252.576-.468 1.2-.48 1.332h-.048c-.012-.12-.168-.672-.468-1.332z"/><use xlink:href="#C" x="15.281"/><use xlink:href="#B" x="118.062"/><path d="M169.374 4.228l-1.44.012h-2.124c-.42 0-1.212-.012-1.44-.012v1.08l1.44-.012h.492V11.2l-.012 1.44h1.164l-.012-1.44V5.296h.492l1.44.012z"/></g><path d="M19.04 0h.75v17.47h-.75z" fill="#f90"/><path d="M13.25 7.65A6.28 6.28 0 0 0 7 2.45h-.1A6.29 6.29 0 0 0 7 15a6.71 6.71 0 0 0 1.1-.09 6.31 6.31 0 0 0 5.12-7.29zm-3.37-3a4.88 4.88 0 0 1 2 3.19A4.56 4.56 0 0 1 12 9a4.59 4.59 0 0 0-1.1-2.24 3.72 3.72 0 0 0-3.1-1.2 2.69 2.69 0 0 0-2.4 2.07 2.19 2.19 0 0 0 .65 2 1.26 1.26 0 0 0 .24.22 1.29 1.29 0 0 0 .77.25h.1a1.49 1.49 0 0 1-1 .51 2.31 2.31 0 0 1-2-.77 3.37 3.37 0 0 1-.66-3.17A3.93 3.93 0 0 1 7 3.8a4.88 4.88 0 0 1 2.88.89zm-5.67 8.13a4.93 4.93 0 0 1-2.1-4.27 4.61 4.61 0 0 0 1.1 2.22A3.76 3.76 0 0 0 6 12h.36a2.7 2.7 0 0 0 2.4-2.08 2.2 2.2 0 0 0-.65-2 1.26 1.26 0 0 0-.24-.22l-.17-.14h0 0a1.35 1.35 0 0 0-.7-.17 1.54 1.54 0 0 1 1-.51 2.34 2.34 0 0 1 2 .78 3.36 3.36 0 0 1 .71 3.15 4 4 0 0 1-3.54 2.87 4.86 4.86 0 0 1-2.96-.9z" fill="#019aed"/><defs ><path id="B" d="M45.544 12.976V5.68l.012-1.44h-1.164l.012 1.44v3.84c0 .456.06.768.084.888l-.036.024c-.24-.336-.612-.708-.96-1.068l-5.4-5.46V11.2l-.012 1.44h1.164l-.012-1.44V7.36c0-.456-.06-.768-.084-.888l.036-.024c.24.336.612.708.96 1.068z"/><path id="C" d="M135.271 12.64h3.024l1.44.012v-1.128l-1.44.012h-1.884V8.584h1.056l1.44.012V7.492l-1.44.012h-1.056V5.296h1.644l1.44.012v-1.08l-1.44.012h-2.784z"/></defs></svg>