<?xml version="1.0" encoding="UTF-8" standalone="no"?>
<svg
   viewBox="0 0 169.55 17.47"
   version="1.1"
   id="svg1454"
   sodipodi:docname="engagement-line-color.svg"
   inkscape:version="1.1 (c4e8f9e, 2021-05-24)"
   xmlns:inkscape="http://www.inkscape.org/namespaces/inkscape"
   xmlns:sodipodi="http://sodipodi.sourceforge.net/DTD/sodipodi-0.dtd"
   xmlns="http://www.w3.org/2000/svg"
   xmlns:svg="http://www.w3.org/2000/svg">
  <sodipodi:namedview
     id="namedview1456"
     pagecolor="#ffffff"
     bordercolor="#111111"
     borderopacity="1"
     inkscape:pageshadow="0"
     inkscape:pageopacity="0"
     inkscape:pagecheckerboard="1"
     showgrid="false"
     inkscape:zoom="6.75317"
     inkscape:cx="40.499499"
     inkscape:cy="10.513581"
     inkscape:current-layer="development" />
  <defs
     id="defs1432">
    <style
       id="style1430">.cls-1{fill:#f90;}.cls-2{font-size:12px;font-family:Semplicita-Medium, Semplicità;font-weight:500;}.cls-2,.cls-7{fill:#019aed;}.cls-3{letter-spacing:-0.02em;}.cls-4{letter-spacing:-0.06em;}.cls-5{letter-spacing:-0.08em;}.cls-6{letter-spacing:0em;}</style>
  </defs>
  <g
     id="Layer_2"
     data-name="Layer 2">
    <g
       id="development">
      <path
         class="cls-1"
         d="m 7.05,2.44 a 6.3,6.3 0 1 1 -6.3,6.3 6.3,6.3 0 0 1 6.3,-6.3 m 0,-0.75 a 7,7 0 1 0 7,7.05 7.05,7.05 0 0 0 -7,-7 z"
         id="path1434" />
      <g
         aria-label="MINISTRY OF ENGAGEMENT"
         transform="translate(25,12.64)"
         id="text1446"
         class="cls-2"
         style="font-weight:500;font-size:12px;font-family:Semplicita-Medium, Semplicità;fill:#019aed">
        <path
           d="M 1.884,-8.76 0.456,-1.404 C 0.384,-1.008 0.168,0 0.168,0 H 1.32 c 0,0 0.132,-0.768 0.204,-1.188 l 0.6,-3.276 C 2.208,-4.932 2.292,-5.46 2.28,-5.58 l 0.048,-0.012 c 0.036,0.156 0.24,0.732 0.432,1.164 l 2.076,4.716 2.088,-4.68 C 7.116,-4.824 7.332,-5.4 7.368,-5.556 l 0.048,0.012 c -0.012,0.12 0.024,0.672 0.108,1.14 L 8.136,-1.2 C 8.208,-0.804 8.268,-0.396 8.34,0 h 1.152 c 0,0 -0.168,-0.876 -0.276,-1.416 L 7.74,-8.76 5.352,-3.372 C 5.1,-2.796 4.884,-2.172 4.872,-2.04 H 4.824 C 4.812,-2.16 4.656,-2.712 4.356,-3.372 Z"
           style="font-weight:500;font-size:12px;font-family:Semplicita-Medium, Semplicità;fill:#019aed"
           id="path1703" />
        <path
           d="m 10.507687,-8.4 c 0,0.228 0.012,1.02 0.012,1.44 v 5.52 c 0,0.42 -0.012,1.212 -0.012,1.44 h 1.164001 c 0,-0.228 -0.012,-1.02 -0.012,-1.44 v -5.52 c 0,-0.42 0.012,-1.212 0.012,-1.44 z"
           style="font-weight:500;font-size:12px;font-family:Semplicita-Medium, Semplicità;fill:#019aed"
           id="path1705" />
        <path
           d="M 20.544187,0.336 V -6.96 c 0,-0.42 0.012,-1.212 0.012,-1.44 h -1.164 c 0,0.228 0.012,1.02 0.012,1.44 v 3.84 c 0,0.456 0.06,0.768 0.084,0.888 l -0.036,0.024 c -0.24,-0.336 -0.612,-0.708 -0.96,-1.068 l -5.399999,-5.46 v 7.296 c 0,0.42 -0.012,1.212 -0.012,1.44 h 1.163999 c 0,-0.228 -0.012,-1.02 -0.012,-1.44 v -3.84 c 0,-0.456 -0.06,-0.768 -0.084,-0.888 l 0.036,-0.024 c 0.24,0.336 0.612,0.708 0.96,1.068 z"
           style="font-weight:500;font-size:12px;font-family:Semplicita-Medium, Semplicità;fill:#019aed"
           id="path1707" />
        <path
           d="m 21.968625,-8.4 c 0,0.228 0.012,1.02 0.012,1.44 v 5.52 c 0,0.42 -0.012,1.212 -0.012,1.44 h 1.164 c 0,-0.228 -0.012,-1.02 -0.012,-1.44 v -5.52 c 0,-0.42 0.012,-1.212 0.012,-1.44 z"
           style="font-weight:500;font-size:12px;font-family:Semplicita-Medium, Semplicità;fill:#019aed"
           id="path1709" />
        <path
           d="m 24.097125,-1.44 c 0.432,0.78 1.284,1.584 2.616,1.584 1.548,0 2.52,-0.948 2.52,-2.304 0,-1.344 -1.02,-2.1 -1.956,-2.748 -0.792,-0.552 -1.5,-0.984 -1.5,-1.716 0,-0.492 0.348,-0.912 1.008,-0.912 0.66,0 1.092,0.432 1.392,0.84 l 0.876,-0.66 c -0.468,-0.564 -1.152,-1.188 -2.268,-1.188 -1.272,0 -2.136,0.828 -2.136,1.968 0,1.224 1.02,1.908 1.956,2.568 0.768,0.54 1.488,1.068 1.488,1.944 0,0.66 -0.516,1.176 -1.38,1.176 -0.78,0 -1.332,-0.54 -1.644,-1.08 z"
           style="font-weight:500;font-size:12px;font-family:Semplicita-Medium, Semplicità;fill:#019aed"
           id="path1711" />
        <path
           d="m 34.820437,-8.412 c -0.227999,0 -1.02,0.012 -1.44,0.012 h -2.124 c -0.42,0 -1.212,-0.012 -1.44,-0.012 v 1.08 c 0.228,0 1.02,-0.012 1.44,-0.012 h 0.492001 v 5.904 c 0,0.42 -0.012,1.212 -0.012,1.44 h 1.164001 c 0,-0.228 -0.012,-1.02 -0.012,-1.44 v -5.904 h 0.491999 c 0.42,0 1.212001,0.012 1.44,0.012 z"
           style="font-weight:500;font-size:12px;font-family:Semplicita-Medium, Semplicità;fill:#019aed"
           id="path1713" />
        <path
           d="m 39.464,0 h 1.248 c 0,0 -0.396,-0.804 -0.624,-1.296 L 39.032,-3.54 C 38.96,-3.696 38.888,-3.804 38.828,-3.864 l 0.012,-0.024 c 0.948,-0.228 1.584,-1.128 1.584,-2.184 0,-1.284 -0.924,-2.328 -2.328,-2.328 H 35.6 v 6.96 c 0,0.42 -0.012,1.212 -0.012,1.44 h 1.164 c 0,-0.228 -0.012,-1.02 -0.012,-1.44 v -2.304 h 0.984 l 1.26,2.676 c 0.192,0.396 0.36,0.804 0.48,1.068 z m -1.512,-7.416 c 0.852,0 1.332,0.6 1.332,1.332 0,0.732 -0.48,1.332 -1.332,1.332 H 36.74 v -2.664 z"
           style="letter-spacing:-0.02em"
           id="path1715" />
        <path
           d="m 43.74,0 h 1.164 c 0,-0.228 -0.012,-1.02 -0.012,-1.44 v -2.244 l 1.836,-3.24 C 47.016,-7.428 47.292,-7.92 47.58,-8.4 h -1.272 c -0.168,0.3 -0.324,0.6 -0.504,0.912 l -1.092,1.932 c -0.204,0.372 -0.396,0.756 -0.396,0.828 h -0.048 c 0,-0.072 -0.168,-0.456 -0.384,-0.828 l -1.128,-1.92 C 42.564,-7.8 42.408,-8.088 42.228,-8.4 h -1.296 c 0.108,0.192 0.696,1.14 0.912,1.5 l 1.908,3.252 v 2.208 c 0,0.42 -0.012,1.212 -0.012,1.44 z"
           id="path1717" />
        <path
           d="m 56.357813,-8.64 c -2.448,0 -4.44,1.992 -4.44,4.44 0,2.448 1.992,4.44 4.44,4.44 2.448,0 4.44,-1.992 4.44,-4.44 0,-2.448 -1.992,-4.44 -4.44,-4.44 z m 0,1.056 c 1.824,0 3.3,1.512 3.3,3.384 0,1.872 -1.476,3.384 -3.3,3.384 -1.824,0 -3.3,-1.512 -3.3,-3.384 0,-1.872 1.476,-3.384 3.3,-3.384 z"
           id="path1719" />
        <path
           d="m 61.881563,-1.44 c 0,0.42 -0.012,1.212 -0.012,1.44 h 1.164 c 0,-0.228 -0.012,-1.02 -0.012,-1.44 v -2.64 h 0.924 c 0.42,0 1.212,0.012 1.44,0.012 v -1.08 c -0.228,0 -1.02,0.012 -1.44,0.012 h -0.924 v -2.232 h 1.548 c 0.42,0 1.212,0.012 1.44,0.012 v -1.056 c -0.228,0 -1.02,0.012 -1.44,0.012 h -2.688 z"
           id="path1721" />
        <path
           d="m 70.600313,0 h 3.024 c 0.42,0 1.212,0.012 1.44,0.012 v -1.128 c -0.228,0 -1.02,0.012 -1.44,0.012 h -1.884 v -2.952 h 1.056 c 0.42,0 1.212,0.012 1.44,0.012 v -1.104 c -0.228,0 -1.02,0.012 -1.44,0.012 h -1.056 v -2.208 h 1.644 c 0.42,0 1.212,0.012 1.44,0.012 v -1.08 c -0.228,0 -1.02,0.012 -1.44,0.012 h -2.784 z"
           id="path1723" />
        <path
           d="M 83.653875,0.336 V -6.96 c 0,-0.42 0.012,-1.212 0.012,-1.44 h -1.164 c 0,0.228 0.012,1.02 0.012,1.44 v 3.84 c 0,0.456 0.06,0.768 0.084,0.888 l -0.036,0.024 c -0.24,-0.336 -0.612,-0.708 -0.96,-1.068 l -5.4,-5.46 v 7.296 c 0,0.42 -0.012,1.212 -0.012,1.44 h 1.164 c 0,-0.228 -0.012,-1.02 -0.012,-1.44 v -3.84 c 0,-0.456 -0.06,-0.768 -0.084,-0.888 l 0.036,-0.024 c 0.24,0.336 0.612,0.708 0.96,1.068 z"
           id="path1725" />
        <path
           d="m 91.502003,-2.664 c 0.204,0 0.336,-0.048 0.372,-0.072 l 0.036,0.048 c -0.036,0.024 -0.144,0.144 -0.228,0.36 -0.348,0.852 -1.404,1.512 -2.532,1.512 -1.824,0 -3.3,-1.512 -3.3,-3.384 0,-1.872 1.476,-3.384 3.3,-3.384 1.056,0 2.004,0.552 2.58,1.404 l 0.84,-0.732 c -0.792,-1.056 -2.028,-1.728 -3.42,-1.728 -2.448,0 -4.44,1.992 -4.44,4.44 0,2.448 1.992,4.44 4.44,4.44 2.136,0 3.864,-1.596 3.864,-3.552 0,-0.144 -0.012,-0.276 -0.024,-0.408 h -2.532 c -0.42,0 -1.212,-0.012 -1.44,-0.012 v 1.08 c 0.228,0 1.02,-0.012 1.44,-0.012 z"
           style="letter-spacing:-0.06em"
           id="path1727" />
        <path
           d="m 99.494,-0.84 c 0.108,0.228 0.252,0.552 0.372,0.84 h 1.236 c -0.084,-0.204 -0.432,-0.924 -0.6,-1.308 L 97.058,-8.856 93.71,-1.308 C 93.542,-0.924 93.206,-0.204 93.11,0 h 1.236 c 0.12,-0.288 0.264,-0.612 0.372,-0.84 l 0.144,-0.336 h 4.476 z m -3.792,-1.392 c -0.216,0 -0.396,0.048 -0.42,0.072 l -0.024,-0.048 c 0.024,-0.012 0.12,-0.12 0.204,-0.312 l 1.296,-2.916 c 0.228,-0.516 0.288,-0.84 0.288,-0.9 h 0.048 c 0,0.06 0.06,0.384 0.3,0.9 l 1.332,2.916 c 0.108,0.24 0.168,0.3 0.192,0.312 l -0.024,0.048 c -0.036,-0.024 -0.192,-0.072 -0.42,-0.072 z"
           style="letter-spacing:-0.08em"
           id="path1729" />
        <path
           d="m 107.732,-2.664 c 0.204,0 0.336,-0.048 0.372,-0.072 l 0.036,0.048 c -0.036,0.024 -0.144,0.144 -0.228,0.36 -0.348,0.852 -1.404,1.512 -2.532,1.512 -1.824,0 -3.3,-1.512 -3.3,-3.384 0,-1.872 1.476,-3.384 3.3,-3.384 1.056,0 2.004,0.552 2.58,1.404 l 0.84,-0.732 c -0.792,-1.056 -2.028,-1.728 -3.42,-1.728 -2.448,0 -4.44,1.992 -4.44,4.44 0,2.448 1.992,4.44 4.44,4.44 2.136,0 3.864,-1.596 3.864,-3.552 0,-0.144 -0.012,-0.276 -0.024,-0.408 h -2.532 c -0.42,0 -1.212,-0.012 -1.44,-0.012 v 1.08 c 0.228,0 1.02,-0.012 1.44,-0.012 z"
           style="letter-spacing:0em"
           id="path1731" />
        <path
           d="m 110.27094,0 h 3.024 c 0.42,0 1.212,0.012 1.44,0.012 v -1.128 c -0.228,0 -1.02,0.012 -1.44,0.012 h -1.884 v -2.952 h 1.056 c 0.42,0 1.212,0.012 1.44,0.012 v -1.104 c -0.228,0 -1.02,0.012 -1.44,0.012 h -1.056 v -2.208 h 1.644 c 0.42,0 1.212,0.012 1.44,0.012 v -1.08 c -0.228,0 -1.02,0.012 -1.44,0.012 h -2.784 z"
           style="letter-spacing:0em"
           id="path1733" />
        <path
           d="m 117.1565,-8.76 -1.428,7.356 C 115.6565,-1.008 115.4405,0 115.4405,0 h 1.152 c 0,0 0.132,-0.768 0.204,-1.188 l 0.6,-3.276 c 0.084,-0.468 0.168,-0.996 0.156,-1.116 l 0.048,-0.012 c 0.036,0.156 0.24,0.732 0.432,1.164 l 2.076,4.716 2.088,-4.68 c 0.192,-0.432 0.408,-1.008 0.444,-1.164 l 0.048,0.012 c -0.012,0.12 0.024,0.672 0.108,1.14 l 0.612,3.204 c 0.072,0.396 0.132,0.804 0.204,1.2 h 1.152 c 0,0 -0.168,-0.876 -0.276,-1.416 l -1.476,-7.344 -2.388,5.388 c -0.252,0.576 -0.468,1.2 -0.48,1.332 h -0.048 c -0.012,-0.12 -0.168,-0.672 -0.468,-1.332 z"
           style="letter-spacing:0em"
           id="path1735" />
        <path
           d="m 125.55219,0 h 3.024 c 0.42,0 1.212,0.012 1.44,0.012 v -1.128 c -0.228,0 -1.02,0.012 -1.44,0.012 h -1.884 v -2.952 h 1.056 c 0.42,0 1.212,0.012 1.44,0.012 v -1.104 c -0.228,0 -1.02,0.012 -1.44,0.012 h -1.056 v -2.208 h 1.644 c 0.42,0 1.212,0.012 1.44,0.012 v -1.08 c -0.228,0 -1.02,0.012 -1.44,0.012 h -2.784 z"
           style="letter-spacing:0em"
           id="path1737" />
        <path
           d="M 138.60575,0.336 V -6.96 c 0,-0.42 0.012,-1.212 0.012,-1.44 h -1.164 c 0,0.228 0.012,1.02 0.012,1.44 v 3.84 c 0,0.456 0.06,0.768 0.084,0.888 l -0.036,0.024 c -0.24,-0.336 -0.612,-0.708 -0.96,-1.068 l -5.4,-5.46 v 7.296 c 0,0.42 -0.012,1.212 -0.012,1.44 h 1.164 c 0,-0.228 -0.012,-1.02 -0.012,-1.44 v -3.84 c 0,-0.456 -0.06,-0.768 -0.084,-0.888 l 0.036,-0.024 c 0.24,0.336 0.612,0.708 0.96,1.068 z"
           style="letter-spacing:0em"
           id="path1739" />
        <path
           d="m 144.37419,-8.412 c -0.228,0 -1.02,0.012 -1.44,0.012 h -2.124 c -0.42,0 -1.212,-0.012 -1.44,-0.012 v 1.08 c 0.228,0 1.02,-0.012 1.44,-0.012 h 0.492 v 5.904 c 0,0.42 -0.012,1.212 -0.012,1.44 h 1.164 c 0,-0.228 -0.012,-1.02 -0.012,-1.44 v -5.904 h 0.492 c 0.42,0 1.212,0.012 1.44,0.012 z"
           style="letter-spacing:0em"
           id="path1741" />
      </g>
      <rect
         class="cls-1"
         x="19.040001"
         width="0.75"
         height="17.469999"
         id="rect1448"
         y="0" />
      <path
         class="cls-7"
         d="M 13.25,7.65 A 6.28,6.28 0 0 0 7,2.45 H 6.9 A 6.29,6.29 0 0 0 7,15 6.71,6.71 0 0 0 8.1,14.91 6.31,6.31 0 0 0 13.22,7.62 Z m -3.37,-3 a 4.88,4.88 0 0 1 2,3.19 A 4.56,4.56 0 0 1 12,9 4.59,4.59 0 0 0 10.9,6.76 3.72,3.72 0 0 0 7.8,5.56 2.69,2.69 0 0 0 5.4,7.63 a 2.19,2.19 0 0 0 0.65,2 1.26,1.26 0 0 0 0.24,0.22 1.29,1.29 0 0 0 0.77,0.25 h 0.1 a 1.49,1.49 0 0 1 -1,0.51 2.31,2.31 0 0 1 -2,-0.77 A 3.37,3.37 0 0 1 3.5,6.67 3.93,3.93 0 0 1 7,3.8 4.88,4.88 0 0 1 9.88,4.69 Z M 4.21,12.78 A 4.93,4.93 0 0 1 2.11,8.51 4.61,4.61 0 0 0 3.21,10.73 3.76,3.76 0 0 0 6,12 H 6.36 A 2.7,2.7 0 0 0 8.76,9.92 2.2,2.2 0 0 0 8.11,7.92 1.26,1.26 0 0 0 7.87,7.7 L 7.7,7.56 v 0 0 A 1.35,1.35 0 0 0 7,7.39 1.54,1.54 0 0 1 8,6.88 a 2.34,2.34 0 0 1 2,0.78 3.36,3.36 0 0 1 0.71,3.15 4,4 0 0 1 -3.54,2.87 4.86,4.86 0 0 1 -2.96,-0.9 z"
         id="path1450" />
    </g>
  </g>
</svg>
