<svg xmlns="http://www.w3.org/2000/svg" viewBox="0 0 169.55 17.47"><defs><style>.cls-1{fill:#f90;}.cls-2{font-size:12px;font-family:Semplicita-Medium, Semplicità;font-weight:500;}.cls-2,.cls-7{fill:#019aed;}.cls-3{letter-spacing:-0.02em;}.cls-4{letter-spacing:-0.06em;}.cls-5{letter-spacing:-0.08em;}.cls-6{letter-spacing:0em;}</style></defs><g id="Layer_2" data-name="Layer 2"><g id="development"><path class="cls-1" d="M7.05,2.44a6.3,6.3,0,1,1-6.3,6.3,6.3,6.3,0,0,1,6.3-6.3m0-.75a7,7,0,1,0,7,7.05,7.05,7.05,0,0,0-7-7Z"/><text class="cls-2" transform="translate(25 12.64)">MINIST<tspan class="cls-3" x="35" y="0">R</tspan><tspan x="40.68" y="0">Y OF EN</tspan><tspan class="cls-4" x="84.23" y="0">G</tspan><tspan class="cls-5" x="92.75" y="0">A</tspan><tspan class="cls-6" x="100.46" y="0">GEMENT</tspan></text><rect class="cls-1" x="19.04" width="0.75" height="17.47"/><path class="cls-7" d="M13.25,7.65A6.28,6.28,0,0,0,7,2.45H6.9A6.29,6.29,0,0,0,7,15a6.71,6.71,0,0,0,1.1-.09,6.31,6.31,0,0,0,5.12-7.29Zm-3.37-3a4.88,4.88,0,0,1,2,3.19A4.56,4.56,0,0,1,12,9a4.59,4.59,0,0,0-1.1-2.24,3.72,3.72,0,0,0-3.1-1.2,2.69,2.69,0,0,0-2.4,2.07,2.19,2.19,0,0,0,.65,2,1.26,1.26,0,0,0,.24.22,1.29,1.29,0,0,0,.77.25h.1a1.49,1.49,0,0,1-1,.51,2.31,2.31,0,0,1-2-.77A3.37,3.37,0,0,1,3.5,6.67,3.93,3.93,0,0,1,7,3.8,4.88,4.88,0,0,1,9.88,4.69ZM4.21,12.78a4.93,4.93,0,0,1-2.1-4.27,4.61,4.61,0,0,0,1.1,2.22A3.76,3.76,0,0,0,6,12l.36,0a2.7,2.7,0,0,0,2.4-2.08,2.2,2.2,0,0,0-.65-2,1.26,1.26,0,0,0-.24-.22L7.7,7.56l0,0h0A1.35,1.35,0,0,0,7,7.39a1.54,1.54,0,0,1,1-.51,2.34,2.34,0,0,1,2,.78,3.36,3.36,0,0,1,.71,3.15,4,4,0,0,1-3.54,2.87A4.86,4.86,0,0,1,4.21,12.78Z"/></g></g></svg>