<svg xmlns="http://www.w3.org/2000/svg" viewBox="0 0 194.54 25.78"><defs><style>.cls-1{font-size:12px;font-family:Semplicita-Medium, Semplicità;font-weight:500;}.cls-1,.cls-6{fill:#fff;}.cls-2{letter-spacing:-0.02em;}.cls-3{letter-spacing:-0.1em;}.cls-4{letter-spacing:-0.03em;}.cls-5{letter-spacing:0em;}.cls-7{fill:#f90;}</style></defs><title>mofa-header_line-color_white</title><g id="Layer_2" data-name="Layer 2"><g id="final"><g id="mofa"><g id="color"><g id="_Group_" data-name="&lt;Group&gt;"><text class="cls-1" transform="translate(33.39 16.17)">MINIST<tspan class="cls-2" x="35" y="0">R</tspan><tspan x="40.68" y="0">Y OF FOREIGN AF</tspan><tspan class="cls-3" x="134.51" y="0">F</tspan><tspan x="138.37" y="0">A</tspan><tspan class="cls-4" x="147.08" y="0">I</tspan><tspan class="cls-5" x="149.55" y="0">RS</tspan></text><polygon class="cls-6" points="11.75 6.78 13.83 4.25 14.23 0.78 12.03 3.56 11.75 6.78"/><polygon class="cls-6" points="12.98 7.61 15.9 6.01 17.57 3.02 14.52 4.72 12.98 7.61"/><polygon class="cls-6" points="10.29 6.49 11.26 3.41 10.29 0 9.32 3.42 10.29 6.49"/><polygon class="cls-6" points="17.51 11.17 20.59 10.29 17.39 9.38 14.09 10.29 17.51 11.17"/><polygon class="cls-6" points="8.84 6.78 8.56 3.57 6.35 0.78 6.76 4.31 8.84 6.78"/><polygon class="cls-6" points="16.58 13.86 19.8 14.23 17.15 12.13 13.8 11.75 16.58 13.86"/><polygon class="cls-6" points="17.15 8.46 19.8 6.35 16.4 6.75 13.8 8.84 17.15 8.46"/><polygon class="cls-6" points="14.76 16.01 17.57 17.57 15.99 14.73 12.98 12.98 14.76 16.01"/><polygon class="cls-6" points="10.29 14.09 9.41 17.49 10.29 25.78 11.17 17.5 10.29 14.09"/><polygon class="cls-6" points="7.61 7.61 6.11 4.74 3.02 3.02 4.72 6.07 7.61 7.61"/><polygon class="cls-6" points="6.78 8.84 4.25 6.76 0.78 6.35 3.47 8.48 6.78 8.84"/><polygon class="cls-6" points="11.75 13.8 12.24 17.29 14.23 19.8 13.86 16.6 11.75 13.8"/><polygon class="cls-6" points="3.29 9.36 0 10.29 3.23 11.21 6.49 10.29 3.29 9.36"/><polygon class="cls-6" points="6.73 16.58 6.35 19.8 8.35 17.28 8.84 13.8 6.73 16.58"/><polygon class="cls-6" points="3.41 12.15 0.78 14.23 4.06 13.85 6.78 11.75 3.41 12.15"/><polygon class="cls-6" points="4.62 14.7 3.02 17.57 5.86 15.99 7.61 12.98 4.62 14.7"/><polygon class="cls-7" points="16.36 10.87 18.41 10.29 16.28 9.69 14.09 10.29 16.36 10.87"/><polygon class="cls-7" points="11.75 6.78 13.13 5.1 13.4 2.8 11.94 4.64 11.75 6.78"/><polygon class="cls-7" points="16.02 8.59 17.79 7.19 15.53 7.45 13.8 8.84 16.02 8.59"/><polygon class="cls-7" points="8.84 6.78 8.66 4.65 7.19 2.8 7.46 5.14 8.84 6.78"/><polygon class="cls-7" points="14.92 6.54 16.03 4.56 14 5.69 12.98 7.61 14.92 6.54"/><polygon class="cls-7" points="10.29 6.49 10.94 4.44 10.29 2.18 9.65 4.45 10.29 6.49"/><polygon class="cls-7" points="7.61 7.61 6.61 5.7 4.56 4.56 5.69 6.58 7.61 7.61"/><polygon class="cls-7" points="5.1 7.46 2.8 7.19 4.58 8.6 6.78 8.84 5.1 7.46"/><polygon class="cls-7" points="4.37 9.67 2.18 10.29 4.32 10.9 6.49 10.29 4.37 9.67"/><rect class="cls-7" x="25.31" y="3.15" width="0.75" height="17.47"/></g></g></g></g></g></svg>