<svg xmlns="http://www.w3.org/2000/svg" viewBox="0 0 51.42 51.42"><defs><style>.cls-1{fill:#019aed;}.cls-2{fill:#fff;}.cls-3{fill:#f90;}</style></defs><title>mofa-discord</title><g id="Layer_2" data-name="Layer 2"><g id="final"><g id="mofa"><g id="discord-2" data-name="discord"><rect class="cls-1" width="51.42" height="51.42"/><polygon class="cls-2" points="27.33 24.1 28.69 22.45 28.95 20.2 27.52 22 27.33 24.1"/><polygon class="cls-2" points="28.13 24.64 30.04 23.6 31.12 21.65 29.13 22.75 28.13 24.64"/><polygon class="cls-2" points="26.39 23.91 27.02 21.91 26.39 19.69 25.75 21.91 26.39 23.91"/><polygon class="cls-2" points="31.08 26.95 33.08 26.38 31 25.79 28.86 26.38 31.08 26.95"/><polygon class="cls-2" points="25.44 24.1 25.26 22.01 23.82 20.2 24.09 22.49 25.44 24.1"/><polygon class="cls-2" points="30.48 28.7 32.57 28.95 30.84 27.58 28.67 27.33 30.48 28.7"/><polygon class="cls-2" points="30.84 25.19 32.57 23.82 30.36 24.08 28.67 25.44 30.84 25.19"/><polygon class="cls-2" points="29.29 30.1 31.12 31.12 30.09 29.27 28.13 28.13 29.29 30.1"/><polygon class="cls-2" points="26.39 28.86 25.81 31.06 26.39 36.46 26.96 31.07 26.39 28.86"/><polygon class="cls-2" points="24.64 24.64 23.66 22.77 21.65 21.65 22.76 23.64 24.64 24.64"/><polygon class="cls-2" points="24.1 25.44 22.45 24.08 20.2 23.82 21.95 25.2 24.1 25.44"/><polygon class="cls-2" points="27.33 28.67 27.65 30.93 28.95 32.57 28.71 30.49 27.33 28.67"/><polygon class="cls-2" points="21.83 25.77 19.69 26.38 21.79 26.98 23.91 26.38 21.83 25.77"/><polygon class="cls-2" points="24.07 30.48 23.82 32.57 25.12 30.93 25.44 28.67 24.07 30.48"/><polygon class="cls-2" points="21.91 27.59 20.2 28.95 22.33 28.7 24.1 27.33 21.91 27.59"/><polygon class="cls-2" points="22.69 29.25 21.65 31.12 23.5 30.09 24.64 28.13 22.69 29.25"/><polygon class="cls-3" points="30.34 26.76 31.66 26.38 30.28 25.99 28.86 26.38 30.34 26.76"/><polygon class="cls-3" points="27.33 24.1 28.23 23 28.41 21.51 27.46 22.71 27.33 24.1"/><polygon class="cls-3" points="30.11 25.27 31.26 24.36 29.79 24.53 28.67 25.44 30.11 25.27"/><polygon class="cls-3" points="25.44 24.1 25.32 22.71 24.37 21.51 24.54 23.03 25.44 24.1"/><polygon class="cls-3" points="29.4 23.95 30.12 22.65 28.8 23.39 28.13 24.64 29.4 23.95"/><polygon class="cls-3" points="26.39 23.91 26.8 22.58 26.39 21.11 25.96 22.58 26.39 23.91"/><polygon class="cls-3" points="24.64 24.64 23.99 23.39 22.65 22.65 23.39 23.97 24.64 24.64"/><polygon class="cls-3" points="23.01 24.54 21.51 24.36 22.67 25.28 24.1 25.44 23.01 24.54"/><polygon class="cls-3" points="22.53 25.98 21.11 26.38 22.5 26.78 23.91 26.38 22.53 25.98"/><path class="cls-2" d="M5.68,22.62l.1.05A3.43,3.43,0,0,1,9,20.93a3.46,3.46,0,0,1,3.14,1.69,3.86,3.86,0,0,1,3.48-1.69,3.85,3.85,0,0,1,4.08,4.2V29c0,.86,0,2.48,0,2.95H17.43c0-.47,0-2.09,0-2.95V25.76a4.17,4.17,0,0,0-.37-2,1.89,1.89,0,0,0-1.77-.95c-1.42,0-2.55.9-2.55,3.16v3c0,.86,0,2.48,0,2.95H10.54c0-.47,0-2.09,0-2.95V25.76a3.58,3.58,0,0,0-.44-2.08,2,2,0,0,0-1.69-.88C7,22.8,5.93,24,5.93,26v3c0,.86,0,2.48,0,2.95H3.7c0-.47,0-2.09,0-2.95V24.17c0-.86,0-2.48,0-2.94H5.81A10.47,10.47,0,0,1,5.68,22.62Z"/><path class="cls-2" d="M37.23,21.2v2.21l-1.92,0v11c0,.86,0,2.48,0,2.94H33.08c0-.46,0-2.08,0-2.94V16.76a4.31,4.31,0,0,1,4.46-4.66v2.16a2.25,2.25,0,0,0-2.26,2.5v4.47C36,21.23,36.93,21.2,37.23,21.2Z"/><path class="cls-2" d="M38.55,28.12c0-2.31,1.94-3.68,4.32-3.68a3.52,3.52,0,0,1,2.8,1.13l.09-.05a7.17,7.17,0,0,1-.22-1,2,2,0,0,0-2.18-1.57,5.56,5.56,0,0,0-2.87.86L39.61,22a7.71,7.71,0,0,1,3.75-1,4.38,4.38,0,0,1,3.92,2,3.74,3.74,0,0,1,.45,1.94v6a8.49,8.49,0,0,1-4.47,1.37C40.44,32.19,38.55,30.55,38.55,28.12Zm7,1.47V27.51a3.22,3.22,0,0,0-2.65-1.26,2,2,0,0,0-2.21,1.87c0,1.3,1,2.11,2.6,2.11A4.4,4.4,0,0,0,45.52,29.59Z"/></g></g></g></g></svg>