<svg xmlns="http://www.w3.org/2000/svg" viewBox="0 0 31.18 39.05"><defs><style>.cls-1{fill:#e3a524;}.cls-2{fill:#e6d61a;}.cls-3{fill:#e65d24;}.cls-4{fill:#8ac53f;}.cls-5{fill:#de3a26;}.cls-6{fill:#60ba46;}.cls-7{fill:#cddb28;}.cls-8{fill:#57bf99;}.cls-9{fill:#3b94d1;}.cls-10{fill:#ec1d8e;}.cls-11{fill:#c44598;}.cls-12{fill:#20c0de;}.cls-13{fill:#8a509f;}.cls-14{fill:#4378bb;}.cls-15{fill:#5851a1;}.cls-16{fill:#3951a2;}.cls-17{opacity:0.6;}.cls-18{fill:#fff;}</style></defs><title>mofa-rainbow</title><g id="Layer_2" data-name="Layer 2"><g id="final"><g id="mofa"><g id="rainbow"><polygon class="cls-1" points="17.79 10.27 20.95 6.44 21.55 1.19 18.23 5.39 17.79 10.27"/><polygon class="cls-2" points="19.66 11.52 24.09 9.1 26.61 4.57 21.99 7.14 19.66 11.52"/><polygon class="cls-3" points="15.59 9.83 17.06 5.16 15.59 0 14.11 5.19 15.59 9.83"/><polygon class="cls-4" points="26.52 16.91 31.18 15.59 26.33 14.21 21.34 15.59 26.52 16.91"/><polygon class="cls-5" points="13.39 10.27 12.97 5.41 9.62 1.19 10.24 6.52 13.39 10.27"/><polygon class="cls-6" points="25.11 20.99 29.99 21.55 25.97 18.37 20.91 17.79 25.11 20.99"/><polygon class="cls-7" points="25.97 12.81 29.99 9.62 24.84 10.22 20.91 13.39 25.97 12.81"/><polygon class="cls-8" points="22.36 24.24 26.61 26.61 24.22 22.32 19.66 19.66 22.36 24.24"/><polygon class="cls-9" points="15.59 21.34 14.26 26.49 15.59 39.05 16.92 26.5 15.59 21.34"/><polygon class="cls-10" points="11.52 11.52 9.25 7.17 4.57 4.57 7.14 9.19 11.52 11.52"/><polygon class="cls-11" points="10.27 13.39 6.44 10.23 1.19 9.62 5.25 12.84 10.27 13.39"/><polygon class="cls-12" points="17.79 20.91 18.54 26.18 21.55 29.99 20.99 25.15 17.79 20.91"/><polygon class="cls-13" points="4.99 14.17 0 15.59 4.89 16.98 9.83 15.59 4.99 14.17"/><polygon class="cls-14" points="10.19 25.12 9.62 29.99 12.65 26.17 13.39 20.91 10.19 25.12"/><polygon class="cls-15" points="5.17 18.4 1.19 21.55 6.14 20.98 10.27 17.79 5.17 18.4"/><polygon class="cls-16" points="6.99 22.26 4.57 26.61 8.87 24.22 11.52 19.66 6.99 22.26"/><g class="cls-17"><polygon class="cls-18" points="24.79 16.47 27.88 15.59 24.66 14.67 21.34 15.59 24.79 16.47"/><polygon class="cls-18" points="17.79 10.27 19.89 7.72 20.29 4.24 18.08 7.03 17.79 10.27"/><polygon class="cls-18" points="24.27 13 26.94 10.89 23.52 11.28 20.91 13.39 24.27 13"/><polygon class="cls-18" points="13.39 10.27 13.11 7.04 10.89 4.24 11.3 7.78 13.39 10.27"/><polygon class="cls-18" points="22.6 9.91 24.28 6.9 21.21 8.61 19.66 11.52 22.6 9.91"/><polygon class="cls-18" points="15.59 9.83 16.57 6.73 15.59 3.3 14.61 6.75 15.59 9.83"/><polygon class="cls-18" points="11.52 11.52 10.01 8.63 6.9 6.9 8.61 9.97 11.52 11.52"/><polygon class="cls-18" points="7.72 11.29 4.24 10.89 6.94 13.03 10.27 13.39 7.72 11.29"/><polygon class="cls-18" points="6.62 14.65 3.3 15.59 6.55 16.51 9.83 15.59 6.62 14.65"/></g></g></g></g></g></svg>