<svg xmlns="http://www.w3.org/2000/svg" viewBox="0 0 58.98 38.64"><defs><style>.cls-1{fill:#019aed;}.cls-2{fill:#fff;}.cls-3{fill:#f90;}</style></defs><title>mofa-flag</title><g id="Layer_2" data-name="Layer 2"><g id="final"><g id="local-council"><g id="color"><rect class="cls-1" width="58.98" height="38.64"/><polygon class="cls-2" points="31.11 18.72 32.47 17.07 32.73 14.82 31.3 16.63 31.11 18.72"/><polygon class="cls-2" points="31.91 19.26 33.81 18.22 34.9 16.27 32.91 17.38 31.91 19.26"/><polygon class="cls-2" points="30.17 18.53 30.8 16.53 30.17 14.31 29.53 16.54 30.17 18.53"/><polygon class="cls-2" points="34.86 21.57 36.86 21.01 34.78 20.41 32.64 21.01 34.86 21.57"/><polygon class="cls-2" points="29.22 18.72 29.04 16.64 27.6 14.82 27.87 17.11 29.22 18.72"/><polygon class="cls-2" points="34.26 23.32 36.35 23.57 34.63 22.2 32.45 21.95 34.26 23.32"/><polygon class="cls-2" points="34.63 19.81 36.35 18.44 34.14 18.7 32.45 20.06 34.63 19.81"/><polygon class="cls-2" points="33.07 24.72 34.9 25.74 33.87 23.9 31.91 22.75 33.07 24.72"/><polygon class="cls-2" points="30.17 23.48 29.59 25.69 30.16 31.08 30.74 25.69 30.17 23.48"/><polygon class="cls-2" points="28.42 19.26 27.44 17.39 25.43 16.27 26.54 18.26 28.42 19.26"/><polygon class="cls-2" points="27.88 20.06 26.23 18.7 23.98 18.44 25.73 19.83 27.88 20.06"/><polygon class="cls-2" points="31.11 23.29 31.43 25.56 32.73 27.19 32.49 25.11 31.11 23.29"/><polygon class="cls-2" points="25.61 20.4 23.47 21.01 25.57 21.6 27.69 21.01 25.61 20.4"/><polygon class="cls-2" points="27.85 25.1 27.6 27.19 28.9 25.55 29.22 23.29 27.85 25.1"/><polygon class="cls-2" points="25.69 22.21 23.98 23.57 26.11 23.32 27.88 21.95 25.69 22.21"/><polygon class="cls-2" points="26.47 23.87 25.43 25.74 27.28 24.71 28.42 22.75 26.47 23.87"/><polygon class="cls-3" points="34.12 21.38 35.44 21.01 34.06 20.61 32.64 21.01 34.12 21.38"/><polygon class="cls-3" points="31.11 18.72 32.01 17.63 32.19 16.13 31.23 17.33 31.11 18.72"/><polygon class="cls-3" points="33.9 19.89 35.04 18.99 33.57 19.16 32.45 20.06 33.9 19.89"/><polygon class="cls-3" points="29.22 18.72 29.1 17.34 28.15 16.13 28.32 17.65 29.22 18.72"/><polygon class="cls-3" points="33.18 18.57 33.9 17.27 32.58 18.01 31.91 19.26 33.18 18.57"/><polygon class="cls-3" points="30.17 18.53 30.59 17.2 30.17 15.73 29.75 17.21 30.17 18.53"/><polygon class="cls-3" points="28.42 19.26 27.77 18.02 26.43 17.27 27.17 18.59 28.42 19.26"/><polygon class="cls-3" points="26.79 19.16 25.29 18.99 26.45 19.91 27.88 20.06 26.79 19.16"/><polygon class="cls-3" points="26.31 20.6 24.89 21.01 26.28 21.4 27.69 21.01 26.31 20.6"/><path class="cls-2" d="M9.46,17.25l.1.05a3.43,3.43,0,0,1,3.19-1.74,3.44,3.44,0,0,1,3.14,1.69,3.86,3.86,0,0,1,3.48-1.69,3.85,3.85,0,0,1,4.08,4.19v3.83c0,.85,0,2.47,0,2.94H21.21c0-.47,0-2.09,0-2.94V20.39a4.19,4.19,0,0,0-.37-2,1.9,1.9,0,0,0-1.77-.95c-1.42,0-2.55.91-2.55,3.16v3c0,.85,0,2.47,0,2.94H14.32c0-.47,0-2.09,0-2.94V20.39a3.63,3.63,0,0,0-.44-2.09,2,2,0,0,0-1.69-.88c-1.45,0-2.5,1.18-2.5,3.16v3c0,.85,0,2.47,0,2.94H7.48c0-.47,0-2.09,0-2.94V18.79c0-.86,0-2.47,0-2.94H9.59A10.87,10.87,0,0,1,9.46,17.25Z"/><path class="cls-2" d="M41,15.82V18l-1.92,0V29c0,.86,0,2.48,0,3H36.86c0-.47,0-2.09,0-3V11.39a4.32,4.32,0,0,1,4.46-4.67V8.88a2.26,2.26,0,0,0-2.26,2.51v4.46C39.81,15.85,40.71,15.82,41,15.82Z"/><path class="cls-2" d="M42.33,22.74c0-2.3,1.94-3.68,4.32-3.68a3.49,3.49,0,0,1,2.79,1.13l.1-.05a7,7,0,0,1-.22-1,2,2,0,0,0-2.18-1.57,5.67,5.67,0,0,0-2.87.85l-.88-1.83a7.6,7.6,0,0,1,3.75-1,4.36,4.36,0,0,1,3.92,2,3.69,3.69,0,0,1,.45,1.94v6A8.49,8.49,0,0,1,47,26.81C44.22,26.81,42.33,25.17,42.33,22.74Zm7,1.47V22.13a3.22,3.22,0,0,0-2.65-1.25,2,2,0,0,0-2.21,1.86c0,1.3,1,2.11,2.6,2.11A4.31,4.31,0,0,0,49.3,24.21Z"/></g></g></g></g></svg>