<svg xmlns="http://www.w3.org/2000/svg" viewBox="0 0 92.7 17.47"><defs><style>.cls-1{fill:#f90;}.cls-2{font-size:12px;font-family:Semplicita-Medium, Semplicità;font-weight:500;}.cls-2,.cls-4{fill:#019aed;}.cls-3{letter-spacing:-0.01em;}</style></defs><g id="Layer_2" data-name="Layer 2"><g id="development"><path class="cls-1" d="M7.05,2.44a6.3,6.3,0,1,1-6.3,6.3,6.3,6.3,0,0,1,6.3-6.3m0-.75a7,7,0,1,0,7,7.05,7.05,7.05,0,0,0-7-7Z"/><text class="cls-2" transform="translate(25 12.64)">HIGH CO<tspan class="cls-3" x="49.15" y="0">U</tspan><tspan x="56.46" y="0">RT</tspan></text><rect class="cls-1" x="19.04" width="0.75" height="17.47"/><path class="cls-4" d="M7.05,2.44a6.3,6.3,0,1,0,6.29,6.3A6.31,6.31,0,0,0,7.05,2.44Zm.68,11.19V6.89l1.15.84a1.67,1.67,0,0,1,.68,1.45H9.31a1.09,1.09,0,0,0-.7.42,1.08,1.08,0,0,0,.24,1.49h0a1.09,1.09,0,0,0,.62.2,1.05,1.05,0,0,0,.86-.44v0h0a3,3,0,0,0-.66-4.21L7.05,4.72,4.42,6.63a3,3,0,0,0-.67,4.21h0a1,1,0,0,0,.49.39,1,1,0,0,0,.38.07,1.12,1.12,0,0,0,.44-.09,1.1,1.1,0,0,0,.55-.59,1.06,1.06,0,0,0,0-.82,1,1,0,0,0-1-.61,1.61,1.61,0,0,1,0-.38,1.69,1.69,0,0,1,.66-1.08l1.16-.84v6.74a4.94,4.94,0,1,1,1.36,0Z"/></g></g></svg>