<svg xmlns="http://www.w3.org/2000/svg" viewBox="0 0 92.7 17.47" xmlns:v="https://vecta.io/nano"><path d="M7.05 2.44a6.3 6.3 0 1 1-6.3 6.3 6.3 6.3 0 0 1 6.3-6.3m0-.75a7 7 0 1 0 7 7.05 7.05 7.05 0 0 0-7-7z" fill="#f90"/><path d="M31.888 5.68l.012-1.44h-1.164l.012 1.44v1.884H26.74V5.68l.012-1.44h-1.164l.012 1.44v5.52l-.012 1.44h1.164l-.012-1.44V8.62h4.008v2.58l-.012 1.44H31.9l-.012-1.44zm1.417-1.44l.012 1.44v5.52l-.012 1.44h1.164l-.012-1.44V5.68l.012-1.44zm9.256 5.736c.204 0 .336-.048.372-.072l.036.048c-.036.024-.144.144-.228.36-.348.852-1.404 1.512-2.532 1.512-1.824 0-3.3-1.512-3.3-3.384s1.476-3.384 3.3-3.384c1.056 0 2.004.552 2.58 1.404l.84-.732C42.837 4.672 41.601 4 40.209 4c-2.448 0-4.44 1.992-4.44 4.44s1.992 4.44 4.44 4.44c2.136 0 3.864-1.596 3.864-3.552 0-.144-.012-.276-.024-.408h-2.532c-.42 0-1.212-.012-1.44-.012v1.08l1.44-.012zm8.827-4.296l.012-1.44h-1.164l.012 1.44v1.884H46.24V5.68l.012-1.44h-1.164l.012 1.44v5.52l-.012 1.44h1.164l-.012-1.44V8.62h4.008v2.58l-.012 1.44H51.4l-.012-1.44zm11.794 4.98c-.648.708-1.608 1.164-2.676 1.164-1.824 0-3.3-1.512-3.3-3.384s1.476-3.384 3.3-3.384a3.26 3.26 0 0 1 2.52 1.2l.816-.744C63.026 4.588 61.838 4 60.506 4c-2.448 0-4.44 1.992-4.44 4.44s1.992 4.44 4.44 4.44c1.368 0 2.592-.552 3.444-1.44zM69.225 4c-2.448 0-4.44 1.992-4.44 4.44s1.992 4.44 4.44 4.44 4.44-1.992 4.44-4.44S71.673 4 69.225 4zm0 1.056c1.824 0 3.3 1.512 3.3 3.384s-1.476 3.384-3.3 3.384-3.3-1.512-3.3-3.384 1.476-3.384 3.3-3.384zm6.677-.816h-1.164l.012 1.44V10c0 .936.252 1.512.696 1.98.588.624 1.524.9 2.64.9 1.572 0 2.532-.528 2.904-1.032V5.68l.012-1.44h-1.164l.012 1.44v5.712c-.24.216-.84.48-1.764.48-.732 0-1.38-.204-1.764-.612-.312-.324-.432-.816-.432-1.5V5.68l.012-1.44zm10.022 8.4h1.248l-.624-1.296L85.492 9.1c-.072-.156-.144-.264-.204-.324l.012-.024c.948-.228 1.584-1.128 1.584-2.184 0-1.284-.924-2.328-2.328-2.328H82.06v6.96l-.012 1.44h1.164L83.2 11.2V8.896h.984l1.26 2.676.48 1.068zm-1.512-7.416c.852 0 1.332.6 1.332 1.332s-.48 1.332-1.332 1.332H83.2V5.224zm8.126-.996l-1.44.012h-2.124c-.42 0-1.212-.012-1.44-.012v1.08l1.44-.012h.492V11.2l-.012 1.44h1.164l-.012-1.44V5.296h.492l1.44.012z" fill="#019aed"/><path d="M19.04 0h.75v17.47h-.75z" fill="#f90"/><path d="M7.05 2.44a6.3 6.3 0 1 0 6.29 6.3 6.31 6.31 0 0 0-6.29-6.3zm.68 11.19V6.89l1.15.84a1.67 1.67 0 0 1 .68 1.45h-.25a1.09 1.09 0 0 0-.7.42 1.08 1.08 0 0 0 .24 1.49h0a1.09 1.09 0 0 0 .62.2 1.05 1.05 0 0 0 .86-.44h0 0a3 3 0 0 0-.66-4.21L7.05 4.72 4.42 6.63a3 3 0 0 0-.67 4.21h0a1 1 0 0 0 .49.39 1 1 0 0 0 .38.07 1.12 1.12 0 0 0 .44-.09 1.1 1.1 0 0 0 .55-.59 1.06 1.06 0 0 0 0-.82 1 1 0 0 0-1-.61 1.61 1.61 0 0 1 0-.38 1.69 1.69 0 0 1 .66-1.08l1.16-.84v6.74a4.94 4.94 0 1 1 1.36 0z" fill="#019aed"/></svg>