<?xml version="1.0" encoding="UTF-8" standalone="no"?>
<svg
   viewBox="0 0 92.7 17.47"
   version="1.1"
   id="svg1201"
   sodipodi:docname="court-line-color.svg"
   inkscape:version="1.1 (c4e8f9e, 2021-05-24)"
   xmlns:inkscape="http://www.inkscape.org/namespaces/inkscape"
   xmlns:sodipodi="http://sodipodi.sourceforge.net/DTD/sodipodi-0.dtd"
   xmlns="http://www.w3.org/2000/svg"
   xmlns:svg="http://www.w3.org/2000/svg">
  <sodipodi:namedview
     id="namedview1203"
     pagecolor="#ffffff"
     bordercolor="#111111"
     borderopacity="1"
     inkscape:pageshadow="0"
     inkscape:pageopacity="0"
     inkscape:pagecheckerboard="1"
     showgrid="false"
     inkscape:zoom="12.351672"
     inkscape:cx="22.14275"
     inkscape:cy="9.7152835"
     inkscape:current-layer="development" />
  <defs
     id="defs1185">
    <style
       id="style1183">.cls-1{fill:#f90;}.cls-2{font-size:12px;font-family:Semplicita-Medium, Semplicità;font-weight:500;}.cls-2,.cls-4{fill:#019aed;}.cls-3{letter-spacing:-0.01em;}</style>
  </defs>
  <g
     id="Layer_2"
     data-name="Layer 2">
    <g
       id="development">
      <path
         class="cls-1"
         d="m 7.05,2.44 a 6.3,6.3 0 1 1 -6.3,6.3 6.3,6.3 0 0 1 6.3,-6.3 m 0,-0.75 a 7,7 0 1 0 7,7.05 7.05,7.05 0 0 0 -7,-7 z"
         id="path1187" />
      <g
         aria-label="HIGH COURT"
         transform="translate(25,12.64)"
         id="text1193"
         class="cls-2"
         style="font-weight:500;font-size:12px;font-family:Semplicita-Medium, Semplicità;fill:#019aed">
        <path
           d="M 6.888,-6.96 C 6.888,-7.38 6.9,-8.172 6.9,-8.4 H 5.736 c 0,0.228 0.012,1.02 0.012,1.44 v 1.884 H 1.74 V -6.96 c 0,-0.42 0.012,-1.212 0.012,-1.44 H 0.588 c 0,0.228 0.012,1.02 0.012,1.44 v 5.52 C 0.6,-1.02 0.588,-0.228 0.588,0 h 1.164 c 0,-0.228 -0.012,-1.02 -0.012,-1.44 v -2.58 h 4.008 v 2.58 c 0,0.42 -0.012,1.212 -0.012,1.44 H 6.9 c 0,-0.228 -0.012,-1.02 -0.012,-1.44 z"
           style="font-weight:500;font-size:12px;font-family:Semplicita-Medium, Semplicità;fill:#019aed"
           id="path1952" />
        <path
           d="m 8.3045625,-8.4 c 0,0.228 0.012,1.02 0.012,1.44 v 5.52 c 0,0.42 -0.012,1.212 -0.012,1.44 h 1.164 c 0,-0.228 -0.012,-1.02 -0.012,-1.44 v -5.52 c 0,-0.42 0.012,-1.212 0.012,-1.44 z"
           style="font-weight:500;font-size:12px;font-family:Semplicita-Medium, Semplicità;fill:#019aed"
           id="path1954" />
        <path
           d="m 17.561062,-2.664 c 0.204,0 0.336,-0.048 0.372,-0.072 l 0.036,0.048 c -0.036,0.024 -0.143999,0.144 -0.228,0.36 -0.348,0.852 -1.403999,1.512 -2.531999,1.512 -1.824,0 -3.3,-1.512 -3.3,-3.384 0,-1.872 1.476,-3.384 3.3,-3.384 1.055999,0 2.003999,0.552 2.579999,1.404 l 0.84,-0.732 c -0.791999,-1.056 -2.028,-1.728 -3.419999,-1.728 -2.448,0 -4.44,1.992 -4.44,4.44 0,2.448 1.992,4.44 4.44,4.44 2.135999,0 3.863999,-1.596 3.863999,-3.552 0,-0.144 -0.012,-0.276 -0.024,-0.408 h -2.531999 c -0.420001,0 -1.212,-0.012 -1.44,-0.012 v 1.08 c 0.228,0 1.019999,-0.012 1.44,-0.012 z"
           style="font-weight:500;font-size:12px;font-family:Semplicita-Medium, Semplicità;fill:#019aed"
           id="path1956" />
        <path
           d="m 26.388,-6.96 c 0,-0.42 0.012,-1.212 0.012,-1.44 h -1.164 c 0,0.228 0.012,1.02 0.012,1.44 v 1.884 H 21.24 V -6.96 c 0,-0.42 0.012,-1.212 0.012,-1.44 h -1.164 c 0,0.228 0.012,1.02 0.012,1.44 v 5.52 c 0,0.42 -0.012,1.212 -0.012,1.44 h 1.164 c 0,-0.228 -0.012,-1.02 -0.012,-1.44 v -2.58 h 4.008 v 2.58 c 0,0.42 -0.012,1.212 -0.012,1.44 H 26.4 c 0,-0.228 -0.012,-1.02 -0.012,-1.44 z"
           style="font-weight:500;font-size:12px;font-family:Semplicita-Medium, Semplicità;fill:#019aed"
           id="path1958" />
        <path
           d="m 38.181938,-1.98 c -0.648001,0.708 -1.608001,1.164 -2.676,1.164 -1.824,0 -3.300001,-1.512 -3.300001,-3.384 0,-1.872 1.476001,-3.384 3.300001,-3.384 1.007999,0 1.92,0.468 2.519999,1.2 l 0.816,-0.744 c -0.816,-0.924 -2.003999,-1.512 -3.335999,-1.512 -2.448,0 -4.440001,1.992 -4.440001,4.44 0,2.448 1.992001,4.44 4.440001,4.44 1.367999,0 2.591999,-0.552 3.444,-1.44 z"
           style="font-weight:500;font-size:12px;font-family:Semplicita-Medium, Semplicità;fill:#019aed"
           id="path1960" />
        <path
           d="m 44.224688,-8.64 c -2.448,0 -4.440001,1.992 -4.440001,4.44 0,2.448 1.992001,4.44 4.440001,4.44 2.448,0 4.439999,-1.992 4.439999,-4.44 0,-2.448 -1.991999,-4.44 -4.439999,-4.44 z m 0,1.056 c 1.823999,0 3.299999,1.512 3.299999,3.384 0,1.872 -1.476,3.384 -3.299999,3.384 -1.824,0 -3.300001,-1.512 -3.300001,-3.384 0,-1.872 1.476001,-3.384 3.300001,-3.384 z"
           style="font-weight:500;font-size:12px;font-family:Semplicita-Medium, Semplicità;fill:#019aed"
           id="path1962" />
        <path
           d="m 50.902002,-8.4 h -1.164 c 0,0.228 0.012,1.02 0.012,1.44 v 4.32 c 0,0.936 0.252,1.512 0.696,1.98 0.588,0.624 1.524,0.9 2.64,0.9 1.572,0 2.532,-0.528 2.904,-1.032 V -6.96 c 0,-0.42 0.012,-1.212 0.012,-1.44 h -1.164 c 0,0.228 0.012,1.02 0.012,1.44 v 5.712 c -0.24,0.216 -0.84,0.48 -1.764,0.48 -0.732,0 -1.38,-0.204 -1.764,-0.612 -0.312,-0.324 -0.432,-0.816 -0.432,-1.5 v -4.08 c 0,-0.42 0.012,-1.212 0.012,-1.44 z"
           style="letter-spacing:-0.01em"
           id="path1964" />
        <path
           d="m 60.923999,0 h 1.248 c 0,0 -0.396,-0.804 -0.624,-1.296 l -1.056,-2.244 c -0.072,-0.156 -0.144,-0.264 -0.204,-0.324 l 0.012,-0.024 c 0.948,-0.228 1.584,-1.128 1.584,-2.184 0,-1.284 -0.924,-2.328 -2.328,-2.328 h -2.496 v 6.96 c 0,0.42 -0.012,1.212 -0.012,1.44 h 1.164 c 0,-0.228 -0.012,-1.02 -0.012,-1.44 v -2.304 h 0.984 l 1.26,2.676 c 0.192,0.396 0.36,0.804 0.48,1.068 z m -1.512,-7.416 c 0.852,0 1.332,0.6 1.332,1.332 0,0.732 -0.48,1.332 -1.332,1.332 h -1.212 v -2.664 z"
           id="path1966" />
        <path
           d="m 67.538249,-8.412 c -0.228,0 -1.02,0.012 -1.44,0.012 h -2.124 c -0.42,0 -1.212,-0.012 -1.44,-0.012 v 1.08 c 0.228,0 1.02,-0.012 1.44,-0.012 h 0.492 v 5.904 c 0,0.42 -0.012,1.212 -0.012,1.44 h 1.164 c 0,-0.228 -0.012,-1.02 -0.012,-1.44 v -5.904 h 0.492 c 0.42,0 1.212,0.012 1.44,0.012 z"
           id="path1968" />
      </g>
      <rect
         class="cls-1"
         x="19.040001"
         width="0.75"
         height="17.469999"
         id="rect1195"
         y="0" />
      <path
         class="cls-4"
         d="m 7.05,2.44 a 6.3,6.3 0 1 0 6.29,6.3 6.31,6.31 0 0 0 -6.29,-6.3 z M 7.73,13.63 V 6.89 L 8.88,7.73 A 1.67,1.67 0 0 1 9.56,9.18 H 9.31 a 1.09,1.09 0 0 0 -0.7,0.42 1.08,1.08 0 0 0 0.24,1.49 v 0 a 1.09,1.09 0 0 0 0.62,0.2 1.05,1.05 0 0 0 0.86,-0.44 v 0 0 A 3,3 0 0 0 9.67,6.64 L 7.05,4.72 4.42,6.63 a 3,3 0 0 0 -0.67,4.21 v 0 a 1,1 0 0 0 0.49,0.39 1,1 0 0 0 0.38,0.07 1.12,1.12 0 0 0 0.44,-0.09 1.1,1.1 0 0 0 0.55,-0.59 1.06,1.06 0 0 0 0,-0.82 1,1 0 0 0 -1,-0.61 1.61,1.61 0 0 1 0,-0.38 1.69,1.69 0 0 1 0.66,-1.08 L 6.43,6.89 v 6.74 a 4.94,4.94 0 1 1 1.36,0 z"
         id="path1197" />
    </g>
  </g>
</svg>
