<svg xmlns="http://www.w3.org/2000/svg" viewBox="0 0 141.99 17.47"><defs><style>.cls-1{fill:#f90;}.cls-2{font-size:12px;font-family:Semplicita-Medium, Semplicità;font-weight:500;}.cls-2,.cls-4{fill:#019aed;}.cls-3{letter-spacing:-0.02em;}</style></defs><g id="Layer_2" data-name="Layer 2"><g id="development"><path class="cls-1" d="M7.05,2.44a6.3,6.3,0,1,1-6.3,6.3,6.3,6.3,0,0,1,6.3-6.3m0-.75a7,7,0,1,0,7,7.05,7.05,7.05,0,0,0-7-7Z"/><text class="cls-2" transform="translate(25 12.64)">MINIST<tspan class="cls-3" x="35" y="0">R</tspan><tspan x="40.68" y="0">Y OF DEFENCE</tspan></text><rect class="cls-1" x="19.04" width="0.75" height="17.47"/><path class="cls-4" d="M11.53,13.15A6.29,6.29,0,1,0,.75,8.74a6.21,6.21,0,0,0,1.82,4.41h0l0,0a6.3,6.3,0,0,0,8.92,0l0,0ZM7.05,3.82a4.91,4.91,0,0,1,3.49,8.37.5.5,0,0,1-.69,0,.47.47,0,0,1-.15-.35V8.68a1.06,1.06,0,0,0,.5.13,1.1,1.1,0,1,0,0-2.2A1.88,1.88,0,0,0,8.33,8.49v3.34a1.86,1.86,0,0,0,.55,1.33l.11.09a4.38,4.38,0,0,1-1.25.35V6.93a1.38,1.38,0,1,0-1.38,0V13.6a4.54,4.54,0,0,1-1.26-.35l.12-.09a1.9,1.9,0,0,0,.55-1.33V8.49A1.88,1.88,0,0,0,3.89,6.61a1.1,1.1,0,1,0,0,2.2,1.06,1.06,0,0,0,.5-.13v3.15a.5.5,0,0,1-.84.36,4.91,4.91,0,0,1,3.5-8.37Z"/></g></g></svg>