<svg xmlns="http://www.w3.org/2000/svg" xmlns:xlink="http://www.w3.org/1999/xlink" viewBox="0 0 141.99 17.47" xmlns:v="https://vecta.io/nano"><path d="M7.05 2.44a6.3 6.3 0 1 1-6.3 6.3 6.3 6.3 0 0 1 6.3-6.3m0-.75a7 7 0 1 0 7 7.05 7.05 7.05 0 0 0-7-7z" fill="#f90"/><g fill="#019aed"><path d="M26.884 3.88l-1.428 7.356-.288 1.404h1.152l.204-1.188.6-3.276.156-1.116.048-.012c.036.156.24.732.432 1.164l2.076 4.716 2.088-4.68c.192-.432.408-1.008.444-1.164l.048.012c-.012.12.024.672.108 1.14l.612 3.204.204 1.2h1.152l-.276-1.416L32.74 3.88l-2.388 5.388c-.252.576-.468 1.2-.48 1.332h-.048c-.012-.12-.168-.672-.468-1.332zm8.624.36l.012 1.44v5.52l-.012 1.44h1.164l-.012-1.44V5.68l.012-1.44z"/><use xlink:href="#B"/><path d="M46.969 4.24l.012 1.44v5.52l-.012 1.44h1.164l-.012-1.44V5.68l.012-1.44zm2.128 6.96c.432.78 1.284 1.584 2.616 1.584 1.548 0 2.52-.948 2.52-2.304 0-1.344-1.02-2.1-1.956-2.748-.792-.552-1.5-.984-1.5-1.716 0-.492.348-.912 1.008-.912s1.092.432 1.392.84l.876-.66c-.468-.564-1.152-1.188-2.268-1.188-1.272 0-2.136.828-2.136 1.968 0 1.224 1.02 1.908 1.956 2.568.768.54 1.488 1.068 1.488 1.944 0 .66-.516 1.176-1.38 1.176-.78 0-1.332-.54-1.644-1.08zM59.82 4.228l-1.44.012h-2.124c-.42 0-1.212-.012-1.44-.012v1.08l1.44-.012h.492V11.2l-.012 1.44H57.9l-.012-1.44V5.296h.492l1.44.012zm4.644 8.412h1.248l-.624-1.296L64.032 9.1c-.072-.156-.144-.264-.204-.324l.012-.024c.948-.228 1.584-1.128 1.584-2.184 0-1.284-.924-2.328-2.328-2.328H60.6v6.96l-.012 1.44h1.164l-.012-1.44V8.896h.984l1.26 2.676.48 1.068zm-1.512-7.416c.852 0 1.332.6 1.332 1.332s-.48 1.332-1.332 1.332H61.74V5.224zm5.788 7.416h1.164l-.012-1.44V8.956l1.836-3.24.852-1.476h-1.272l-.504.912-1.092 1.932c-.204.372-.396.756-.396.828h-.048c0-.072-.168-.456-.384-.828l-1.128-1.92-.528-.924h-1.296l.912 1.5 1.908 3.252V11.2l-.012 1.44zM81.358 4c-2.448 0-4.44 1.992-4.44 4.44s1.992 4.44 4.44 4.44 4.44-1.992 4.44-4.44S83.806 4 81.358 4zm0 1.056c1.824 0 3.3 1.512 3.3 3.384s-1.476 3.384-3.3 3.384-3.3-1.512-3.3-3.384 1.476-3.384 3.3-3.384zm5.524 6.144l-.012 1.44h1.164l-.012-1.44V8.56h.924l1.44.012v-1.08l-1.44.012h-.924V5.272h1.548l1.44.012V4.228l-1.44.012h-2.688zm8.718 1.44h2.58c2.256 0 4.08-1.884 4.08-4.2s-1.932-4.2-4.32-4.2H95.6zm2.136-7.368c1.872 0 3.384 1.416 3.384 3.168 0 1.74-1.404 3.144-3.132 3.144H96.74V5.272z"/><use xlink:href="#C"/><path d="M108.936 11.2l-.012 1.44h1.164l-.012-1.44V8.56H111l1.44.012v-1.08l-1.44.012h-.924V5.272h1.548l1.44.012V4.228l-1.44.012h-2.688z"/><use xlink:href="#C" x="10.711"/><use xlink:href="#B" x="81.555"/><path d="M135.292 10.66c-.648.708-1.608 1.164-2.676 1.164-1.824 0-3.3-1.512-3.3-3.384s1.476-3.384 3.3-3.384a3.26 3.26 0 0 1 2.52 1.2l.816-.744C135.136 4.588 133.948 4 132.616 4c-2.448 0-4.44 1.992-4.44 4.44s1.992 4.44 4.44 4.44c1.368 0 2.592-.552 3.444-1.44z"/><use xlink:href="#C" x="33.679"/></g><path d="M19.04 0h.75v17.47h-.75z" fill="#f90"/><path d="M11.53 13.15A6.29 6.29 0 1 0 .75 8.74a6.21 6.21 0 0 0 1.82 4.41h0 0a6.3 6.3 0 0 0 8.92 0h0zM7.05 3.82a4.91 4.91 0 0 1 3.49 8.37.5.5 0 0 1-.69 0 .47.47 0 0 1-.15-.35V8.68a1.06 1.06 0 0 0 .5.13 1.1 1.1 0 1 0 0-2.2 1.88 1.88 0 0 0-1.87 1.88v3.34a1.86 1.86 0 0 0 .55 1.33l.11.09a4.38 4.38 0 0 1-1.25.35V6.93a1.38 1.38 0 1 0-1.38 0v6.67a4.54 4.54 0 0 1-1.26-.35l.12-.09a1.9 1.9 0 0 0 .55-1.33V8.49a1.88 1.88 0 0 0-1.88-1.88 1.1 1.1 0 1 0 0 2.2 1.06 1.06 0 0 0 .5-.13v3.15a.5.5 0 0 1-.84.36 4.91 4.91 0 0 1 3.5-8.37z" fill="#019aed"/><defs ><path id="B" d="M45.544 12.976V5.68l.012-1.44h-1.164l.012 1.44v3.84c0 .456.06.768.084.888l-.036.024c-.24-.336-.612-.708-.96-1.068l-5.4-5.46V11.2l-.012 1.44h1.164l-.012-1.44V7.36c0-.456-.06-.768-.084-.888l.036-.024c.24.336.612.708.96 1.068z"/><path id="C" d="M103.335 12.64h3.024l1.44.012v-1.128l-1.44.012h-1.884V8.584h1.056l1.44.012V7.492l-1.44.012h-1.056V5.296h1.644l1.44.012v-1.08l-1.44.012h-2.784z"/></defs></svg>