<?xml version="1.0" encoding="UTF-8" standalone="no"?>
<svg
   viewBox="0 0 141.99 17.47"
   version="1.1"
   id="svg1369"
   sodipodi:docname="defence-line-color.svg"
   inkscape:version="1.1 (c4e8f9e, 2021-05-24)"
   xmlns:inkscape="http://www.inkscape.org/namespaces/inkscape"
   xmlns:sodipodi="http://sodipodi.sourceforge.net/DTD/sodipodi-0.dtd"
   xmlns="http://www.w3.org/2000/svg"
   xmlns:svg="http://www.w3.org/2000/svg">
  <sodipodi:namedview
     id="namedview1371"
     pagecolor="#ffffff"
     bordercolor="#111111"
     borderopacity="1"
     inkscape:pageshadow="0"
     inkscape:pageopacity="0"
     inkscape:pagecheckerboard="1"
     showgrid="false"
     inkscape:zoom="8.0639479"
     inkscape:cx="33.91639"
     inkscape:cy="10.168717"
     inkscape:current-layer="development" />
  <defs
     id="defs1353">
    <style
       id="style1351">.cls-1{fill:#f90;}.cls-2{font-size:12px;font-family:Semplicita-Medium, Semplicità;font-weight:500;}.cls-2,.cls-4{fill:#019aed;}.cls-3{letter-spacing:-0.02em;}</style>
  </defs>
  <g
     id="Layer_2"
     data-name="Layer 2">
    <g
       id="development">
      <path
         class="cls-1"
         d="m 7.05,2.44 a 6.3,6.3 0 1 1 -6.3,6.3 6.3,6.3 0 0 1 6.3,-6.3 m 0,-0.75 a 7,7 0 1 0 7,7.05 7.05,7.05 0 0 0 -7,-7 z"
         id="path1355" />
      <g
         aria-label="MINISTRY OF DEFENCE"
         transform="translate(25,12.64)"
         id="text1361"
         class="cls-2"
         style="font-weight:500;font-size:12px;font-family:Semplicita-Medium, Semplicità;fill:#019aed">
        <path
           d="M 1.884,-8.76 0.456,-1.404 C 0.384,-1.008 0.168,0 0.168,0 H 1.32 c 0,0 0.132,-0.768 0.204,-1.188 l 0.6,-3.276 C 2.208,-4.932 2.292,-5.46 2.28,-5.58 l 0.048,-0.012 c 0.036,0.156 0.24,0.732 0.432,1.164 l 2.076,4.716 2.088,-4.68 C 7.116,-4.824 7.332,-5.4 7.368,-5.556 l 0.048,0.012 c -0.012,0.12 0.024,0.672 0.108,1.14 L 8.136,-1.2 C 8.208,-0.804 8.268,-0.396 8.34,0 h 1.152 c 0,0 -0.168,-0.876 -0.276,-1.416 L 7.74,-8.76 5.352,-3.372 C 5.1,-2.796 4.884,-2.172 4.872,-2.04 H 4.824 C 4.812,-2.16 4.656,-2.712 4.356,-3.372 Z"
           style="font-weight:500;font-size:12px;font-family:Semplicita-Medium, Semplicità;fill:#019aed"
           id="path1792" />
        <path
           d="m 10.507687,-8.4 c 0,0.228 0.012,1.02 0.012,1.44 v 5.52 c 0,0.42 -0.012,1.212 -0.012,1.44 h 1.164001 c 0,-0.228 -0.012,-1.02 -0.012,-1.44 v -5.52 c 0,-0.42 0.012,-1.212 0.012,-1.44 z"
           style="font-weight:500;font-size:12px;font-family:Semplicita-Medium, Semplicità;fill:#019aed"
           id="path1794" />
        <path
           d="M 20.544187,0.336 V -6.96 c 0,-0.42 0.012,-1.212 0.012,-1.44 h -1.164 c 0,0.228 0.012,1.02 0.012,1.44 v 3.84 c 0,0.456 0.06,0.768 0.084,0.888 l -0.036,0.024 c -0.24,-0.336 -0.612,-0.708 -0.96,-1.068 l -5.399999,-5.46 v 7.296 c 0,0.42 -0.012,1.212 -0.012,1.44 h 1.163999 c 0,-0.228 -0.012,-1.02 -0.012,-1.44 v -3.84 c 0,-0.456 -0.06,-0.768 -0.084,-0.888 l 0.036,-0.024 c 0.24,0.336 0.612,0.708 0.96,1.068 z"
           style="font-weight:500;font-size:12px;font-family:Semplicita-Medium, Semplicità;fill:#019aed"
           id="path1796" />
        <path
           d="m 21.968625,-8.4 c 0,0.228 0.012,1.02 0.012,1.44 v 5.52 c 0,0.42 -0.012,1.212 -0.012,1.44 h 1.164 c 0,-0.228 -0.012,-1.02 -0.012,-1.44 v -5.52 c 0,-0.42 0.012,-1.212 0.012,-1.44 z"
           style="font-weight:500;font-size:12px;font-family:Semplicita-Medium, Semplicità;fill:#019aed"
           id="path1798" />
        <path
           d="m 24.097125,-1.44 c 0.432,0.78 1.284,1.584 2.616,1.584 1.548,0 2.52,-0.948 2.52,-2.304 0,-1.344 -1.02,-2.1 -1.956,-2.748 -0.792,-0.552 -1.5,-0.984 -1.5,-1.716 0,-0.492 0.348,-0.912 1.008,-0.912 0.66,0 1.092,0.432 1.392,0.84 l 0.876,-0.66 c -0.468,-0.564 -1.152,-1.188 -2.268,-1.188 -1.272,0 -2.136,0.828 -2.136,1.968 0,1.224 1.02,1.908 1.956,2.568 0.768,0.54 1.488,1.068 1.488,1.944 0,0.66 -0.516,1.176 -1.38,1.176 -0.78,0 -1.332,-0.54 -1.644,-1.08 z"
           style="font-weight:500;font-size:12px;font-family:Semplicita-Medium, Semplicità;fill:#019aed"
           id="path1800" />
        <path
           d="m 34.820437,-8.412 c -0.227999,0 -1.02,0.012 -1.44,0.012 h -2.124 c -0.42,0 -1.212,-0.012 -1.44,-0.012 v 1.08 c 0.228,0 1.02,-0.012 1.44,-0.012 h 0.492001 v 5.904 c 0,0.42 -0.012,1.212 -0.012,1.44 h 1.164001 c 0,-0.228 -0.012,-1.02 -0.012,-1.44 v -5.904 h 0.491999 c 0.42,0 1.212001,0.012 1.44,0.012 z"
           style="font-weight:500;font-size:12px;font-family:Semplicita-Medium, Semplicità;fill:#019aed"
           id="path1802" />
        <path
           d="m 39.464,0 h 1.248 c 0,0 -0.396,-0.804 -0.624,-1.296 L 39.032,-3.54 C 38.96,-3.696 38.888,-3.804 38.828,-3.864 l 0.012,-0.024 c 0.948,-0.228 1.584,-1.128 1.584,-2.184 0,-1.284 -0.924,-2.328 -2.328,-2.328 H 35.6 v 6.96 c 0,0.42 -0.012,1.212 -0.012,1.44 h 1.164 c 0,-0.228 -0.012,-1.02 -0.012,-1.44 v -2.304 h 0.984 l 1.26,2.676 c 0.192,0.396 0.36,0.804 0.48,1.068 z m -1.512,-7.416 c 0.852,0 1.332,0.6 1.332,1.332 0,0.732 -0.48,1.332 -1.332,1.332 H 36.74 v -2.664 z"
           style="letter-spacing:-0.02em"
           id="path1804" />
        <path
           d="m 43.74,0 h 1.164 c 0,-0.228 -0.012,-1.02 -0.012,-1.44 v -2.244 l 1.836,-3.24 C 47.016,-7.428 47.292,-7.92 47.58,-8.4 h -1.272 c -0.168,0.3 -0.324,0.6 -0.504,0.912 l -1.092,1.932 c -0.204,0.372 -0.396,0.756 -0.396,0.828 h -0.048 c 0,-0.072 -0.168,-0.456 -0.384,-0.828 l -1.128,-1.92 C 42.564,-7.8 42.408,-8.088 42.228,-8.4 h -1.296 c 0.108,0.192 0.696,1.14 0.912,1.5 l 1.908,3.252 v 2.208 c 0,0.42 -0.012,1.212 -0.012,1.44 z"
           id="path1806" />
        <path
           d="m 56.357813,-8.64 c -2.448,0 -4.44,1.992 -4.44,4.44 0,2.448 1.992,4.44 4.44,4.44 2.448,0 4.44,-1.992 4.44,-4.44 0,-2.448 -1.992,-4.44 -4.44,-4.44 z m 0,1.056 c 1.824,0 3.3,1.512 3.3,3.384 0,1.872 -1.476,3.384 -3.3,3.384 -1.824,0 -3.3,-1.512 -3.3,-3.384 0,-1.872 1.476,-3.384 3.3,-3.384 z"
           id="path1808" />
        <path
           d="m 61.881563,-1.44 c 0,0.42 -0.012,1.212 -0.012,1.44 h 1.164 c 0,-0.228 -0.012,-1.02 -0.012,-1.44 v -2.64 h 0.924 c 0.42,0 1.212,0.012 1.44,0.012 v -1.08 c -0.228,0 -1.02,0.012 -1.44,0.012 h -0.924 v -2.232 h 1.548 c 0.42,0 1.212,0.012 1.44,0.012 v -1.056 c -0.228,0 -1.02,0.012 -1.44,0.012 h -2.688 z"
           id="path1810" />
        <path
           d="m 70.600313,0 h 2.58 c 2.256,0 4.08,-1.884 4.08,-4.2 0,-2.316 -1.932,-4.2 -4.32,-4.2 h -2.34 z m 2.136,-7.368 c 1.872,0 3.384,1.416 3.384,3.168 0,1.74 -1.404,3.144 -3.132,3.144 h -1.248 v -6.312 z"
           id="path1812" />
        <path
           d="m 78.334688,0 h 3.024 c 0.42,0 1.212,0.012 1.44,0.012 v -1.128 c -0.228,0 -1.02,0.012 -1.44,0.012 h -1.884 v -2.952 h 1.056 c 0.42,0 1.212,0.012 1.44,0.012 v -1.104 c -0.228,0 -1.02,0.012 -1.44,0.012 h -1.056 v -2.208 h 1.644 c 0.42,0 1.212,0.012 1.44,0.012 v -1.08 c -0.228,0 -1.02,0.012 -1.44,0.012 h -2.784 z"
           id="path1814" />
        <path
           d="m 83.93625,-1.44 c 0,0.42 -0.012,1.212 -0.012,1.44 h 1.164 c 0,-0.228 -0.012,-1.02 -0.012,-1.44 v -2.64 h 0.924 c 0.42,0 1.212,0.012 1.44,0.012 v -1.08 c -0.228,0 -1.02,0.012 -1.44,0.012 h -0.924 v -2.232 h 1.548 c 0.42,0 1.212,0.012 1.44,0.012 v -1.056 c -0.228,0 -1.02,0.012 -1.44,0.012 h -2.688 z"
           id="path1816" />
        <path
           d="m 89.045625,0 h 3.024 c 0.42,0 1.212,0.012 1.44,0.012 v -1.128 c -0.228,0 -1.02,0.012 -1.44,0.012 h -1.884 v -2.952 h 1.056 c 0.42,0 1.212,0.012 1.44,0.012 v -1.104 c -0.228,0 -1.02,0.012 -1.44,0.012 h -1.056 v -2.208 h 1.644 c 0.42,0 1.212,0.012 1.44,0.012 v -1.08 c -0.228,0 -1.02,0.012 -1.44,0.012 h -2.784 z"
           id="path1818" />
        <path
           d="M 102.09919,0.336 V -6.96 c 0,-0.42 0.012,-1.212 0.012,-1.44 h -1.164 c 0,0.228 0.012,1.02 0.012,1.44 v 3.84 c 0,0.456 0.06,0.768 0.084,0.888 l -0.036,0.024 c -0.24,-0.336 -0.612,-0.708 -0.96,-1.068 l -5.400002,-5.46 v 7.296 c 0,0.42 -0.012,1.212 -0.012,1.44 h 1.164 c 0,-0.228 -0.012,-1.02 -0.012,-1.44 v -3.84 c 0,-0.456 -0.06,-0.768 -0.084,-0.888 l 0.036,-0.024 c 0.24,0.336 0.612,0.708 0.96,1.068 z"
           id="path1820" />
        <path
           d="m 110.29163,-1.98 c -0.648,0.708 -1.608,1.164 -2.676,1.164 -1.824,0 -3.3,-1.512 -3.3,-3.384 0,-1.872 1.476,-3.384 3.3,-3.384 1.008,0 1.92,0.468 2.52,1.2 l 0.816,-0.744 c -0.816,-0.924 -2.004,-1.512 -3.336,-1.512 -2.448,0 -4.44,1.992 -4.44,4.44 0,2.448 1.992,4.44 4.44,4.44 1.368,0 2.592,-0.552 3.444,-1.44 z"
           id="path1822" />
        <path
           d="m 112.01438,0 h 3.024 c 0.42,0 1.212,0.012 1.44,0.012 v -1.128 c -0.228,0 -1.02,0.012 -1.44,0.012 h -1.884 v -2.952 h 1.056 c 0.42,0 1.212,0.012 1.44,0.012 v -1.104 c -0.228,0 -1.02,0.012 -1.44,0.012 h -1.056 v -2.208 h 1.644 c 0.42,0 1.212,0.012 1.44,0.012 v -1.08 c -0.228,0 -1.02,0.012 -1.44,0.012 h -2.784 z"
           id="path1824" />
      </g>
      <rect
         class="cls-1"
         x="19.040001"
         width="0.75"
         height="17.469999"
         id="rect1363"
         y="0" />
      <path
         class="cls-4"
         d="M 11.53,13.15 A 6.29,6.29 0 1 0 0.75,8.74 6.21,6.21 0 0 0 2.57,13.15 v 0 0 a 6.3,6.3 0 0 0 8.92,0 v 0 z M 7.05,3.82 a 4.91,4.91 0 0 1 3.49,8.37 0.5,0.5 0 0 1 -0.69,0 A 0.47,0.47 0 0 1 9.7,11.84 V 8.68 a 1.06,1.06 0 0 0 0.5,0.13 1.1,1.1 0 1 0 0,-2.2 1.88,1.88 0 0 0 -1.87,1.88 v 3.34 a 1.86,1.86 0 0 0 0.55,1.33 l 0.11,0.09 A 4.38,4.38 0 0 1 7.74,13.6 V 6.93 a 1.38,1.38 0 1 0 -1.38,0 V 13.6 A 4.54,4.54 0 0 1 5.1,13.25 L 5.22,13.16 A 1.9,1.9 0 0 0 5.77,11.83 V 8.49 a 1.88,1.88 0 0 0 -1.88,-1.88 1.1,1.1 0 1 0 0,2.2 1.06,1.06 0 0 0 0.5,-0.13 v 3.15 a 0.5,0.5 0 0 1 -0.84,0.36 4.91,4.91 0 0 1 3.5,-8.37 z"
         id="path1365" />
    </g>
  </g>
</svg>
